<svg xmlns="http://www.w3.org/2000/svg" width="205.642" height="44.543" viewBox="0 0 205.642 44.543">
  <g id="그룹_940" data-name="그룹 940" transform="translate(-89.825 -118.457)">
    <path id="패스_1782" data-name="패스 1782" d="M89.825,118.457h31.808V127.9H101.515v8.09H120v9.444H101.515v8.121h20.026V163H89.825Z" fill="#040506"/>
    <path id="패스_1783" data-name="패스 1783" d="M148.7,150.172h.4l9.321-31.715h13.227L156.855,163h-15.9l-14.8-44.543h13.227Z" fill="#040506"/>
    <path id="패스_1784" data-name="패스 1784" d="M176.05,118.457h31.808V127.9H187.74v8.09h18.488v9.444H187.74v8.121h20.026V163H176.05Z" fill="#040506"/>
    <path id="패스_1785" data-name="패스 1785" d="M252.339,163h-9.813l-16.519-24.025H225.7V163H214.01V118.457h10l16.273,23.963h.369V118.457h11.689Z" fill="#040506"/>
    <path id="패스_1786" data-name="패스 1786" d="M257.046,118.457h38.421V127.9H282.024V163h-11.5V127.9H257.046Z" fill="#040506"/>
  </g>
</svg>
