<svg xmlns="http://www.w3.org/2000/svg" width="488.957" height="45.773" viewBox="0 0 488.957 45.773">
  <g id="그룹_941" data-name="그룹 941" transform="translate(-104.137 -293.842)">
    <path id="패스_1787" data-name="패스 1787" d="M118.656,294.457l10.675,25.871h.492l10.613-25.871h14.581V339H143.573V312.791H143.2l-10.121,25.871H126.07l-10.121-25.994h-.369V339H104.137V294.457Z" fill="#040506"/>
    <path id="패스_1788" data-name="패스 1788" d="M199.283,294.457v28.608a15.211,15.211,0,0,1-9.121,14.413,23.363,23.363,0,0,1-10.044,2.045,23.051,23.051,0,0,1-10-2.045,15.261,15.261,0,0,1-9.075-14.413V294.457h11.689v27.594a7.478,7.478,0,0,0,.954,3.767,6.859,6.859,0,0,0,2.645,2.631,7.578,7.578,0,0,0,3.784.953,7.765,7.765,0,0,0,3.876-.953,6.644,6.644,0,0,0,2.615-2.631,7.68,7.68,0,0,0,.923-3.767V294.457Z" fill="#040506"/>
    <path id="패스_1789" data-name="패스 1789" d="M219.77,294.457l10.674,25.871h.493l10.612-25.871H256.13V339H244.687V312.791h-.369L234.2,338.662h-7.013l-10.121-25.994h-.369V339H205.25V294.457Z" fill="#040506"/>
    <path id="패스_1790" data-name="패스 1790" d="M300.4,294.457v28.608a15.208,15.208,0,0,1-9.12,14.413,23.363,23.363,0,0,1-10.044,2.045,23.053,23.053,0,0,1-10-2.045,15.258,15.258,0,0,1-9.074-14.413V294.457h11.689v27.594a7.478,7.478,0,0,0,.954,3.767,6.852,6.852,0,0,0,2.645,2.631,7.578,7.578,0,0,0,3.784.953,7.765,7.765,0,0,0,3.876-.953,6.657,6.657,0,0,0,2.615-2.631,7.68,7.68,0,0,0,.923-3.767V294.457Z" fill="#040506"/>
    <path id="패스_1791" data-name="패스 1791" d="M313.316,312.33H305.6V294.457h7.721Z" fill="#040506"/>
    <path id="패스_1792" data-name="패스 1792" d="M336.726,313.883a5.428,5.428,0,0,0-3.2-.907,7.162,7.162,0,0,0-1.985.261,3.176,3.176,0,0,0-1.43.8,1.733,1.733,0,0,0-.523,1.246,1.712,1.712,0,0,0,.723,1.477,5.939,5.939,0,0,0,2.63.984l6.737,1.231q5.106.922,7.583,3.152a7.546,7.546,0,0,1,2.476,5.891,9.615,9.615,0,0,1-2.061,6.106,13.194,13.194,0,0,1-5.644,4.061,22.071,22.071,0,0,1-8.229,1.43,23.5,23.5,0,0,1-8.521-1.4,13.252,13.252,0,0,1-5.645-3.923,11.1,11.1,0,0,1-2.415-5.937H328.79a3.819,3.819,0,0,0,1.676,2.461,6.063,6.063,0,0,0,3.43.892,7.258,7.258,0,0,0,2.107-.276,3.385,3.385,0,0,0,1.431-.8,1.724,1.724,0,0,0,.523-1.262,1.831,1.831,0,0,0-.954-1.614,8.706,8.706,0,0,0-2.953-.97l-5.876-1.045q-5.075-.894-7.629-3.369a8.4,8.4,0,0,1-2.522-6.383,9.466,9.466,0,0,1,1.83-5.89,11.261,11.261,0,0,1,5.276-3.676,23.792,23.792,0,0,1,8.183-1.262,22.616,22.616,0,0,1,8.167,1.338,11.927,11.927,0,0,1,5.368,3.861,10.467,10.467,0,0,1,2.061,6H338.172A3.289,3.289,0,0,0,336.726,313.883Z" fill="#040506"/>
    <path id="패스_1793" data-name="패스 1793" d="M395.712,306.361a6.36,6.36,0,0,0-2.492-1.722,9.555,9.555,0,0,0-3.491-.584,9.245,9.245,0,0,0-5.276,1.476,9.357,9.357,0,0,0-3.384,4.323,17.675,17.675,0,0,0-1.184,6.813,18.733,18.733,0,0,0,1.123,6.875,8.671,8.671,0,0,0,8.628,5.86,11.741,11.741,0,0,0,4.707-.845,6.124,6.124,0,0,0,2.891-2.415,6.968,6.968,0,0,0,.954-3.692l2.092.246h-10.4v-8.46h19.6v6.122a20.061,20.061,0,0,1-2.539,10.29,16.907,16.907,0,0,1-7.043,6.661,22.348,22.348,0,0,1-10.321,2.306,22.758,22.758,0,0,1-11.351-2.768,19.1,19.1,0,0,1-7.645-7.937,25.657,25.657,0,0,1-2.722-12.12,25.209,25.209,0,0,1,2.861-12.335,19.555,19.555,0,0,1,7.767-7.906,23.745,23.745,0,0,1,20.441-.754,17.84,17.84,0,0,1,6.922,5.43,15.673,15.673,0,0,1,3.137,7.906H397.111A6.448,6.448,0,0,0,395.712,306.361Z" fill="#040506"/>
    <path id="패스_1794" data-name="패스 1794" d="M455.3,329.079a19.089,19.089,0,0,1-7.721,7.86,24.031,24.031,0,0,1-22.041,0,19.091,19.091,0,0,1-7.705-7.875,28.569,28.569,0,0,1,0-24.732,19.028,19.028,0,0,1,7.705-7.829,24.151,24.151,0,0,1,22.041,0,19.01,19.01,0,0,1,7.721,7.829,28.611,28.611,0,0,1,0,24.747Zm-10.3-19.272a8.886,8.886,0,0,0-3.23-4.291,10.006,10.006,0,0,0-10.412,0,8.91,8.91,0,0,0-3.215,4.291,22.481,22.481,0,0,0,0,13.843,8.378,8.378,0,0,0,8.413,5.752,9.016,9.016,0,0,0,5.214-1.461,8.886,8.886,0,0,0,3.23-4.291,22.481,22.481,0,0,0,0-13.843Z" fill="#040506"/>
    <path id="패스_1795" data-name="패스 1795" d="M503.87,329.079a19.085,19.085,0,0,1-7.722,7.86,24.031,24.031,0,0,1-22.041,0,19.1,19.1,0,0,1-7.7-7.875,28.578,28.578,0,0,1,0-24.732,19.04,19.04,0,0,1,7.7-7.829,24.151,24.151,0,0,1,22.041,0,19.007,19.007,0,0,1,7.722,7.829,28.6,28.6,0,0,1,0,24.747Zm-10.306-19.272a8.884,8.884,0,0,0-3.229-4.291,10.008,10.008,0,0,0-10.413,0,8.929,8.929,0,0,0-3.215,4.291,22.481,22.481,0,0,0,0,13.843,8.94,8.94,0,0,0,16.857,0,22.481,22.481,0,0,0,0-13.843Z" fill="#040506"/>
    <path id="패스_1796" data-name="패스 1796" d="M524.127,339h-11.69V294.457h11.69Zm-6.891,0v-9.967h11.69a13.322,13.322,0,0,0,5.951-1.169,7.674,7.674,0,0,0,3.584-3.876,17.8,17.8,0,0,0,1.23-7.259,17.991,17.991,0,0,0-1.23-7.322,7.462,7.462,0,0,0-3.66-3.844,14.521,14.521,0,0,0-6.153-1.139h-11.6v-9.967H529.2a24.974,24.974,0,0,1,11.89,2.676,18.367,18.367,0,0,1,7.72,7.691,27.668,27.668,0,0,1,0,23.809,18.413,18.413,0,0,1-7.689,7.691A24.6,24.6,0,0,1,529.355,339Z" fill="#040506"/>
    <path id="패스_1797" data-name="패스 1797" d="M580.42,305.623a4.272,4.272,0,0,0-2.045-1.614,9.1,9.1,0,0,0-3.369-.538,8.955,8.955,0,0,0-3.091.461,4.1,4.1,0,0,0-1.877,1.276,3.206,3.206,0,0,0,.784,4.568,14.619,14.619,0,0,0,4.707,1.785l3.723.738q7.1,1.537,10.443,4.937a12.06,12.06,0,0,1,3.4,8.66,12.331,12.331,0,0,1-2.168,7.367,13.617,13.617,0,0,1-6.184,4.645,25.832,25.832,0,0,1-9.643,1.615,26.515,26.515,0,0,1-10.09-1.753,13.877,13.877,0,0,1-6.583-5.307,16.583,16.583,0,0,1-2.4-8.9h11.2a6.855,6.855,0,0,0,1.077,3.461,5.865,5.865,0,0,0,2.644,2.153,10.13,10.13,0,0,0,4,.723,9.485,9.485,0,0,0,3.353-.524,4.824,4.824,0,0,0,2.107-1.414,3.18,3.18,0,0,0,.723-2.061,2.858,2.858,0,0,0-.677-1.908,5.73,5.73,0,0,0-2.183-1.43A23.1,23.1,0,0,0,574.3,321.4l-4.491-1.015q-6.121-1.293-9.368-4.353A10.659,10.659,0,0,1,557.2,307.9a12.284,12.284,0,0,1,2.277-7.337,14.884,14.884,0,0,1,6.321-4.953,22.89,22.89,0,0,1,9.244-1.768,22.26,22.26,0,0,1,9.213,1.768,13.945,13.945,0,0,1,6.076,5.031,13.413,13.413,0,0,1,2.153,7.566H581.251A5.432,5.432,0,0,0,580.42,305.623Z" fill="#040506"/>
  </g>
</svg>
