<svg xmlns="http://www.w3.org/2000/svg" width="201.951" height="45.774" viewBox="0 0 201.951 45.774">
  <g id="그룹_837" data-name="그룹 837" transform="translate(-1241.419 -252.479)">
    <path id="패스_1559" data-name="패스 1559" d="M1241.419,253.1h19.1a23.157,23.157,0,0,1,8.445,1.369,11.276,11.276,0,0,1,5.261,3.86,10,10,0,0,1,1.768,5.937,9.278,9.278,0,0,1-1.077,4.445,9.76,9.76,0,0,1-3,3.384,11.632,11.632,0,0,1-4.476,1.892v.431a11.266,11.266,0,0,1,5.214,1.476,9.857,9.857,0,0,1,3.707,3.722,10.778,10.778,0,0,1,1.354,5.445,11.427,11.427,0,0,1-1.892,6.475,12.723,12.723,0,0,1-5.414,4.476,19.561,19.561,0,0,1-8.291,1.631h-20.7Zm19.856,17.565a4.607,4.607,0,0,0,1.985-1.554,4.023,4.023,0,0,0,.707-2.384,4.068,4.068,0,0,0-.692-2.4,4.289,4.289,0,0,0-1.907-1.492,7.249,7.249,0,0,0-2.815-.508h-5.445v8.89h5.261A7.238,7.238,0,0,0,1261.275,270.66Zm1.262,17.042a4.322,4.322,0,0,0,2.092-1.6,4.526,4.526,0,0,0,.691-2.553,5.032,5.032,0,0,0-.722-2.723,4.464,4.464,0,0,0-2.092-1.738,8.327,8.327,0,0,0-3.276-.584h-6.122v9.751h5.937A9.559,9.559,0,0,0,1262.537,287.7Z" fill="#070808"/>
    <path id="패스_1560" data-name="패스 1560" d="M1280.579,297.638l14.8-44.543h15.9l14.8,44.543h-12.642l-9.907-32.577h-.369l-9.935,32.577Zm34.883-17.6v8.829h-24.455v-8.829Z" fill="#070808"/>
    <path id="패스_1561" data-name="패스 1561" d="M1355.961,265a6.335,6.335,0,0,0-2.492-1.723,9.554,9.554,0,0,0-3.491-.585,9.245,9.245,0,0,0-5.276,1.477,9.349,9.349,0,0,0-3.384,4.322,17.683,17.683,0,0,0-1.184,6.814,18.739,18.739,0,0,0,1.123,6.875,8.671,8.671,0,0,0,8.629,5.86,11.739,11.739,0,0,0,4.706-.846,6.119,6.119,0,0,0,2.891-2.415,6.964,6.964,0,0,0,.954-3.691l2.091.246h-10.4v-8.459h19.6V279a20.061,20.061,0,0,1-2.539,10.29,16.905,16.905,0,0,1-7.043,6.66,22.338,22.338,0,0,1-10.322,2.307,22.75,22.75,0,0,1-11.35-2.769,19.093,19.093,0,0,1-7.645-7.936,25.658,25.658,0,0,1-2.722-12.12,25.213,25.213,0,0,1,2.861-12.336,19.553,19.553,0,0,1,7.767-7.905,22.313,22.313,0,0,1,10.966-2.708,22.542,22.542,0,0,1,9.475,1.954,17.831,17.831,0,0,1,6.922,5.429,15.673,15.673,0,0,1,3.137,7.906H1357.36A6.435,6.435,0,0,0,1355.961,265Z" fill="#070808"/>
    <path id="패스_1562" data-name="패스 1562" d="M1375.54,253.1h31.808v9.444h-20.119v8.09h18.488v9.444h-18.488v8.121h20.027v9.444H1375.54Z" fill="#070808"/>
    <path id="패스_1563" data-name="패스 1563" d="M1413.5,253.1h11.689v35.1h18.181v9.444H1413.5Z" fill="#070808"/>
  </g>
</svg>
