<svg xmlns="http://www.w3.org/2000/svg" width="153.084" height="32.695" viewBox="0 0 153.084 32.695">
  <g id="그룹_722" data-name="그룹 722" transform="translate(-2427 -6853)">
    <path id="패스_961" data-name="패스 961" d="M15.513,7.3c-4.395,0-6.9,3.384-6.9,9.053,0,5.976,2.548,9.052,6.855,9.052,3.208,0,5.273-1.757,5.713-4.57l8.481.088c-.439,5.449-5.229,11.777-14.37,11.777C6.548,32.695,0,26.9,0,16.348,0,5.757,6.724,0,15.293,0,23.2,0,28.96,4.439,29.663,12.261H21.182C20.918,9.273,18.9,7.3,15.513,7.3" transform="translate(2427 6853)" fill="#040506"/>
    <path id="패스_962" data-name="패스 962" d="M48.911,32.695c-8.7,0-15.425-5.8-15.425-16.347C33.486,5.757,40.21,0,48.911,0c8.613,0,15.381,5.757,15.381,16.348S57.524,32.695,48.911,32.695m0-25.4c-4.4,0-6.812,3.208-6.812,9.053S44.516,25.4,48.911,25.4c4.351,0,6.768-3.208,6.768-9.052S53.262,7.3,48.911,7.3" transform="translate(2427 6853)" fill="#040506"/>
    <path id="패스_963" data-name="패스 963" d="M68.379.439h8.35V25.488H89.692v6.767H68.379Z" transform="translate(2427 6853)" fill="#040506"/>
    <path id="패스_964" data-name="패스 964" d="M107.248,32.695c-8.7,0-15.425-5.8-15.425-16.347C91.823,5.757,98.547,0,107.248,0c8.613,0,15.381,5.757,15.381,16.348s-6.768,16.347-15.381,16.347m0-25.4c-4.4,0-6.812,3.208-6.812,9.053s2.417,9.052,6.812,9.052c4.351,0,6.768-3.208,6.768-9.052S111.6,7.3,107.248,7.3" transform="translate(2427 6853)" fill="#040506"/>
    <path id="패스_965" data-name="패스 965" d="M126.716.439h13.536c7.119,0,11.777,4.043,11.777,10.767,0,4.394-2.022,7.515-5.449,9.14l6.5,11.91h-9.1l-5.625-10.591h-3.3V32.256h-8.35Zm11.6,14.678c3.164,0,4.966-1.143,4.966-3.911,0-2.813-1.8-4.087-4.966-4.087h-3.252v8Z" transform="translate(2427 6853)" fill="#040506"/>
  </g>
</svg>
