<svg xmlns="http://www.w3.org/2000/svg" xmlns:xlink="http://www.w3.org/1999/xlink" width="679" height="230" viewBox="0 0 679 230">
  <defs>
    <filter id="사각형_255" x="0" y="0" width="230" height="230" filterUnits="userSpaceOnUse">
      <feOffset dx="3" dy="3" input="SourceAlpha"/>
      <feGaussianBlur stdDeviation="5" result="blur"/>
      <feFlood flood-opacity="0.2"/>
      <feComposite operator="in" in2="blur"/>
      <feComposite in="SourceGraphic"/>
    </filter>
    <filter id="사각형_256" x="225" y="0" width="230" height="230" filterUnits="userSpaceOnUse">
      <feOffset dx="3" dy="3" input="SourceAlpha"/>
      <feGaussianBlur stdDeviation="5" result="blur-2"/>
      <feFlood flood-opacity="0.2"/>
      <feComposite operator="in" in2="blur-2"/>
      <feComposite in="SourceGraphic"/>
    </filter>
    <filter id="사각형_257" x="449" y="0" width="230" height="230" filterUnits="userSpaceOnUse">
      <feOffset dx="3" dy="3" input="SourceAlpha"/>
      <feGaussianBlur stdDeviation="5" result="blur-3"/>
      <feFlood flood-opacity="0.2"/>
      <feComposite operator="in" in2="blur-3"/>
      <feComposite in="SourceGraphic"/>
    </filter>
  </defs>
  <g id="그룹_730" data-name="그룹 730" transform="translate(-288 -3506.29)">
    <g id="그룹_727" data-name="그룹 727">
      <g transform="matrix(1, 0, 0, 1, 288, 3506.29)" filter="url(#사각형_255)">
        <rect id="사각형_255-2" data-name="사각형 255" width="200" height="200" transform="translate(12 12)" fill="#ea5b18"/>
      </g>
      <g id="그룹_724" data-name="그룹 724" transform="translate(-1158.646 -429.492)">
        <path id="패스_970" data-name="패스 970" d="M6.919,8.332v-2.9l2.874.472V8.8ZM4.133,0V2.178L.225,1.526V4.334l3.908.652v2.9L.225,7.231v2.808l3.908.652v2.156l2.786.472V11.14l2.874.472v2.156l2.786.472V12.083l3.907.629V9.9l-3.907-.629V6.356l3.907.629V4.2L12.579,3.57V1.392L9.793.921V3.1L6.919,2.627V.449Z" transform="translate(1634.291 4042.431)" fill="#040506"/>
        <path id="패스_971" data-name="패스 971" d="M.225,15.632V26.907H3.347V19.451H6.806V26.3H9.928v-6.85h3.436v7.434h3.122V15.632Z" transform="translate(1634.291 4042.431)" fill="#040506"/>
        <path id="패스_972" data-name="패스 972" d="M6.626,34.725l5.84,1.842V36.7l-5.84,1.841ZM.225,32.7l3.481,1.1v5.66l-3.481,1.1v4.108l16.261-5.5V34.1L.225,28.57Z" transform="translate(1634.291 4042.431)" fill="#040506"/>
        <path id="패스_973" data-name="패스 973" d="M4.964,46.4v3.729a2.227,2.227,0,0,0-2,2.447,2.5,2.5,0,0,0,2.65,2.6,2.527,2.527,0,0,0,2.673-2.65,2.423,2.423,0,0,0-1.325-2.381V46.718l9.523.809v10.4h-3.1V50.672L9.5,50.289V50.4a3.892,3.892,0,0,1,1.527,3.346,5.045,5.045,0,0,1-5.3,5.144C2.381,58.892,0,56.353,0,52.58c0-3.549,2.067-6.131,4.964-6.176" transform="translate(1634.291 4042.431)" fill="#040506"/>
        <path id="패스_974" data-name="패스 974" d="M16.487,61.07v6.717c0,3.638-1.663,5.525-4.133,5.525a3.512,3.512,0,0,1-3.5-3.033H8.693a3.786,3.786,0,0,1-3.931,3.662C2.134,73.941.225,71.9.225,68.3V61.07Zm-11.3,8.873c1.28,0,2.089-.943,2.089-2.471V64.888H3.324V67.4c0,1.752.7,2.539,1.865,2.539m6.446-.539c1.1,0,1.8-.832,1.8-2.2V64.888H9.771v2.27c0,1.3.7,2.246,1.864,2.246" transform="translate(1634.291 4042.431)" fill="#040506"/>
        <path id="패스_975" data-name="패스 975" d="M.225,83.217v-3.84H12.893v-.09l-2.246-3.662h3.324l2.516,4.022v3.57Z" transform="translate(1634.291 4042.431)" fill="#040506"/>
        <path id="패스_976" data-name="패스 976" d="M4.627,86.565A4.137,4.137,0,0,1,8.6,90.225h.113a3.636,3.636,0,0,1,3.593-3.055c2.538,0,4.4,2.516,4.4,5.975,0,3.414-1.865,5.953-4.4,5.953a3.678,3.678,0,0,1-3.593-3.055H8.6A4.176,4.176,0,0,1,4.627,99.7C1.976,99.7,0,96.942,0,93.145c0-3.819,1.976-6.58,4.627-6.58m.4,9.119a2.574,2.574,0,0,0,0-5.1,2.578,2.578,0,0,0,0,5.1m6.873-.338a2.226,2.226,0,0,0,0-4.424,2.221,2.221,0,0,0,0,4.424" transform="translate(1634.291 4042.431)" fill="#040506"/>
      </g>
    </g>
    <g id="그룹_728" data-name="그룹 728">
      <g transform="matrix(1, 0, 0, 1, 288, 3506.29)" filter="url(#사각형_256)">
        <rect id="사각형_256-2" data-name="사각형 256" width="200" height="200" transform="translate(237 12)" fill="#fbf7f1"/>
      </g>
      <g id="그룹_725" data-name="그룹 725" transform="translate(-1014.176 -422.141)">
        <path id="패스_977" data-name="패스 977" d="M84.662,7.884v-2.9l-3.908-.651V1.527l3.908.652V0l2.785.449V2.628l2.875.472V.921l2.785.472V3.571l3.908.629V6.985l-3.908-.629v2.92l3.908.629v2.808l-3.908-.629V14.24l-2.785-.471V11.612l-2.875-.471v2.178l-2.785-.471V10.691l-3.908-.651V7.232Zm2.785.449,2.875.472v-2.9l-2.875-.471Z" transform="translate(1634.291 4042.431)" fill="#040506"/>
        <path id="패스_978" data-name="패스 978" d="M97.016,15.632V26.66H93.894V19.45H90.457v6.492H87.335V19.45H80.754V15.632Z" transform="translate(1634.291 4042.431)" fill="#040506"/>
        <path id="패스_979" data-name="패스 979" d="M97.016,28.637v6.717c0,3.638-1.663,5.525-4.133,5.525a3.512,3.512,0,0,1-3.5-3.033h-.157a3.786,3.786,0,0,1-3.931,3.662c-2.628,0-4.537-2.045-4.537-5.639V28.637Zm-11.3,8.873c1.28,0,2.089-.943,2.089-2.471V32.455H83.853v2.516c0,1.752.7,2.539,1.865,2.539m6.446-.539c1.1,0,1.8-.832,1.8-2.2V32.455H90.3v2.27c0,1.3.7,2.246,1.864,2.246" transform="translate(1634.291 4042.431)" fill="#040506"/>
        <path id="패스_980" data-name="패스 980" d="M97.016,43.395V54.422H93.894V47.213H90.457V53.7H87.335V47.213H80.754V43.395Z" transform="translate(1634.291 4042.431)" fill="#040506"/>
        <path id="패스_981" data-name="패스 981" d="M93.8,63.676h.112V55.9h3.1V67.653H93.894l-13.14-6.672V57.028Z" transform="translate(1634.291 4042.431)" fill="#040506"/>
        <path id="패스_982" data-name="패스 982" d="M97.016,69.83V80.859H93.894V73.648H90.457v6.493H87.335V73.648H80.754V69.83Z" transform="translate(1634.291 4042.431)" fill="#040506"/>
        <path id="패스_983" data-name="패스 983" d="M80.754,90.225v-3.84H93.422v-.09l-2.246-3.662H94.5l2.516,4.022v3.57Z" transform="translate(1634.291 4042.431)" fill="#040506"/>
      </g>
    </g>
    <g id="그룹_729" data-name="그룹 729">
      <g transform="matrix(1, 0, 0, 1, 288, 3506.29)" filter="url(#사각형_257)">
        <rect id="사각형_257-2" data-name="사각형 257" width="200" height="200" transform="translate(461 12)" fill="#ee994d"/>
      </g>
      <g id="그룹_726" data-name="그룹 726" transform="translate(-857.645 -433.141)">
        <path id="패스_984" data-name="패스 984" d="M152.131,7.884v-2.9l-3.908-.651V1.527l3.908.652V0l2.785.449V2.628l2.875.472V.921l2.785.472V3.571l3.908.629V6.985l-3.908-.629v2.92l3.908.629v2.808l-3.908-.629V14.24l-2.785-.471V11.612l-2.875-.471v2.178l-2.785-.471V10.691l-3.908-.651V7.232Zm2.785.449,2.875.472v-2.9l-2.875-.471Z" transform="translate(1634.291 4042.431)" fill="#040506"/>
        <path id="패스_985" data-name="패스 985" d="M164.484,15.632V26.885h-3.122V19.45h-3.437V26.3H154.8V19.45h-3.459v7.457h-3.122V15.632Z" transform="translate(1634.291 4042.431)" fill="#040506"/>
        <path id="패스_986" data-name="패스 986" d="M164.484,29.334V40.586h-3.122V33.152h-3.437V40H154.8v-6.85h-3.459v7.457h-3.122V29.334Z" transform="translate(1634.291 4042.431)" fill="#040506"/>
        <path id="패스_987" data-name="패스 987" d="M156.713,55.883C151.255,55.9,148,53.188,148,49.032c0-3.436,2.157-5.75,4.942-6.065v3.8a2.093,2.093,0,0,0-1.662,2.268c0,2.045,1.864,3.054,4.874,3.078V52a4.507,4.507,0,0,1-2.314-4.177A4.915,4.915,0,0,1,159,42.811c3.369-.024,5.705,2.537,5.705,6.31,0,3.549-2.111,6.762-8,6.762m2.426-9.367a2.557,2.557,0,0,0-2.628,2.6,2.628,2.628,0,0,0,5.256.024,2.577,2.577,0,0,0-2.628-2.629" transform="translate(1634.291 4042.431)" fill="#040506"/>
        <path id="패스_988" data-name="패스 988" d="M156.713,70.908c-5.458.024-8.715-2.695-8.715-6.849,0-3.438,2.157-5.75,4.942-6.065v3.8a2.1,2.1,0,0,0-1.662,2.27c0,2.043,1.864,3.054,4.874,3.076v-.112a4.507,4.507,0,0,1-2.314-4.177A4.917,4.917,0,0,1,159,57.836c3.369-.022,5.705,2.539,5.705,6.312,0,3.549-2.111,6.76-8,6.76m2.426-9.365a2.556,2.556,0,0,0-2.628,2.605,2.628,2.628,0,0,0,5.256.022,2.575,2.575,0,0,0-2.628-2.627" transform="translate(1634.291 4042.431)" fill="#040506"/>
        <path id="패스_989" data-name="패스 989" d="M153.951,72.818l10.534,6.739v4.828H153.973v1.976h-3.01V84.385h-2.74v-3.66h2.74V72.818Zm.022,7.973h6.446v-.135l-6.311-4.019h-.135Z" transform="translate(1634.291 4042.431)" fill="#040506"/>
        <path id="패스_990" data-name="패스 990" d="M148.223,88.452h16.261V94.4c0,4.965-3.054,8.019-8.13,8.019s-8.131-3.054-8.131-8.019Zm3.279,5.816c0,2.785,1.325,4.312,4.852,4.312s4.874-1.527,4.874-4.357V92.27H151.5Z" transform="translate(1634.291 4042.431)" fill="#040506"/>
      </g>
    </g>
  </g>
</svg>
