<svg xmlns="http://www.w3.org/2000/svg" width="118.608" height="32.782" viewBox="0 0 118.608 32.782">
  <g id="그룹_723" data-name="그룹 723" transform="translate(-2427 -6916.914)">
    <path id="패스_966" data-name="패스 966" d="M.22,64.439H22.412v6.768H8.57v5.756H21.006v6.768H8.57V96.255H.22Z" transform="translate(2427 6853)" fill="#040506"/>
    <path id="패스_967" data-name="패스 967" d="M40.957,96.695c-8.7,0-15.425-5.8-15.425-16.347C25.532,69.757,32.256,64,40.957,64c8.613,0,15.381,5.757,15.381,16.348S49.57,96.695,40.957,96.695m0-25.4c-4.4,0-6.812,3.208-6.812,9.053S36.562,89.4,40.957,89.4c4.351,0,6.768-3.208,6.768-9.052s-2.417-9.053-6.768-9.053" transform="translate(2427 6853)" fill="#040506"/>
    <path id="패스_968" data-name="패스 968" d="M87.8,96.256H80.816L68.994,79.073h-.219V96.256h-8.35V64.44h7.119L79.19,81.534h.263V64.44H87.8Z" transform="translate(2427 6853)" fill="#040506"/>
    <path id="패스_969" data-name="패스 969" d="M91.187,64.439h27.422v6.768h-9.58V96.255h-8.262V71.207h-9.58Z" transform="translate(2427 6853)" fill="#040506"/>
    <rect id="사각형_595" data-name="사각형 595" width="118.608" height="32.782" transform="translate(2427 6916.914)" fill="none"/>
  </g>
</svg>
