<svg xmlns="http://www.w3.org/2000/svg" width="275.185" height="31.904" viewBox="0 0 275.185 31.904">
  <g id="그룹_1014" data-name="그룹 1014" transform="translate(-185.002 -76.75)">
    <path id="패스_1979" data-name="패스 1979" d="M197.373,108.654a17.445,17.445,0,0,1-4.593-.6,12.162,12.162,0,0,1-3.966-1.868,9.253,9.253,0,0,1-2.779-3.208A9.777,9.777,0,0,1,185,98.327a10.139,10.139,0,0,1,.539-3.34,6.73,6.73,0,0,1,1.471-2.527,2.855,2.855,0,0,1,2.1-.967,3.47,3.47,0,0,1,2.021.769A8.024,8.024,0,0,0,195.769,94a3.241,3.241,0,0,0,1.7-.4,1.126,1.126,0,0,0,.649-.945q0-.637-1.066-1.351a10.192,10.192,0,0,0-3.527-1.2,15.639,15.639,0,0,1-3.328-.978,8.6,8.6,0,0,1-3-2.022,4.856,4.856,0,0,1-1.318-3.328,4.75,4.75,0,0,1,1.022-3.032,7.936,7.936,0,0,1,2.724-2.154,15.161,15.161,0,0,1,3.824-1.285,21.706,21.706,0,0,1,4.317-.429,20.179,20.179,0,0,1,5.439.7,9.733,9.733,0,0,1,4.043,2.11,4.723,4.723,0,0,1,1.57,3.515,2.945,2.945,0,0,1-.549,1.813,3.556,3.556,0,0,1-1.384,1.121,4.062,4.062,0,0,1-1.714.384,3.21,3.21,0,0,1-1.637-.439,2.375,2.375,0,0,1-1.066-1.318,4.417,4.417,0,0,0-1.659-2.352,4.044,4.044,0,0,0-2.208-.681,4.37,4.37,0,0,0-2.406.681,1.873,1.873,0,0,0-1.066,1.5,1.442,1.442,0,0,0,.781,1.142,6.58,6.58,0,0,0,2.625.791,19.133,19.133,0,0,1,7.284,2.318,11,11,0,0,1,4.153,4.186,11.141,11.141,0,0,1,1.329,5.339,9.13,9.13,0,0,1-1.22,4.757,10.747,10.747,0,0,1-3.229,3.428,15.323,15.323,0,0,1-4.482,2.077A18.226,18.226,0,0,1,197.373,108.654Z"/>
    <path id="패스_1980" data-name="패스 1980" d="M233.21,108.324a6.482,6.482,0,0,1-3.735-1.208,9,9,0,0,1-1.154-.923c-.213-.22-.384-.33-.516-.33a1.012,1.012,0,0,0-.56.341q-.364.34-1.176.956a5.855,5.855,0,0,1-3.516,1.164,13.761,13.761,0,0,1-5.328-.889,6.736,6.736,0,0,1-3.12-2.451,6.382,6.382,0,0,1-1.022-3.581,14.365,14.365,0,0,1,.583-4.043q.58-2,1.329-3.955.7-1.846,1.241-3.67a12.673,12.673,0,0,0,.538-3.6,9.17,9.17,0,0,0-.3-2.307,8.4,8.4,0,0,0-.989-2.274,3.919,3.919,0,0,1-.692-1.945,1.961,1.961,0,0,1,.714-1.571,4.516,4.516,0,0,1,1.846-.89,9.9,9.9,0,0,1,4.768.011,4.923,4.923,0,0,1,1.889.89,1.839,1.839,0,0,1,.736,1.494,3.164,3.164,0,0,1-.659,1.714,5.758,5.758,0,0,0-.78,1.9,10.67,10.67,0,0,0-.274,2.472,12.066,12.066,0,0,0,.593,3.956,7.163,7.163,0,0,0,1.516,2.669,2.691,2.691,0,0,0,1.934.956,2.137,2.137,0,0,0,1.45-.615,4.368,4.368,0,0,0,1.109-1.879,10.173,10.173,0,0,0,.429-3.219,20.2,20.2,0,0,0-.275-3.559,6.217,6.217,0,0,0-1.153-2.681,3.17,3.17,0,0,1-.747-1.8,1.777,1.777,0,0,1,.725-1.439,4.8,4.8,0,0,1,1.856-.868,9.805,9.805,0,0,1,4.746.011,4.653,4.653,0,0,1,1.89.923,2.044,2.044,0,0,1,.736,1.637,4.019,4.019,0,0,1-.593,1.867,8.28,8.28,0,0,0-1.077,4.087,10.718,10.718,0,0,0,.44,2.8q.439,1.593,1.088,3.307t1.329,3.384q.79,1.911,1.362,3.471a7.646,7.646,0,0,1,.571,2.395,8.124,8.124,0,0,1-.845,3.758,6.115,6.115,0,0,1-2.56,2.592A8.943,8.943,0,0,1,233.21,108.324Z"/>
    <path id="패스_1981" data-name="패스 1981" d="M250.349,108.236a8.214,8.214,0,0,1-4.186-.977,6.534,6.534,0,0,1-2.527-2.528,6.707,6.707,0,0,1-.846-3.262,7.6,7.6,0,0,1,.088-1.165,52.126,52.126,0,0,1,1.318-5.317q.594-2.022,1.055-4a16.879,16.879,0,0,0,.461-3.845,10.143,10.143,0,0,0-.373-2.758,8.354,8.354,0,0,0-1.242-2.56,3.9,3.9,0,0,1-.868-2.109,2.03,2.03,0,0,1,.78-1.648,4.875,4.875,0,0,1,2.044-.923,12.525,12.525,0,0,1,2.758-.286,6.535,6.535,0,0,1,2.966.66,18.882,18.882,0,0,1,5.01-.769,10.528,10.528,0,0,1,5.075,1.12,7.862,7.862,0,0,1,3.12,2.911,7.388,7.388,0,0,1,1.055,3.813A7.831,7.831,0,0,1,264.95,88.5a9.221,9.221,0,0,1-3.329,3.274,14.373,14.373,0,0,1-5.669,1.8,7.889,7.889,0,0,0-2.187.472q-.736.319-.736.868,0,1.011,2.615,3.164a5.324,5.324,0,0,1,2.153,4.065,4.957,4.957,0,0,1-1.01,2.955,7.5,7.5,0,0,1-2.692,2.263A8.038,8.038,0,0,1,250.349,108.236Zm2.483-22.588a5.159,5.159,0,0,0,1.3-.2,9.737,9.737,0,0,0,3.307-1.483,2.2,2.2,0,0,0,1.022-1.55,1.247,1.247,0,0,0-.682-1.065,3.437,3.437,0,0,0-1.845-.429,6.93,6.93,0,0,0-1.165.11,4.708,4.708,0,0,0-2.559,1.373,2.98,2.98,0,0,0-.935,1.945,1.234,1.234,0,0,0,.385.923A1.629,1.629,0,0,0,252.832,85.648Z"/>
    <path id="패스_1982" data-name="패스 1982" d="M277.4,108.236a19.185,19.185,0,0,1-4.362-.494,14.975,14.975,0,0,1-3.79-1.406,8.194,8.194,0,0,1-2.659-2.22,4.709,4.709,0,0,1-.988-2.911,13.816,13.816,0,0,1,.472-3.559q.473-1.781,1.076-3.56t1.066-3.526a13.5,13.5,0,0,0,.462-3.461,8.45,8.45,0,0,0-1.231-4.483,5.318,5.318,0,0,1-.9-2.571q0-2.021,2.725-2.746a25.866,25.866,0,0,1,6.043-.528q2,0,4.021.044,1.911.066,3.559.066a1.715,1.715,0,0,1,1.2.429,2.618,2.618,0,0,1,.7,1.077,3.953,3.953,0,0,1,.23,1.329,3.076,3.076,0,0,1-.395,1.593,1.31,1.31,0,0,1-1.209.67,9.259,9.259,0,0,1-1.516-.22,24.075,24.075,0,0,0-4.109-.483,4.176,4.176,0,0,0-1.8.329,2.338,2.338,0,0,0-.989.813,1.763,1.763,0,0,0-.308.945,1.451,1.451,0,0,0,.462,1.055,1.66,1.66,0,0,0,1.23.461,6.345,6.345,0,0,0,1.571-.187q.736-.186,1.352-.406a4.112,4.112,0,0,1,1.406-.329,1.338,1.338,0,0,1,1.208.791,3.387,3.387,0,0,1,.44,1.669,2.339,2.339,0,0,1-.319,1.231,1.062,1.062,0,0,1-.978.527,5.83,5.83,0,0,1-.956-.1c-.388-.065-.849-.128-1.383-.186a17.663,17.663,0,0,0-1.9-.088,1.537,1.537,0,0,0-1.275.549,1.833,1.833,0,0,0-.439,1.165,2.033,2.033,0,0,0,.329,1.065,2.554,2.554,0,0,0,1.011.9,3.62,3.62,0,0,0,1.714.363h1.165a11.176,11.176,0,0,0,4.174-.616,7.651,7.651,0,0,1,3.186-.834,2.875,2.875,0,0,1,1.813.6,3.924,3.924,0,0,1,1.209,2.054,14.532,14.532,0,0,1,.428,3.955,11.1,11.1,0,0,1-1.1,5.142,9.8,9.8,0,0,1-2.922,3.472,12.606,12.606,0,0,1-4.1,1.977A17.056,17.056,0,0,1,277.4,108.236Z"/>
    <path id="패스_1983" data-name="패스 1983" d="M299.721,108.324a9.528,9.528,0,0,1-4.559-.977,6.717,6.717,0,0,1-2.714-2.538,6.5,6.5,0,0,1-.9-3.3,6.887,6.887,0,0,1,.176-1.538,48.286,48.286,0,0,1,1.6-5.208q.77-2.152,1.374-4.285a15.215,15.215,0,0,0,.6-4.152A9.733,9.733,0,0,0,295,83.9a8.125,8.125,0,0,0-1.033-2.339,3.9,3.9,0,0,1-.725-2,1.952,1.952,0,0,1,.7-1.549,4.327,4.327,0,0,1,1.813-.879,9.716,9.716,0,0,1,2.34-.275,8.747,8.747,0,0,1,3.56.725,19.143,19.143,0,0,1,5.3-.834,11.829,11.829,0,0,1,5.383,1.131,8.963,8.963,0,0,1,3.428,2.846,6.107,6.107,0,0,1,1.187,3.515,4.856,4.856,0,0,1-.626,2.384,5.369,5.369,0,0,1-1.945,1.945,26.04,26.04,0,0,0-2.209,1.483q-.714.561-.713.934,0,.285.417.527a6.708,6.708,0,0,0,1.231.506,10.681,10.681,0,0,1,5.229,4.658,13.088,13.088,0,0,1,2.153,6.9,4.033,4.033,0,0,1-.9,2.735,5.042,5.042,0,0,1-2.339,1.506,11.842,11.842,0,0,1-8.4-.7,3.528,3.528,0,0,1-1.8-3.076l.022-3.406a25.96,25.96,0,0,0-.286-3.977,6,6,0,0,0-1.461-3.021,2.889,2.889,0,0,0-1.856-1.11.765.765,0,0,0-.582.242,1.078,1.078,0,0,0-.231.769,8.873,8.873,0,0,0,1.582,3.867,9.255,9.255,0,0,1,1.538,4.834,5.914,5.914,0,0,1-.847,3.186,6.063,6.063,0,0,1-2.218,2.131A5.992,5.992,0,0,1,299.721,108.324Zm3.318-22.763a8.029,8.029,0,0,0,1.6-.2,7.276,7.276,0,0,0,2.978-1.253,2.082,2.082,0,0,0,.911-1.494,1.436,1.436,0,0,0-.7-1.2,3.269,3.269,0,0,0-1.912-.495,6.549,6.549,0,0,0-1.142.11,5.409,5.409,0,0,0-2.637,1.362,2.77,2.77,0,0,0-1.011,1.89,1.123,1.123,0,0,0,.451.912A2.341,2.341,0,0,0,303.039,85.561Z"/>
    <path id="패스_1984" data-name="패스 1984" d="M356.037,108.324a6.035,6.035,0,0,1-3.01-.791,6.253,6.253,0,0,1-2.275-2.186,6.014,6.014,0,0,1-.867-3.241,9.631,9.631,0,0,1,1.45-4.7,18.944,18.944,0,0,0,1.79-4.582,21.366,21.366,0,0,0,.781-5.635q0-1.143-.462-1.253-.242,0-.67.593a6.381,6.381,0,0,0-.769,1.516,5.485,5.485,0,0,0-.34,1.912,4.738,4.738,0,0,0,.329,1.714,2.775,2.775,0,0,1,.242,1.077,1.851,1.851,0,0,1-.528,1.351,3.31,3.31,0,0,1-1.362.813,5.722,5.722,0,0,1-3.505,0,3.314,3.314,0,0,1-1.373-.813,1.854,1.854,0,0,1-.527-1.351,2.757,2.757,0,0,1,.242-1.077,4.591,4.591,0,0,0,.329-1.692,5.486,5.486,0,0,0-.351-1.945,6.335,6.335,0,0,0-.791-1.527q-.439-.592-.66-.593-.417,0-.417,1.494v.769a16.856,16.856,0,0,0,.8,5.153,19.225,19.225,0,0,0,1.747,4.076,9.631,9.631,0,0,1,1.45,4.7,6.014,6.014,0,0,1-.868,3.241,6.283,6.283,0,0,1-2.263,2.186,6.018,6.018,0,0,1-3.021.791,9.464,9.464,0,0,1-4.494-.956,6.5,6.5,0,0,1-2.669-2.482,6.4,6.4,0,0,1-.879-3.241,7.262,7.262,0,0,1,.2-1.67,52.608,52.608,0,0,1,1.714-5.274q.858-2.218,1.505-4.384a14.631,14.631,0,0,0,.649-4.207,9.09,9.09,0,0,0-.3-2.318,8.682,8.682,0,0,0-.967-2.252,3.941,3.941,0,0,1-.67-1.934,1.961,1.961,0,0,1,.714-1.571,4.519,4.519,0,0,1,1.835-.89,9.5,9.5,0,0,1,2.351-.286,8.556,8.556,0,0,1,2.6.44,4.833,4.833,0,0,1,2.318,1.6l.439.571q1.1,1.473,1.78,2.219a1.854,1.854,0,0,0,1.274.747,2.135,2.135,0,0,0,1.429-.868q.791-.867,2.153-2.669a4.825,4.825,0,0,1,2.329-1.6,8.594,8.594,0,0,1,2.593-.44,9.5,9.5,0,0,1,2.351.286,4.525,4.525,0,0,1,1.835.89,1.963,1.963,0,0,1,.714,1.571,3.952,3.952,0,0,1-.67,1.934,8.6,8.6,0,0,0-.967,2.263,9.126,9.126,0,0,0-.3,2.307,14.6,14.6,0,0,0,.649,4.207q.646,2.166,1.5,4.384a52.359,52.359,0,0,1,1.714,5.274,6.939,6.939,0,0,1,.2,1.648,6.418,6.418,0,0,1-3.537,5.745A9.45,9.45,0,0,1,356.037,108.324Z"/>
    <path id="패스_1985" data-name="패스 1985" d="M388.754,108.324a9.121,9.121,0,0,1-2.68-.417,8.388,8.388,0,0,1-2.505-1.253,6.476,6.476,0,0,1-1.846-2.087,5.867,5.867,0,0,1-.7-2.922,10.711,10.711,0,0,1,1.318-4.681,8.818,8.818,0,0,0,1.077-3.713,3.649,3.649,0,0,0-.428-1.856,2.886,2.886,0,0,0-1.11-1.11,2.929,2.929,0,0,0-1.428-.374,2.736,2.736,0,0,0-2.384,1.4,3.346,3.346,0,0,0-.407,1.724,8.443,8.443,0,0,0,1.209,3.933,10.75,10.75,0,0,1,1.428,4.812,5.615,5.615,0,0,1-.725,2.9,6.469,6.469,0,0,1-1.89,2.043,8.5,8.5,0,0,1-2.549,1.209,9.763,9.763,0,0,1-2.68.395,7.83,7.83,0,0,1-4.868-1.5,4.616,4.616,0,0,1-1.988-3.834,8.358,8.358,0,0,1,.473-2.692,22.189,22.189,0,0,1,1.219-2.878q.747-1.483,1.582-3,.923-1.626,1.736-3.264a25.091,25.091,0,0,0,1.352-3.262,10.126,10.126,0,0,0,.538-3.186,7.19,7.19,0,0,0-.286-2,4.183,4.183,0,0,1-.176-1.142,3.3,3.3,0,0,1,1.231-2.626,8,8,0,0,1,3.164-1.56,16.153,16.153,0,0,1,8.108,0,8.01,8.01,0,0,1,3.164,1.56,3.3,3.3,0,0,1,1.23,2.626,4.144,4.144,0,0,1-.176,1.142,6.962,6.962,0,0,0-.285,1.978,9.758,9.758,0,0,0,.56,3.186,24.533,24.533,0,0,0,1.406,3.263q.846,1.637,1.769,3.263.879,1.538,1.648,3.01a21.988,21.988,0,0,1,1.264,2.878,8.157,8.157,0,0,1,.494,2.7,4.616,4.616,0,0,1-1.988,3.834A7.832,7.832,0,0,1,388.754,108.324ZM380.646,87.34a2.187,2.187,0,0,0,1.176-.319A1.108,1.108,0,0,0,382.338,86a2.489,2.489,0,0,0-.2-.879q-.792-1.736-1.648-1.736-.945,0-1.758,2.066a1.525,1.525,0,0,0-.088.483,1.148,1.148,0,0,0,.637,1.033A2.65,2.65,0,0,0,380.646,87.34Z"/>
    <path id="패스_1986" data-name="패스 1986" d="M406.816,108.346a8.865,8.865,0,0,1-5.647-1.9,12.39,12.39,0,0,1-3.768-5.24,20.379,20.379,0,0,1-1.352-7.69,21.043,21.043,0,0,1,.89-6.054,19.189,19.189,0,0,1,2.538-5.383,13.247,13.247,0,0,1,3.977-3.846,9.713,9.713,0,0,1,5.208-1.439,9.862,9.862,0,0,1,6.009,1.835,5.937,5.937,0,0,1,2.6,4.735,2.931,2.931,0,0,1-.7,1.967,4.6,4.6,0,0,1-1.758,1.263,5.4,5.4,0,0,1-2.087.44,3.621,3.621,0,0,1-1.7-.4,2.184,2.184,0,0,1-1.066-1.23q-.044-.175-.11-.594-.109-.659-.329-1.5a5.277,5.277,0,0,0-.648-1.517,1.351,1.351,0,0,0-1.2-.67,1.46,1.46,0,0,0-1.219.813,6.39,6.39,0,0,0-.791,2.131,13.718,13.718,0,0,0-.275,2.813,17.194,17.194,0,0,0,.527,4.6,5.079,5.079,0,0,0,1.307,2.406,2.6,2.6,0,0,0,1.747.7,2.663,2.663,0,0,0,1.857-.736,2.152,2.152,0,0,0,.8-1.593q0-.374-.747-.373a4.5,4.5,0,0,0-.879.132,4.978,4.978,0,0,1-1.077.153,1.093,1.093,0,0,1-1.021-.637,2.924,2.924,0,0,1-.341-1.406,3.118,3.118,0,0,1,.362-1.5,1.277,1.277,0,0,1,1.11-.714,6.567,6.567,0,0,1,1.187.153,12.022,12.022,0,0,0,2.461.242,6.39,6.39,0,0,0,1-.077,5.894,5.894,0,0,1,.89-.077q2.945,0,4.373,3.736a22.457,22.457,0,0,1,1.186,7.866,22.067,22.067,0,0,1-1.142,7.91q-.155.285-.89.473a6.588,6.588,0,0,1-1.615.186,5.642,5.642,0,0,1-1.868-.3q-.856-.3-.857-1,.022-.571.044-.835t.022-.835a3.3,3.3,0,0,0-.11-1c-.073-.212-.161-.318-.263-.318q-.33,0-.857,1.186a4.828,4.828,0,0,1-2.285,2.34A7.7,7.7,0,0,1,406.816,108.346Z"/>
    <path id="패스_1987" data-name="패스 1987" d="M430.283,108.324a9.53,9.53,0,0,1-4.56-.977,6.707,6.707,0,0,1-2.713-2.538,6.488,6.488,0,0,1-.9-3.3,6.887,6.887,0,0,1,.176-1.538,50.937,50.937,0,0,1,1.582-5.208q.792-2.175,1.385-4.295a15.4,15.4,0,0,0,.592-4.142,9.731,9.731,0,0,0-.307-2.429,7.952,7.952,0,0,0-1.045-2.339,3.876,3.876,0,0,1-.734-2.022,1.911,1.911,0,0,1,.7-1.538,4.384,4.384,0,0,1,1.812-.868,9.71,9.71,0,0,1,2.34-.275,9.875,9.875,0,0,1,2.428.3,4.939,4.939,0,0,1,1.922.9,1.862,1.862,0,0,1,.748,1.5,3.138,3.138,0,0,1-.637,1.692,7.365,7.365,0,0,0-1.045,2.659,17.335,17.335,0,0,0-.34,3.537,22.6,22.6,0,0,0,.879,6.2,10.96,10.96,0,0,0,2.571,4.812,5.454,5.454,0,0,1,1.955,3.934,4.749,4.749,0,0,1-1.032,2.966,7.709,7.709,0,0,1-2.605,2.153A6.84,6.84,0,0,1,430.283,108.324Z"/>
    <path id="패스_1988" data-name="패스 1988" d="M448.542,108.39a10.264,10.264,0,0,1-5.032-1.164,10.1,10.1,0,0,1-3.483-3.164,14.305,14.305,0,0,1-2.032-4.538,20.955,20.955,0,0,1-.659-5.284,24.228,24.228,0,0,1,.824-6.262,20.655,20.655,0,0,1,2.384-5.615,13.351,13.351,0,0,1,3.79-4.043,8.762,8.762,0,0,1,5.064-1.527,9.244,9.244,0,0,1,5.67,1.813,5.881,5.881,0,0,1,2.549,4.669,3.124,3.124,0,0,1-.671,2.022,4.424,4.424,0,0,1-1.68,1.285,4.873,4.873,0,0,1-2,.451,3.293,3.293,0,0,1-1.6-.4,2.217,2.217,0,0,1-1.033-1.23l-.131-.637c-.06-.425-.158-.919-.3-1.484a5.278,5.278,0,0,0-.615-1.505,1.268,1.268,0,0,0-1.132-.659q-.945,0-1.527,1.45a8.793,8.793,0,0,0-.582,3.3,9.836,9.836,0,0,0,.395,2.791,5.057,5.057,0,0,0,1.241,2.186,3.139,3.139,0,0,0,2.208.89,5.642,5.642,0,0,0,3.3-.945,4.063,4.063,0,0,1,2.219-.813,3.047,3.047,0,0,1,2.362,1.143,7.892,7.892,0,0,1,1.549,2.977,14.347,14.347,0,0,1,.571,3.988,9.457,9.457,0,0,1-1,4.428,9.771,9.771,0,0,1-2.669,3.229,12.006,12.006,0,0,1-3.747,1.978A13.671,13.671,0,0,1,448.542,108.39Z"/>
  </g>
</svg>
