<svg xmlns="http://www.w3.org/2000/svg" xmlns:xlink="http://www.w3.org/1999/xlink" width="307" height="307" viewBox="0 0 307 307">
  <defs>
    <clipPath id="clip-path">
      <circle id="타원_156" data-name="타원 156" cx="153.5" cy="153.5" r="153.5" transform="translate(499 2940)" fill="#ee994d"/>
    </clipPath>
  </defs>
  <g id="마스크_그룹_28" data-name="마스크 그룹 28" transform="translate(-499 -2940)" clip-path="url(#clip-path)">
    <circle id="타원_28" data-name="타원 28" cx="153.5" cy="153.5" r="153.5" transform="translate(499 2940)" fill="#ee994d"/>
    <g id="그룹_557" data-name="그룹 557" transform="translate(7975.265 -29.64)">
      <path id="패스_767" data-name="패스 767" d="M-6885.148,3644.463a29.779,29.779,0,0,0-25.218-14.931,38.563,38.563,0,0,0-32.4,16.736c-6.982,10.348-6.945,21.453-6.362,31.053.125,2.056.3,4.12.47,6.188.522,6.236,1.016,12.125,0,17.292-1.186,6.014-6.222,11.24-12.826,13.309a20.575,20.575,0,0,1-8.473.695,307.891,307.891,0,0,0,3.4-44.786,198.273,198.273,0,0,0-1.543-25.793q-.026-.739-.131-1.553c-.6-4.558-1.024-7.437-1.323-9.251h0c-.638-4.214-1.072-6.467-1.072-6.467h0c-4.273-30.188-11.206-49.881-11.206-49.881l-2.635.99c-.333-.876-.519-1.341-.519-1.341-62.534-18.24-124.452-35.481-153.839,0,0,0-.34.792-.928,2.27l-5.888-1.882s-5.94,20.014-8.7,50.379h0s-.321,2.271-.748,6.512h0c-.208,1.827-.491,4.723-.859,9.305,0,0,0,.008,0,.012a178.349,178.349,0,0,0-1.122,19.956l0,0c-2.077,33.757,9.59,138.244,50.641,138.244,12.671,0,16.567-31.807,17.728-47.9a170.482,170.482,0,0,0,37.538,3.789,136.882,136.882,0,0,0,16.214-1.263c1.376,16.665,5.5,45.369,17.532,45.369,21.955,0,35.5-29.888,43.042-62.857a49.824,49.824,0,0,0,7.224.542,42.9,42.9,0,0,0,12.917-1.948c15.193-4.759,26.449-16.928,29.377-31.762,1.678-8.5.987-16.741.378-24.014-.158-1.882-.318-3.759-.431-5.63-.447-7.363-.221-12.343,2.255-16.012,2.42-3.587,7.424-6.264,11.523-6.059a5.458,5.458,0,0,1,5.06,2.956c.99,1.685.678,4.167-.241,5.1a12.128,12.128,0,0,0,.118,17.152,12.124,12.124,0,0,0,17.153-.116C-6880.292,3670-6878.654,3655.532-6885.148,3644.463Z" transform="translate(-259.63 -403.661)" fill="#040506"/>
      <circle id="타원_151" data-name="타원 151" cx="64.36" cy="64.36" r="64.36" transform="translate(-7413.464 3263.593) rotate(-45)" fill="#fff"/>
      <g id="그룹_556" data-name="그룹 556" transform="translate(-7426.463 3009.641)">
        <path id="패스_770" data-name="패스 770" d="M-6991.075,3098.552h0c-.761-33.858-18.477-88.911-31.062-88.911-10.436,0-29.64,9.427-41.2,27.912a115.692,115.692,0,0,0-52.865,0c-11.557-18.485-30.771-27.912-41.205-27.912-12.583,0-30.3,55.056-31.061,88.911a85.058,85.058,0,0,0-5.32,29.563c0,51.7,44.242,61.367,102.008,61.367s106.029-9.667,106.029-61.367A85.047,85.047,0,0,0-6991.075,3098.552Z" transform="translate(7193.792 -3009.641)" fill="#040506"/>
        <g id="그룹_555" data-name="그룹 555" transform="translate(31.632 63.512)">
          <g id="그룹_553" data-name="그룹 553">
            <ellipse id="타원_152" data-name="타원 152" cx="29.226" cy="41.771" rx="29.226" ry="41.771" fill="#fff"/>
            <ellipse id="타원_153" data-name="타원 153" cx="23.666" cy="33.825" rx="23.666" ry="33.825" transform="translate(7.652 7.946)" fill="#040506"/>
          </g>
          <g id="그룹_554" data-name="그룹 554" transform="translate(86.321)">
            <ellipse id="타원_154" data-name="타원 154" cx="29.226" cy="41.771" rx="29.226" ry="41.771" fill="#fff"/>
            <ellipse id="타원_155" data-name="타원 155" cx="23.666" cy="33.825" rx="23.666" ry="33.825" transform="translate(3.467 7.946)" fill="#040506"/>
          </g>
        </g>
        <path id="패스_771" data-name="패스 771" d="M-6936.92,3392.321h-8.181a3.212,3.212,0,0,0-3.209,3.208,3.187,3.187,0,0,0,.94,2.269l.283.284a.938.938,0,0,1,.274.662v4.62a2.061,2.061,0,0,0,2.059,2.059h7.486a2.061,2.061,0,0,0,2.059-2.059v-4.62a.939.939,0,0,1,.274-.662l.282-.284a3.185,3.185,0,0,0,.939-2.269A3.211,3.211,0,0,0-6936.92,3392.321Z" transform="translate(7012.452 -3292.33)" fill="#fff"/>
        <path id="패스_772" data-name="패스 772" d="M-6688.075,3392.321h-8.181a3.211,3.211,0,0,0-3.208,3.208,3.186,3.186,0,0,0,.939,2.269l.283.284a.942.942,0,0,1,.274.662v4.62a2.06,2.06,0,0,0,2.058,2.059h7.487a2.06,2.06,0,0,0,2.058-2.059v-4.62a.943.943,0,0,1,.274-.662l.283-.284a3.189,3.189,0,0,0,.94-2.269A3.212,3.212,0,0,0-6688.075,3392.321Z" transform="translate(6828.627 -3292.33)" fill="#fff"/>
      </g>
      <path id="패스_773" data-name="패스 773" d="M-6896.446,3570.948l-43.027,11.174a17.454,17.454,0,0,0-12.495,21.254,17.32,17.32,0,0,0,8.04,10.647l1.879,1.1a5.107,5.107,0,0,1,2.345,3.106l6.311,24.3a11.2,11.2,0,0,0,13.64,8.016l39.373-10.224a11.2,11.2,0,0,0,8.017-13.64l-6.312-24.3a5.1,5.1,0,0,1,.542-3.856l1.1-1.879a17.315,17.315,0,0,0,1.843-13.214A17.452,17.452,0,0,0-6896.446,3570.948Z" transform="translate(-410.895 -414.226)" fill="#e85300"/>
      <path id="패스_774" data-name="패스 774" d="M-7131.422,3653.591c35.275,9.4,67.233-3.65,69.425,19.082.112,26.592-69.014,34.353-86.57,35.9-.088.206-.177.412-.266.618,2.063-5.026,16.647-55.789,16.647-55.789Q-7131.807,3653.488-7131.422,3653.591Z" transform="translate(-265.883 -475.548)" fill="#040506"/>
      <path id="패스_775" data-name="패스 775" d="M-6758.341,3666.787c2.26-22.281,32.978-10.012,67.479-18.225,1.563,5.533,13.053,46.175,15.828,54.252C-6696.386,3700.609-6758.575,3692.019-6758.341,3666.787Z" transform="translate(-554.342 -471.976)" fill="#040506"/>
    </g>
  </g>
</svg>
