<svg xmlns="http://www.w3.org/2000/svg" xmlns:xlink="http://www.w3.org/1999/xlink" width="307" height="307" viewBox="0 0 307 307">
  <defs>
    <clipPath id="clip-path">
      <circle id="타원_162" data-name="타원 162" cx="153.5" cy="153.5" r="153.5" transform="translate(499 3364)" fill="#faf2ea"/>
    </clipPath>
  </defs>
  <g id="마스크_그룹_29" data-name="마스크 그룹 29" transform="translate(-499 -3364)" clip-path="url(#clip-path)">
    <circle id="타원_29" data-name="타원 29" cx="153.5" cy="153.5" r="153.5" transform="translate(499 3364)" fill="#040506"/>
    <g id="그룹_565" data-name="그룹 565" transform="translate(4529.704 -742.017)">
      <path id="패스_776" data-name="패스 776" d="M-3660.785,4726.944a29.485,29.485,0,0,0-24.971-14.784,38.185,38.185,0,0,0-32.078,16.571c-6.914,10.247-6.877,21.244-6.3,30.749.124,2.036.293,4.08.465,6.128.518,6.174,1.006,12.005,0,17.122-1.174,5.956-6.161,11.129-12.7,13.178a20.379,20.379,0,0,1-8.389.688,304.812,304.812,0,0,0,3.369-44.347,196.221,196.221,0,0,0-1.527-25.541c-.018-.488-.06-1-.13-1.539-.591-4.513-1.014-7.362-1.31-9.16h0c-.632-4.172-1.062-6.4-1.062-6.4h0c-4.231-29.892-11.1-49.392-11.1-49.392l-2.609.979c-.329-.867-.513-1.328-.513-1.328-61.922-18.061-123.232-35.133-152.331,0,0,0-.337.784-.919,2.248l-5.831-1.863s-5.882,19.818-8.614,49.884h0s-.318,2.25-.74,6.448h0c-.206,1.81-.486,4.678-.851,9.214a.087.087,0,0,1,0,.011,176.817,176.817,0,0,0-1.11,19.762v0c-2.057,33.427,9.5,136.889,50.144,136.889,12.547,0,16.4-31.5,17.554-47.426a168.728,168.728,0,0,0,37.169,3.752,135.336,135.336,0,0,0,16.054-1.251c1.363,16.5,5.442,44.925,17.361,44.925,21.74,0,35.156-29.6,42.62-62.242a49.312,49.312,0,0,0,7.152.537,42.476,42.476,0,0,0,12.79-1.929c15.045-4.712,26.19-16.762,29.089-31.45,1.662-8.417.977-16.577.374-23.779-.156-1.864-.314-3.722-.426-5.575-.443-7.291-.219-12.222,2.234-15.855,2.4-3.553,7.352-6.2,11.409-6a5.4,5.4,0,0,1,5.01,2.927c.98,1.669.671,4.126-.239,5.048a12.01,12.01,0,0,0,.116,16.984,12.006,12.006,0,0,0,16.985-.115C-3655.977,4752.235-3654.355,4737.9-3660.785,4726.944Z" transform="translate(-38.638 -351.149)" fill="#eb8439"/>
      <circle id="타원_157" data-name="타원 157" cx="63.729" cy="63.729" r="63.729" transform="translate(-3964.094 4400.418) rotate(-45)" fill="#fff"/>
      <path id="패스_777" data-name="패스 777" d="M-3619.8,5136.046c-4.2,2.086-6.5,6.68-4.168,10.8,1.193,2.111,3.836,3.066,6.3,3.423a71.291,71.291,0,0,0,14.739.441c2.9-.2,6-.766,7.984-2.68,2.632-2.54,2.294-6.837-.076-9.611-2.748-3.216-7.4-4.109-11.7-4.487a24.878,24.878,0,0,0-13.078,2.108Zm15.617,2.623a1.337,1.337,0,0,1,1.665-1.64c1.218.229,2.7,2.012,3.1,3.559a1.715,1.715,0,0,1-.544,2.049c-1.993,1.219-3.959-2.778-4.225-3.969Zm-7.01-.249a1.336,1.336,0,0,1,1.661-1.641c1.223.229,2.7,2.012,3.1,3.56a1.716,1.716,0,0,1-.544,2.049c-1.994,1.22-3.956-2.778-4.222-3.967Zm-6.957.364a1.335,1.335,0,0,1,1.661-1.64c1.222.229,2.7,2.012,3.1,3.559a1.716,1.716,0,0,1-.544,2.049c-1.99,1.22-3.956-2.778-4.222-3.968Z" transform="translate(-264.999 -717.625)" fill="#eb8439"/>
      <g id="그룹_564" data-name="그룹 564" transform="translate(-3982.39 4165.718)">
        <g id="그룹_562" data-name="그룹 562" transform="translate(0.61)">
          <path id="패스_778" data-name="패스 778" d="M-3774.775,4238.474h0c36.08-112.239-72.453-61.157-72.453-61.157a115.98,115.98,0,0,0-53,0h0s-108.534-51.083-72.453,61.158h0a85.257,85.257,0,0,0-5.334,29.641c0,51.835,46.373,54.716,104.289,54.716s104.29-2.881,104.29-54.716a85.291,85.291,0,0,0-5.335-29.641Z" transform="translate(3980.034 -4165.718)" fill="#eb8439"/>
          <g id="그룹_560" data-name="그룹 560" transform="translate(33.728 43.009)">
            <g id="그룹_558" data-name="그룹 558">
              <ellipse id="타원_158" data-name="타원 158" cx="29.302" cy="41.88" rx="29.302" ry="41.88" fill="#fbf7f1"/>
              <ellipse id="타원_159" data-name="타원 159" cx="23.728" cy="33.913" rx="23.728" ry="33.913" transform="translate(7.672 7.967)" fill="#040506"/>
              <path id="패스_779" data-name="패스 779" d="M-3712.639,4473.31h-8.2a3.221,3.221,0,0,0-3.218,3.216,3.2,3.2,0,0,0,.942,2.274l.284.285a.944.944,0,0,1,.275.664v4.632a2.066,2.066,0,0,0,2.064,2.065h7.506a2.066,2.066,0,0,0,2.064-2.065v-4.632a.942.942,0,0,1,.275-.664l.284-.285a3.194,3.194,0,0,0,.942-2.274A3.22,3.22,0,0,0-3712.639,4473.31Z" transform="translate(3756.559 -4436.735)" fill="#fbf7f1"/>
            </g>
            <g id="그룹_559" data-name="그룹 559" transform="translate(86.546)">
              <ellipse id="타원_160" data-name="타원 160" cx="29.302" cy="41.88" rx="29.302" ry="41.88" fill="#fbf7f1"/>
              <ellipse id="타원_161" data-name="타원 161" cx="23.728" cy="33.913" rx="23.728" ry="33.913" transform="translate(3.476 7.967)" fill="#040506"/>
              <path id="패스_780" data-name="패스 780" d="M-3460.312,4473.31h-8.2a3.221,3.221,0,0,0-3.217,3.216,3.194,3.194,0,0,0,.942,2.274l.285.285a.944.944,0,0,1,.275.664v4.632a2.066,2.066,0,0,0,2.064,2.065h7.505a2.066,2.066,0,0,0,2.064-2.065v-4.632a.942.942,0,0,1,.276-.664l.284-.285a3.193,3.193,0,0,0,.942-2.274A3.22,3.22,0,0,0-3460.312,4473.31Z" transform="translate(3482.97 -4436.735)" fill="#fbf7f1"/>
            </g>
          </g>
          <g id="그룹_561" data-name="그룹 561" transform="translate(89.567 8.446)">
            <path id="패스_781" data-name="패스 781" d="M-3633.854,4210.182c0,8.277,1.757,14.987,3.925,14.987s3.925-6.71,3.925-14.987a45.322,45.322,0,0,0-1-9.983c-2.171.189-4.173.422-5.993.668A47,47,0,0,0-3633.854,4210.182Z" transform="translate(3633.854 -4199.725)" fill="#fbf7f1"/>
            <path id="패스_782" data-name="패스 782" d="M-3583.238,4198.422a44.262,44.262,0,0,0-1.1,10.4c0,8.277,1.757,14.986,3.925,14.986s3.925-6.709,3.925-14.986a44.176,44.176,0,0,0-1.113-10.444C-3579.541,4198.346-3581.421,4198.365-3583.238,4198.422Z" transform="translate(3597.15 -4198.362)" fill="#fbf7f1"/>
            <path id="패스_783" data-name="패스 783" d="M-3533.794,4199.729a45,45,0,0,0-1.033,10.1c0,8.277,1.757,14.987,3.925,14.987s3.925-6.71,3.925-14.987a46.74,46.74,0,0,0-.881-9.457C-3529.863,4200.1-3531.845,4199.885-3533.794,4199.729Z" transform="translate(3560.448 -4199.375)" fill="#fbf7f1"/>
          </g>
        </g>
        <path id="패스_784" data-name="패스 784" d="M-3293.733,4641.91h-2.465a.968.968,0,0,0-.967.967.962.962,0,0,0,.283.684l.085.085a.283.283,0,0,1,.083.2v1.392a.622.622,0,0,0,.621.621h2.256a.621.621,0,0,0,.62-.621v-1.392a.282.282,0,0,1,.083-.2l.084-.085a.96.96,0,0,0,.283-.684A.967.967,0,0,0-3293.733,4641.91Z" transform="translate(3474.454 -4518.705)" fill="#fbf7f1"/>
        <g id="그룹_563" data-name="그룹 563" transform="translate(0 3.06)">
          <path id="패스_785" data-name="패스 785" d="M-3974.433,4247.242s25.55-71.154,9.123-69.673S-3989.251,4205.534-3974.433,4247.242Z" transform="translate(3982.39 -4177.546)" fill="#fbf7f1"/>
          <path id="패스_786" data-name="패스 786" d="M-3228.621,4247.242s-25.549-71.154-9.122-69.673S-3213.8,4205.534-3228.621,4247.242Z" transform="translate(3434.488 -4177.546)" fill="#fbf7f1"/>
        </g>
      </g>
      <path id="패스_787" data-name="패스 787" d="M-3617.817,4650.864l-15.422-7.375a2.58,2.58,0,0,0-3.437,1.213l-2.078,4.345a2.575,2.575,0,0,0,.591,3l-1,2.083-11.911,7.969a12.35,12.35,0,0,0-4.595,5.185l-19.117,39.978c-.364.76-3.105,7.6,11.264,15.208a1.765,1.765,0,0,0,.337.213c.431.21.852.41,1.246.6.227.112.459.223.694.335q.281.135.57.269a1.819,1.819,0,0,0,.37.125c14.95,6.416,18.554-.016,18.918-.777l19.117-39.978a12.368,12.368,0,0,0,1.152-6.833l-1.274-14.275,1-2.083a2.574,2.574,0,0,0,2.708-1.427l2.078-4.344A2.578,2.578,0,0,0-3617.817,4650.864Z" transform="translate(-227.692 -353.971)" fill="#e85300"/>
      <path id="패스_788" data-name="패스 788" d="M-3904.562,4736.938c34.929,9.3,66.574-3.614,68.744,18.894.112,26.332-68.336,34.018-85.72,35.544-.087.2-.176.407-.263.612,2.042-4.976,16.484-55.242,16.484-55.242C-3905.068,4736.807-3904.816,4736.869-3904.562,4736.938Z" transform="translate(-44.912 -423.286)" fill="#eb8439"/>
      <path id="패스_789" data-name="패스 789" d="M-3531.311,4749.955c2.239-22.062,32.655-9.914,66.818-18.046,1.547,5.479,12.925,45.723,15.673,53.722C-3469.963,4783.446-3531.542,4774.94-3531.311,4749.955Z" transform="translate(-334.371 -419.701)" fill="#eb8439"/>
    </g>
  </g>
</svg>
