<svg xmlns="http://www.w3.org/2000/svg" width="152.308" height="89.131" viewBox="0 0 152.308 89.131">
  <g id="그룹_421" data-name="그룹 421" transform="translate(-1299.515 -436.962)">
    <g id="그룹_413" data-name="그룹 413" transform="translate(1299.515 476.51)">
      <path id="패스_655" data-name="패스 655" d="M1304.479,531.634c-3.075-.27-4.964-2.428-4.964-5.665,0-2.7,1.889-5.5,4.964-5.18a239.558,239.558,0,0,0,38.362,0c3.129-.27,5.017,2.482,5.017,5.18,0,3.237-1.889,5.4-5.072,5.665-3.237.271-6.69.431-10.2.54a13.56,13.56,0,0,1,.216,2.751c0,6.1-2.05,6.259-9.119,6.259s-9.172-.162-9.172-6.259a12.945,12.945,0,0,1,.216-2.7C1311.169,532.12,1307.662,531.9,1304.479,531.634Zm-2.7-18.344a48.734,48.734,0,0,1-.162-13.705c.54-3.237,1.889-4.37,4.694-4.91a96.447,96.447,0,0,1,34.747,0c2.859.54,4.154,1.673,4.64,4.91a45,45,0,0,1-.162,13.705c-.593,3.236-1.619,4.532-4.478,4.909a129.188,129.188,0,0,1-34.747,0C1303.508,517.823,1302.429,516.527,1301.782,513.291Zm25.844-6.367a1.1,1.1,0,0,0,.539-1.4.819.819,0,0,0-1.132-.486,6.8,6.8,0,0,1-6.583-.054.938.938,0,0,0-1.242.431c-.323.594-.053,1.08.7,1.511A8.3,8.3,0,0,0,1327.626,506.924Z" transform="translate(-1299.515 -491.601)" fill="#fbf7f1"/>
      <path id="패스_656" data-name="패스 656" d="M1374.578,531.634c-3.075-.27-4.964-2.428-4.964-5.665,0-2.7,1.889-5.5,4.964-5.18a239.548,239.548,0,0,0,38.362,0c3.13-.27,5.018,2.482,5.018,5.18,0,3.237-1.889,5.4-5.072,5.665-3.238.271-6.69.431-10.2.54a13.613,13.613,0,0,1,.216,2.751c0,6.1-2.05,6.259-9.119,6.259s-9.172-.162-9.172-6.259a12.945,12.945,0,0,1,.216-2.7C1381.268,532.12,1377.761,531.9,1374.578,531.634Zm-2.7-18.344a48.734,48.734,0,0,1-.162-13.705c.54-3.237,1.889-4.37,4.694-4.91a96.447,96.447,0,0,1,34.747,0c2.859.54,4.154,1.673,4.639,4.91a45,45,0,0,1-.161,13.705c-.594,3.236-1.619,4.532-4.478,4.909a129.188,129.188,0,0,1-34.747,0C1373.607,517.823,1372.528,516.527,1371.881,513.291Zm25.844-6.367a1.1,1.1,0,0,0,.54-1.4.82.82,0,0,0-1.133-.486,6.8,6.8,0,0,1-6.583-.054.937.937,0,0,0-1.241.431c-.323.594-.053,1.08.7,1.511A8.3,8.3,0,0,0,1397.725,506.924Z" transform="translate(-1318.36 -491.601)" fill="#fbf7f1"/>
      <path id="패스_657" data-name="패스 657" d="M1453.933,502.7a7.709,7.709,0,0,1,.378,3.939,19.9,19.9,0,0,0-3.669,1.456c-.7.323-.324,1.456.594,1.025a18.1,18.1,0,0,1,8.578-2c4.856,0,8.039,1.889,8.849,5.341.863,3.507-1.349,5.827-5.934,6.907a51.892,51.892,0,0,1-10.737.863c-6.961,0-10.2-2.374-11.277-6.583a32.269,32.269,0,0,1,0-15.053c1.079-4.209,3.776-6.313,8.363-6.691a67.773,67.773,0,0,1,11.924-.107c4.532.27,7.014,2.05,7.014,5.341,0,3.4-2.212,5.558-7.014,5.558Zm-12.841,29.081c0-6.636,6.474-10.413,21.8-10.413,15.269,0,21.8,3.776,21.8,10.413,0,6.744-5.4,8.8-21.8,8.8C1446.433,540.58,1441.092,538.529,1441.092,531.785Zm17.859.271a8.368,8.368,0,0,0,7.824,0,1.1,1.1,0,0,0,.539-1.3c-.162-.431-.755-.809-1.187-.539a6.989,6.989,0,0,1-6.528-.054.991.991,0,0,0-1.3.485C1458.034,531.192,1458.3,531.677,1458.951,532.055Zm24.873-17.751a15.368,15.368,0,0,1-.216,1.565c-.485,3.615-3.129,5.234-6.906,5.234-4.37,0-7.23-1.889-6.636-5.882a72.873,72.873,0,0,0,.054-17.8c-.648-4.424,2.212-6.367,6.582-6.367,3.777,0,6.42,1.673,6.906,5.287.109.7.162,1.35.27,2.051l1.727-.162c2.482-.27,3.938,2.158,3.938,8.147,0,5.827-1.457,8.362-3.938,8.093Z" transform="translate(-1337.234 -491.05)" fill="#fbf7f1"/>
    </g>
    <g id="그룹_420" data-name="그룹 420" transform="translate(1352.564 436.962)">
      <g id="그룹_418" data-name="그룹 418" transform="translate(0.128)">
        <path id="패스_658" data-name="패스 658" d="M1415.2,452.19h0c7.551-23.492-15.165-12.8-15.165-12.8a24.276,24.276,0,0,0-11.093,0h0s-22.717-10.691-15.165,12.8h0a17.862,17.862,0,0,0-1.117,6.2c0,10.849,9.706,11.452,21.828,11.452s21.828-.6,21.828-11.452a17.859,17.859,0,0,0-1.116-6.2Z" transform="translate(-1372.243 -436.962)" fill="#eb8439"/>
        <g id="그룹_416" data-name="그룹 416" transform="translate(7.059 9.002)">
          <g id="그룹_414" data-name="그룹 414">
            <ellipse id="타원_119" data-name="타원 119" cx="6.133" cy="8.766" rx="6.133" ry="8.766" fill="#fbf7f1"/>
            <ellipse id="타원_120" data-name="타원 120" cx="4.966" cy="7.098" rx="4.966" ry="7.098" transform="translate(1.606 1.667)" fill="#040506"/>
            <path id="패스_659" data-name="패스 659" d="M1393.591,459.744h-1.717a.673.673,0,0,0-.476,1.149l.06.06a.2.2,0,0,1,.057.139v.97a.432.432,0,0,0,.432.431h1.571a.431.431,0,0,0,.431-.431v-.97a.2.2,0,0,1,.058-.139l.06-.06a.673.673,0,0,0-.477-1.149Z" transform="translate(-1384.399 -452.089)" fill="#fbf7f1"/>
          </g>
          <g id="그룹_415" data-name="그룹 415" transform="translate(18.114)">
            <ellipse id="타원_121" data-name="타원 121" cx="6.133" cy="8.766" rx="6.133" ry="8.766" fill="#fbf7f1"/>
            <ellipse id="타원_122" data-name="타원 122" cx="4.966" cy="7.098" rx="4.966" ry="7.098" transform="translate(0.727 1.667)" fill="#040506"/>
            <path id="패스_660" data-name="패스 660" d="M1412.279,459.744h-1.717a.673.673,0,0,0-.476,1.149l.06.06a.2.2,0,0,1,.057.139v.97a.432.432,0,0,0,.432.431h1.571a.431.431,0,0,0,.431-.431v-.97a.2.2,0,0,1,.058-.139l.06-.06a.673.673,0,0,0-.477-1.149Z" transform="translate(-1407.537 -452.089)" fill="#fbf7f1"/>
          </g>
        </g>
        <g id="그룹_417" data-name="그룹 417" transform="translate(18.746 1.768)">
          <path id="패스_661" data-name="패스 661" d="M1397.882,441.606c0,1.732.368,3.137.822,3.137s.821-1.4.821-3.137a9.49,9.49,0,0,0-.21-2.09c-.454.039-.873.089-1.254.14A9.806,9.806,0,0,0,1397.882,441.606Z" transform="translate(-1397.882 -439.417)" fill="#fbf7f1"/>
          <path id="패스_662" data-name="패스 662" d="M1401.78,439.392a9.275,9.275,0,0,0-.231,2.177c0,1.732.368,3.137.822,3.137s.822-1.4.822-3.137a9.244,9.244,0,0,0-.233-2.186Q1402.351,439.374,1401.78,439.392Z" transform="translate(-1398.868 -439.38)" fill="#fbf7f1"/>
          <path id="패스_663" data-name="패스 663" d="M1405.433,439.481a9.422,9.422,0,0,0-.216,2.115c0,1.732.368,3.137.821,3.137s.822-1.4.822-3.137a9.754,9.754,0,0,0-.185-1.979Q1406.045,439.529,1405.433,439.481Z" transform="translate(-1399.854 -439.407)" fill="#fbf7f1"/>
        </g>
      </g>
      <path id="패스_664" data-name="패스 664" d="M1423.537,472.231h-.516a.2.2,0,0,0-.143.345l.018.018a.06.06,0,0,1,.018.042v.291a.13.13,0,0,0,.129.13h.472a.13.13,0,0,0,.13-.13v-.291a.061.061,0,0,1,.017-.042l.018-.018a.2.2,0,0,0-.143-.345Z" transform="translate(-1385.711 -446.443)" fill="#fbf7f1"/>
      <g id="그룹_419" data-name="그룹 419" transform="translate(0 0.641)">
        <path id="패스_665" data-name="패스 665" d="M1373.734,452.426s5.348-14.892,1.91-14.582S1370.632,443.7,1373.734,452.426Z" transform="translate(-1372.068 -437.838)" fill="#fbf7f1"/>
        <path id="패스_666" data-name="패스 666" d="M1429.874,452.426s-5.348-14.892-1.91-14.582S1432.976,443.7,1429.874,452.426Z" transform="translate(-1386.785 -437.838)" fill="#fbf7f1"/>
      </g>
    </g>
  </g>
</svg>
