<svg xmlns="http://www.w3.org/2000/svg" width="213.04" height="211.473" viewBox="0 0 213.04 211.473">
  <g id="그룹_547" data-name="그룹 547" transform="translate(5921.889 1977.169)">
    <path id="패스_741" data-name="패스 741" d="M-5571.513-1452.262a16.962,16.962,0,0,0-14.363-8.5,21.964,21.964,0,0,0-18.452,9.532c-3.977,5.894-3.956,12.219-3.624,17.687.071,1.171.169,2.346.268,3.525.3,3.552.579,6.906,0,9.849a10.466,10.466,0,0,1-7.305,7.58,11.713,11.713,0,0,1-4.826.4,175.262,175.262,0,0,0,1.938-25.508,120.624,120.624,0,0,0-1.715-20.532c9.7-7.309,37.635-29.886,30.075-42.147-7.669-10.2-19.041,4.848-38.3,11-.35-.946-.554-1.455-.554-1.455-35.617-10.389-70.883-20.208-87.621,0,0,0-.293.68-.779,1.929-.141-.045-.283-.089-.429-.133-19.935-5.906-31.595-21.735-39.409-11.337-7.949,12.892,23.344,37.188,31.42,43.15a106.409,106.409,0,0,0-1.195,15.688v0c-1.184,19.227,5.461,78.738,28.842,78.738,7.217,0,9.436-18.116,10.1-27.279a97.075,97.075,0,0,0,21.38,2.158,78.021,78.021,0,0,0,9.234-.719c.784,9.491,3.13,25.84,9.986,25.84,12.5,0,20.222-17.023,24.515-35.8a28.355,28.355,0,0,0,4.114.309,24.435,24.435,0,0,0,7.357-1.11,24.112,24.112,0,0,0,16.731-18.09c.956-4.841.563-9.535.215-13.677-.09-1.072-.181-2.141-.244-3.207-.255-4.193-.127-7.03,1.284-9.12a8.216,8.216,0,0,1,6.563-3.451,3.109,3.109,0,0,1,2.881,1.684,2.735,2.735,0,0,1-.138,2.9,6.908,6.908,0,0,0,.067,9.769,6.906,6.906,0,0,0,9.771-.066A16.432,16.432,0,0,0-5571.513-1452.262Z" transform="translate(-139.589 -402.889)" fill="#eb8439"/>
    <circle id="타원_141" data-name="타원 141" cx="36.657" cy="36.657" r="36.657" transform="translate(-5864.133 -1842.17) rotate(-45)" fill="#fff"/>
    <path id="패스_742" data-name="패스 742" d="M-5244.09-1007.786c-2.417,1.2-3.74,3.842-2.4,6.215a4.817,4.817,0,0,0,3.624,1.969,40.987,40.987,0,0,0,8.478.254,7.307,7.307,0,0,0,4.592-1.541,4.08,4.08,0,0,0-.044-5.528c-1.581-1.849-4.259-2.364-6.731-2.581a14.311,14.311,0,0,0-7.522,1.213Zm8.983,1.509a.769.769,0,0,1,.958-.944,3.037,3.037,0,0,1,1.786,2.047.986.986,0,0,1-.313,1.179c-1.146.7-2.277-1.6-2.431-2.282Zm-4.032-.144a.768.768,0,0,1,.956-.944,3.032,3.032,0,0,1,1.786,2.047.986.986,0,0,1-.313,1.179c-1.146.7-2.275-1.6-2.428-2.282Zm-4,.21a.769.769,0,0,1,.957-.944,3.031,3.031,0,0,1,1.785,2.047.986.986,0,0,1-.312,1.179c-1.145.7-2.275-1.6-2.429-2.282Z" transform="translate(-574.432 -824.028)" fill="#eb8439"/>
    <g id="그룹_546" data-name="그룹 546" transform="translate(-5874.657 -1977.169)">
      <g id="그룹_544" data-name="그룹 544" transform="translate(0.351)">
        <path id="패스_743" data-name="패스 743" d="M-5484.1-1935.32h0c20.753-64.559-41.675-35.177-41.675-35.177a66.712,66.712,0,0,0-30.487,0h0s-62.429-29.382-41.675,35.178h0a49.055,49.055,0,0,0-3.068,17.049c0,29.815,26.673,31.473,59.987,31.473s59.987-1.657,59.987-31.473a49.033,49.033,0,0,0-3.069-17.049Z" transform="translate(5602.16 1977.169)" fill="#eb8439"/>
        <g id="그룹_542" data-name="그룹 542" transform="translate(19.4 24.738)">
          <g id="그룹_540" data-name="그룹 540">
            <ellipse id="타원_142" data-name="타원 142" cx="16.854" cy="24.089" rx="16.854" ry="24.089" fill="#fbf7f1"/>
            <ellipse id="타원_143" data-name="타원 143" cx="13.648" cy="19.507" rx="13.648" ry="19.507" transform="translate(4.413 4.582)" fill="#040506"/>
            <path id="패스_744" data-name="패스 744" d="M-5339.616-1669.577h-4.718a1.852,1.852,0,0,0-1.85,1.85,1.839,1.839,0,0,0,.542,1.308l.164.164a.543.543,0,0,1,.158.382v2.665a1.188,1.188,0,0,0,1.187,1.187h4.317a1.188,1.188,0,0,0,1.188-1.187v-2.665a.538.538,0,0,1,.159-.382l.163-.164a1.837,1.837,0,0,0,.542-1.308A1.852,1.852,0,0,0-5339.616-1669.577Z" transform="translate(5364.878 1690.615)" fill="#fbf7f1"/>
          </g>
          <g id="그룹_541" data-name="그룹 541" transform="translate(49.781)">
            <ellipse id="타원_144" data-name="타원 144" cx="16.854" cy="24.089" rx="16.854" ry="24.089" fill="#fbf7f1"/>
            <ellipse id="타원_145" data-name="타원 145" cx="13.648" cy="19.507" rx="13.648" ry="19.507" transform="translate(1.999 4.582)" fill="#040506"/>
            <path id="패스_745" data-name="패스 745" d="M-5087.288-1669.577h-4.718a1.852,1.852,0,0,0-1.851,1.85,1.837,1.837,0,0,0,.542,1.308l.164.164a.541.541,0,0,1,.158.382v2.665a1.188,1.188,0,0,0,1.188,1.187h4.316a1.188,1.188,0,0,0,1.188-1.187v-2.665a.54.54,0,0,1,.159-.382l.163-.164a1.839,1.839,0,0,0,.542-1.308A1.851,1.851,0,0,0-5087.288-1669.577Z" transform="translate(5100.321 1690.615)" fill="#fbf7f1"/>
          </g>
        </g>
        <g id="그룹_543" data-name="그룹 543" transform="translate(51.519 4.858)">
          <path id="패스_746" data-name="패스 746" d="M-5255.98-1936.946c0,4.761,1.011,8.62,2.258,8.62s2.259-3.859,2.259-8.62a26.02,26.02,0,0,0-.578-5.742c-1.249.109-2.4.243-3.447.385A26.985,26.985,0,0,0-5255.98-1936.946Z" transform="translate(5255.98 1942.962)" fill="#fbf7f1"/>
          <path id="패스_747" data-name="패스 747" d="M-5205.832-1944.49a25.483,25.483,0,0,0-.633,5.981c0,4.761,1.011,8.62,2.258,8.62s2.257-3.86,2.257-8.62a25.438,25.438,0,0,0-.64-6.007C-5203.7-1944.534-5204.786-1944.523-5205.832-1944.49Z" transform="translate(5213.834 1944.525)" fill="#fbf7f1"/>
          <path id="패스_748" data-name="패스 748" d="M-5156.358-1943.158a25.876,25.876,0,0,0-.594,5.812c0,4.761,1.011,8.62,2.257,8.62s2.258-3.859,2.258-8.62a26.862,26.862,0,0,0-.507-5.44C-5154.1-1942.946-5155.238-1943.069-5156.358-1943.158Z" transform="translate(5171.689 1943.362)" fill="#fbf7f1"/>
        </g>
      </g>
      <path id="패스_749" data-name="패스 749" d="M-4917.317-1500.977h-1.418a.556.556,0,0,0-.556.556.551.551,0,0,0,.163.393l.049.049a.165.165,0,0,1,.047.115v.8a.357.357,0,0,0,.356.357h1.3a.357.357,0,0,0,.356-.357v-.8a.16.16,0,0,1,.049-.115l.048-.049a.553.553,0,0,0,.163-.393A.556.556,0,0,0-4917.317-1500.977Z" transform="translate(5021.267 1571.844)" fill="#fbf7f1"/>
      <g id="그룹_545" data-name="그룹 545" transform="translate(0 1.76)">
        <path id="패스_750" data-name="패스 750" d="M-5599.939-1925.252s14.7-40.927,5.248-40.076S-5608.462-1949.243-5599.939-1925.252Z" transform="translate(5604.516 1965.341)" fill="#fbf7f1"/>
        <path id="패스_751" data-name="패스 751" d="M-4856.961-1925.252s-14.7-40.927-5.247-40.076S-4848.437-1949.243-4856.961-1925.252Z" transform="translate(4975.375 1965.341)" fill="#fbf7f1"/>
      </g>
    </g>
    <path id="패스_752" data-name="패스 752" d="M-5899.43-1560.7l-17.947,8.245a7.754,7.754,0,0,0-3.8,10.271,7.692,7.692,0,0,0,4.347,4.029l.909.337a2.268,2.268,0,0,1,1.267,1.176l4.657,10.136a4.974,4.974,0,0,0,6.591,2.441l16.422-7.545a4.974,4.974,0,0,0,2.441-6.591l-4.657-10.136a2.266,2.266,0,0,1-.064-1.729l.335-.908a7.693,7.693,0,0,0-.226-5.923A7.752,7.752,0,0,0-5899.43-1560.7Z" transform="translate(0 -353.886)" fill="#e85300"/>
    <path id="패스_753" data-name="패스 753" d="M-4697.8-1592.753l-7.859-5.106a1.414,1.414,0,0,0-1.955.415l-1.438,2.215a1.41,1.41,0,0,0,.107,1.675l-.689,1.062-7.043,3.485a6.775,6.775,0,0,0-2.867,2.492l-13.235,20.373c-.251.387-2.229,3.911,5.042,9.069a.975.975,0,0,0,.168.14c.22.145.434.284.635.413.115.077.233.154.353.232l.291.187a1,1,0,0,0,.191.094c7.671,4.552,10.088,1.311,10.34.923l13.235-20.373a6.784,6.784,0,0,0,1.113-3.633l.323-7.85.689-1.062a1.412,1.412,0,0,0,1.574-.583l1.438-2.214A1.413,1.413,0,0,0-4697.8-1592.753Z" transform="translate(-1011.779 -322.668)" fill="#e85300"/>
    <path id="패스_754" data-name="패스 754" d="M-5718.316-1503.277s-6.323-2.412-7.349-.172,3.638,5.658,7.406,6.3S-5718.316-1503.277-5718.316-1503.277Z" transform="translate(-166.899 -402.41)" fill="#eb8439"/>
    <path id="패스_755" data-name="패스 755" d="M-4702.144-1506.224s6.3-2.478,7.345-.248-3.578,5.7-7.34,6.38S-4702.144-1506.224-4702.144-1506.224Z" transform="translate(-1036.802 -399.856)" fill="#eb8439"/>
  </g>
</svg>
