<svg xmlns="http://www.w3.org/2000/svg" width="215.217" height="220.418" viewBox="0 0 215.217 220.418">
  <g id="그룹_571" data-name="그룹 571" transform="translate(7748.493 3936.364)">
    <path id="패스_796" data-name="패스 796" d="M-7709.473-3346.838a16.907,16.907,0,0,1,14.318-8.477,21.894,21.894,0,0,1,18.393,9.5c3.964,5.875,3.943,12.18,3.613,17.631-.071,1.167-.168,2.339-.267,3.513-.3,3.54-.577,6.884,0,9.817a10.432,10.432,0,0,0,7.282,7.556,11.675,11.675,0,0,0,4.811.394,174.735,174.735,0,0,1-1.932-25.428,120.13,120.13,0,0,1,1.709-20.467c-9.668-7.286-37.518-29.791-29.98-42.014,7.644-10.172,18.98,4.833,38.181,10.961.349-.943.552-1.45.552-1.45,35.505-10.356,70.66-20.145,87.345,0,0,0,.292.678.777,1.923.14-.045.283-.09.427-.132,19.872-5.888,31.5-21.667,39.285-11.3,7.925,12.851-23.271,37.071-31.32,43.014a106.345,106.345,0,0,1,1.19,15.638v0c1.18,19.166-5.444,78.49-28.751,78.49-7.194,0-9.407-18.059-10.065-27.193a96.761,96.761,0,0,1-21.312,2.151,77.7,77.7,0,0,1-9.205-.717c-.782,9.462-3.121,25.759-9.955,25.759-12.465,0-20.158-16.969-24.437-35.688a28.285,28.285,0,0,1-4.1.308,24.349,24.349,0,0,1-7.333-1.106,24.038,24.038,0,0,1-16.679-18.033c-.953-4.826-.561-9.5-.214-13.634.09-1.069.18-2.134.244-3.2.254-4.18.125-7.008-1.281-9.092a8.19,8.19,0,0,0-6.542-3.44,3.1,3.1,0,0,0-2.872,1.678,2.726,2.726,0,0,0,.137,2.9,6.885,6.885,0,0,1-.067,9.738,6.884,6.884,0,0,1-9.739-.066A16.379,16.379,0,0,1-7709.473-3346.838Z" transform="translate(-31.318 -458.281)" fill="#040506"/>
    <circle id="타원_163" data-name="타원 163" cx="36.541" cy="36.541" r="36.541" transform="translate(-7690.793 -3792.178) rotate(-45)" fill="#fff"/>
    <path id="패스_797" data-name="패스 797" d="M-7069.849-2902.2c-2.408,1.2-3.728,3.83-2.39,6.2a4.8,4.8,0,0,0,3.613,1.963,40.88,40.88,0,0,0,8.451.253,7.284,7.284,0,0,0,4.578-1.536,4.068,4.068,0,0,0-.044-5.511c-1.576-1.844-4.246-2.356-6.71-2.573a14.265,14.265,0,0,0-7.5,1.209Zm8.955,1.5a.767.767,0,0,1,.955-.94,3.027,3.027,0,0,1,1.78,2.041.983.983,0,0,1-.312,1.175c-1.143.7-2.271-1.593-2.423-2.275Zm-4.02-.143a.767.767,0,0,1,.953-.941,3.022,3.022,0,0,1,1.78,2.041.984.984,0,0,1-.312,1.175c-1.143.7-2.268-1.593-2.421-2.275Zm-3.989.209a.766.766,0,0,1,.953-.941,3.024,3.024,0,0,1,1.78,2.041.982.982,0,0,1-.312,1.175c-1.141.7-2.268-1.593-2.421-2.275Z" transform="translate(-575.476 -879.653)" fill="#040506"/>
    <g id="그룹_570" data-name="그룹 570" transform="translate(-7698.174 -3936.363)">
      <path id="패스_798" data-name="패스 798" d="M-7294.209-3885.882h0c-.432-19.223-10.491-50.48-17.635-50.48-5.926,0-16.828,5.352-23.395,15.848a65.683,65.683,0,0,0-30.015,0c-6.562-10.5-17.47-15.848-23.395-15.848-7.145,0-17.2,31.259-17.635,50.48a48.308,48.308,0,0,0-3.021,16.785c0,29.353,25.12,34.842,57.917,34.842s60.2-5.489,60.2-34.842A48.284,48.284,0,0,0-7294.209-3885.882Z" transform="translate(7409.306 3936.363)" fill="#040506"/>
      <g id="그룹_569" data-name="그룹 569" transform="translate(17.96 36.06)">
        <g id="그룹_567" data-name="그룹 567">
          <ellipse id="타원_164" data-name="타원 164" cx="16.593" cy="23.716" rx="16.593" ry="23.716" fill="#fff"/>
          <ellipse id="타원_165" data-name="타원 165" cx="13.437" cy="19.205" rx="13.437" ry="19.205" transform="translate(4.345 4.511)" fill="#040506"/>
        </g>
        <g id="그룹_568" data-name="그룹 568" transform="translate(49.01)">
          <ellipse id="타원_166" data-name="타원 166" cx="16.593" cy="23.716" rx="16.593" ry="23.716" fill="#fff"/>
          <ellipse id="타원_167" data-name="타원 167" cx="13.437" cy="19.205" rx="13.437" ry="19.205" transform="translate(1.968 4.511)" fill="#040506"/>
        </g>
      </g>
      <path id="패스_799" data-name="패스 799" d="M-7157.357-3553.683H-7162a1.823,1.823,0,0,0-1.821,1.821,1.81,1.81,0,0,0,.533,1.288l.161.161a.535.535,0,0,1,.155.376v2.623a1.17,1.17,0,0,0,1.169,1.169h4.25a1.17,1.17,0,0,0,1.169-1.169v-2.623a.533.533,0,0,1,.156-.376l.161-.161a1.809,1.809,0,0,0,.534-1.288A1.823,1.823,0,0,0-7157.357-3553.683Z" transform="translate(7200.241 3610.454)" fill="#fff"/>
      <path id="패스_800" data-name="패스 800" d="M-6908.511-3553.683h-4.645a1.823,1.823,0,0,0-1.821,1.821,1.81,1.81,0,0,0,.533,1.288l.161.161a.535.535,0,0,1,.155.376v2.623a1.17,1.17,0,0,0,1.169,1.169h4.251a1.17,1.17,0,0,0,1.169-1.169v-2.623a.536.536,0,0,1,.155-.376l.161-.161a1.811,1.811,0,0,0,.533-1.288A1.823,1.823,0,0,0-6908.511-3553.683Z" transform="translate(6988.311 3610.454)" fill="#fff"/>
    </g>
    <path id="패스_801" data-name="패스 801" d="M-7726.1-3479.383l-17.89,8.219a7.729,7.729,0,0,0-3.793,10.238,7.67,7.67,0,0,0,4.333,4.017l.906.335a2.263,2.263,0,0,1,1.264,1.172l4.643,10.1a4.958,4.958,0,0,0,6.57,2.433l16.371-7.521a4.958,4.958,0,0,0,2.434-6.57l-4.642-10.1a2.259,2.259,0,0,1-.063-1.723l.333-.9a7.673,7.673,0,0,0-.224-5.9A7.729,7.729,0,0,0-7726.1-3479.383Z" transform="translate(0 -388.586)" fill="#e85300"/>
    <path id="패스_802" data-name="패스 802" d="M-6504.733-3511.448l-7.834-5.09a1.411,1.411,0,0,0-1.948.414l-1.435,2.208a1.408,1.408,0,0,0,.107,1.67l-.687,1.058-7.02,3.475a6.75,6.75,0,0,0-2.858,2.483l-13.194,20.31c-.251.386-2.222,3.9,5.026,9.04a.954.954,0,0,0,.168.139c.219.145.432.283.632.412.116.076.233.154.353.231.1.062.192.125.29.186a.98.98,0,0,0,.191.094c7.647,4.537,10.056,1.307,10.307.92l13.193-20.309a6.753,6.753,0,0,0,1.109-3.622l.322-7.826.688-1.058a1.408,1.408,0,0,0,1.569-.581l1.434-2.207A1.409,1.409,0,0,0-6504.733-3511.448Z" transform="translate(-1029.182 -357.35)" fill="#e85300"/>
    <path id="패스_803" data-name="패스 803" d="M-7544.091-3397.694s-6.3-2.4-7.325-.172,3.626,5.64,7.382,6.284S-7544.091-3397.694-7544.091-3397.694Z" transform="translate(-167.718 -457.718)" fill="#040506"/>
    <path id="패스_804" data-name="패스 804" d="M-6527.9-3400.64s6.277-2.469,7.322-.247-3.567,5.677-7.316,6.36S-6527.9-3400.64-6527.9-3400.64Z" transform="translate(-1038.1 -455.247)" fill="#040506"/>
  </g>
</svg>
