<svg xmlns="http://www.w3.org/2000/svg" xmlns:xlink="http://www.w3.org/1999/xlink" width="1920" height="3178.618" viewBox="0 0 1920 3178.618">
  <defs>
    <linearGradient id="linear-gradient" x1="0.5" x2="0.5" y2="1" gradientUnits="objectBoundingBox">
      <stop offset="0" stop-color="#fbf8f4"/>
      <stop offset="0.46" stop-color="#faefe4"/>
      <stop offset="1" stop-color="#ffebb8"/>
    </linearGradient>
    <clipPath id="clip-path">
      <rect id="사각형_688" data-name="사각형 688" width="1920" height="3178.618" transform="translate(0 1964.382)" fill="url(#linear-gradient)"/>
    </clipPath>
    <radialGradient id="radial-gradient" cx="0.5" cy="0.5" r="0.5" gradientUnits="objectBoundingBox">
      <stop offset="0" stop-color="#5e9744"/>
      <stop offset="1" stop-color="#6eac51"/>
    </radialGradient>
  </defs>
  <g id="그룹_1023" data-name="그룹 1023" transform="translate(2599 2231.538)">
    <g id="그룹_1013" data-name="그룹 1013">
      <g id="마스크_그룹_47" data-name="마스크 그룹 47" transform="translate(-2599 -4195.92)" clip-path="url(#clip-path)">
        <rect id="사각형_687" data-name="사각형 687" width="1920" height="3178.618" transform="translate(0 1964.382)" fill="url(#linear-gradient)"/>
        <g id="그룹_986" data-name="그룹 986" transform="translate(-765.493 4499.488)">
          <g id="그룹_980" data-name="그룹 980">
            <g id="그룹_969" data-name="그룹 969">
              <g id="그룹_968" data-name="그룹 968">
                <path id="패스_1867" data-name="패스 1867" d="M-1351.665,613.448V1310.12H534.307V873.17c-18.347-7.723-41.518-17.267-68.866-28.23-.485-.173-1-.372-1.48-.572-23.278-9.295-49.521-19.584-78.377-30.573-.51-.2-1.05-.4-1.588-.6q-14.39-5.493-29.611-11.188c-.728-.249-1.428-.522-2.155-.8q-21.014-7.848-43.566-16.046c-.485-.174-.97-.349-1.455-.548q-23.52-8.521-48.524-17.341-24.974-8.784-51.324-17.791c-.863-.273-1.7-.572-2.56-.871-29.959-10.192-61.186-20.507-93.437-30.8q-14.428-4.6-29.124-9.2c-250.672-78.309-558.516-152.458-833.089-155.947q-54.033-.672-104.456.422c-52.294,1.122-101.68,3.565-148.209,7.051C-1145.744,570.792-1261.3,591.2-1351.665,613.448Z" transform="translate(1351.665 -552.425)" fill="#6eac51"/>
                <path id="패스_1868" data-name="패스 1868" d="M-1116.3,553.1c325.519,38,635.681,159.611,915.747,318.6,8.811,5.009,18.86,10.265,28.911,8.024,5.038-1.122,9.374-4.013,13.552-6.852Q-80.215,820.1-2.311,767.279c-54.262-19.112-113.562-39.019-176.445-58.653-250.672-78.309-558.516-152.458-833.089-155.947Q-1065.877,552.006-1116.3,553.1Z" transform="translate(1612.661 -552.425)" fill="#c0dfa1" opacity="0.27" style="mix-blend-mode: screen;isolation: isolate"/>
              </g>
              <path id="패스_1869" data-name="패스 1869" d="M-1351.665,609.6V935.647c121.483,41.484,254.095,54.913,382.394,38.545,130.349-16.643,255.98-64.009,361.811-136.291-51.434-50.378-104.483-99.414-162.273-143.44A1180.039,1180.039,0,0,0-1003.513,556.3C-1145.744,566.943-1261.3,587.348-1351.665,609.6Z" transform="translate(1351.665 -548.576)" fill="#c0dfa1" opacity="0.34" style="mix-blend-mode: multiply;isolation: isolate"/>
            </g>
            <g id="그룹_979" data-name="그룹 979" transform="translate(15.391 25.314)">
              <g id="그룹_975" data-name="그룹 975">
                <g id="그룹_970" data-name="그룹 970" transform="translate(416.335 77.093)" opacity="0.59" style="mix-blend-mode: multiply;isolation: isolate">
                  <path id="패스_1870" data-name="패스 1870" d="M-1119.472,605.75c1.839.64,3.87,1.869,3.324,3.31-.42,1.1-2.147,1.606-3.682,1.8-5.462.687-11.028-.546-16.158-2.088-1.13-.339-2.373-.783-2.763-1.636C-1141.508,601.133-1121.729,604.962-1119.472,605.75Z" transform="translate(1155.746 -603.821)" fill="#c0dfa1"/>
                  <path id="패스_1871" data-name="패스 1871" d="M-1104.069,613.374c1.839.64,3.868,1.869,3.322,3.31-.418,1.1-2.145,1.606-3.68,1.8-5.464.687-11.027-.546-16.158-2.086-1.133-.341-2.373-.785-2.763-1.636C-1126.1,608.759-1106.328,612.587-1104.069,613.374Z" transform="translate(1172.827 -596.253)" fill="#c0dfa1"/>
                  <path id="패스_1872" data-name="패스 1872" d="M-1127.406,613.374c1.837.64,3.868,1.869,3.321,3.31-.417,1.1-2.145,1.606-3.68,1.8-5.464.687-11.027-.546-16.158-2.086-1.132-.341-2.373-.785-2.762-1.636C-1149.442,608.759-1129.665,612.587-1127.406,613.374Z" transform="translate(1146.948 -596.253)" fill="#c0e270"/>
                </g>
                <g id="그룹_971" data-name="그룹 971" transform="translate(663.218 84.713)" opacity="0.59" style="mix-blend-mode: multiply;isolation: isolate">
                  <path id="패스_1873" data-name="패스 1873" d="M-1010.477,608.613c1.341.4,2.841,1.216,2.5,2.266-.26.8-1.479,1.217-2.571,1.4-3.887.666-7.919-.042-11.652-.982-.823-.207-1.727-.486-2.039-1.084C-1026.433,606-1012.124,608.121-1010.477,608.613Z" transform="translate(1035.888 -607.646)" fill="#c0dfa1"/>
                  <path id="패스_1874" data-name="패스 1874" d="M-999.177,613.558c1.341.4,2.841,1.215,2.5,2.263-.26.805-1.476,1.219-2.571,1.407-3.887.665-7.919-.042-11.652-.982-.823-.207-1.727-.486-2.039-1.084C-1015.131,610.95-1000.824,613.066-999.177,613.558Z" transform="translate(1048.418 -602.738)" fill="#c0dfa1"/>
                  <path id="패스_1875" data-name="패스 1875" d="M-1015.892,614.34c1.339.4,2.839,1.217,2.5,2.266-.257.8-1.476,1.219-2.569,1.407-3.889.665-7.919-.042-11.652-.982-.822-.207-1.729-.488-2.041-1.084C-1031.848,611.734-1017.54,613.85-1015.892,614.34Z" transform="translate(1029.881 -601.96)" fill="#c0e270"/>
                </g>
                <g id="그룹_972" data-name="그룹 972" transform="translate(754.824)" opacity="0.59" style="mix-blend-mode: multiply;isolation: isolate">
                  <path id="패스_1876" data-name="패스 1876" d="M-967.04,566.1c1.341.4,2.841,1.216,2.5,2.264-.26.8-1.479,1.219-2.571,1.407-3.887.666-7.919-.042-11.652-.982-.822-.207-1.727-.486-2.039-1.084C-983,563.489-968.687,565.6-967.04,566.1Z" transform="translate(992.449 -565.13)" fill="#c0dfa1"/>
                  <path id="패스_1877" data-name="패스 1877" d="M-955.74,571.04c1.341.4,2.841,1.215,2.5,2.265-.259.8-1.476,1.219-2.571,1.407-3.887.666-7.919-.042-11.652-.982-.823-.207-1.727-.488-2.039-1.084C-971.694,568.434-957.385,570.55-955.74,571.04Z" transform="translate(1004.98 -560.222)" fill="#c0dfa1"/>
                  <path id="패스_1878" data-name="패스 1878" d="M-972.456,571.824c1.339.4,2.838,1.215,2.5,2.266-.257.8-1.476,1.217-2.569,1.4-3.889.667-7.919-.04-11.652-.982-.823-.207-1.729-.486-2.039-1.084C-988.412,569.218-974.1,571.332-972.456,571.824Z" transform="translate(986.443 -559.444)" fill="#c0dfa1"/>
                </g>
                <g id="그룹_973" data-name="그룹 973" transform="translate(276.233 206.656)" opacity="0.59" style="mix-blend-mode: multiply;isolation: isolate">
                  <path id="패스_1879" data-name="패스 1879" d="M-1185.905,670.774c1.839.64,3.868,1.869,3.324,3.31-.42,1.1-2.147,1.606-3.682,1.8-5.462.687-11.028-.548-16.158-2.088-1.13-.339-2.373-.785-2.763-1.636C-1207.941,666.158-1188.164,669.987-1185.905,670.774Z" transform="translate(1222.181 -668.846)" fill="#c0dfa1"/>
                  <path id="패스_1880" data-name="패스 1880" d="M-1170.5,678.4c1.837.64,3.868,1.869,3.321,3.308-.417,1.1-2.145,1.608-3.68,1.8-5.464.688-11.027-.546-16.158-2.086-1.133-.341-2.373-.785-2.763-1.638C-1192.538,673.783-1172.761,677.612-1170.5,678.4Z" transform="translate(1239.262 -661.278)" fill="#c0dfa1"/>
                  <path id="패스_1881" data-name="패스 1881" d="M-1193.84,678.4c1.839.64,3.87,1.869,3.323,3.308-.42,1.1-2.145,1.608-3.68,1.8-5.464.688-11.028-.546-16.158-2.086-1.132-.341-2.373-.785-2.765-1.638C-1215.874,673.783-1196.1,677.612-1193.84,678.4Z" transform="translate(1213.383 -661.278)" fill="#c0dfa1"/>
                </g>
                <g id="그룹_974" data-name="그룹 974" transform="translate(228.724 20.857)" opacity="0.59" style="mix-blend-mode: multiply;isolation: isolate">
                  <path id="패스_1882" data-name="패스 1882" d="M-1217.227,576.041c1.354.307,2.9,1.014,2.645,2.072-.194.809-1.365,1.3-2.429,1.556-3.788.912-7.822.48-11.578-.205a3.135,3.135,0,0,1-2.1-.937C-1233.179,574.515-1218.891,575.665-1217.227,576.041Z" transform="translate(1241.378 -575.597)" fill="#c0dfa1"/>
                  <path id="패스_1883" data-name="패스 1883" d="M-1205.712,580.137c1.354.307,2.9,1.014,2.645,2.072-.194.811-1.365,1.3-2.429,1.556-3.788.912-7.822.48-11.578-.2a3.154,3.154,0,0,1-2.1-.937C-1221.664,578.611-1207.376,579.761-1205.712,580.137Z" transform="translate(1254.147 -571.532)" fill="#c0dfa1"/>
                  <path id="패스_1884" data-name="패스 1884" d="M-1222.16,582.073c1.354.307,2.9,1.014,2.645,2.072-.194.809-1.364,1.3-2.429,1.556-3.785.912-7.82.478-11.578-.205a3.126,3.126,0,0,1-2.1-.937C-1238.112,580.547-1223.822,581.7-1222.16,582.073Z" transform="translate(1235.91 -569.61)" fill="#c0dfa1"/>
                </g>
                <path id="패스_1885" data-name="패스 1885" d="M-1283.984,617.894c1.354.307,2.9,1.012,2.644,2.07-.194.811-1.364,1.3-2.429,1.558-3.788.913-7.822.478-11.578-.205a3.146,3.146,0,0,1-2.1-.937C-1299.937,616.367-1285.648,617.515-1283.984,617.894Z" transform="translate(1396.075 -513.203)" fill="#c0dfa1" opacity="0.44" style="mix-blend-mode: multiply;isolation: isolate"/>
                <path id="패스_1886" data-name="패스 1886" d="M-827.895,611.64c1.354.307,2.9,1.014,2.644,2.072-.194.811-1.364,1.3-2.429,1.556-3.788.913-7.822.48-11.578-.2a3.155,3.155,0,0,1-2.1-.936C-843.847,610.114-829.559,611.263-827.895,611.64Z" transform="translate(1901.832 -519.408)" fill="#c0dfa1" opacity="0.44" style="mix-blend-mode: multiply;isolation: isolate"/>
                <path id="패스_1887" data-name="패스 1887" d="M-1330.615,594.759c1.354.307,2.9,1.014,2.644,2.072-.194.809-1.365,1.3-2.429,1.556-3.788.913-7.822.478-11.578-.205a3.146,3.146,0,0,1-2.1-.936C-1346.567,593.233-1332.279,594.383-1330.615,594.759Z" transform="translate(1344.367 -536.163)" fill="#c0dfa1" opacity="0.44" style="mix-blend-mode: multiply;isolation: isolate"/>
                <path id="패스_1888" data-name="패스 1888" d="M-1271.847,652.281c1.354.307,2.9,1.014,2.643,2.072-.192.809-1.365,1.3-2.427,1.556-3.788.913-7.822.478-11.58-.205a3.135,3.135,0,0,1-2.1-.937C-1287.8,650.755-1273.51,651.9-1271.847,652.281Z" transform="translate(1409.534 -479.072)" fill="#c0dfa1" opacity="0.44" style="mix-blend-mode: multiply;isolation: isolate"/>
              </g>
              <g id="그룹_976" data-name="그룹 976" transform="translate(266.792 107.321)">
                <path id="패스_1889" data-name="패스 1889" d="M-1177.733,627.98a4.232,4.232,0,0,1,1.786,1.239,1.483,1.483,0,0,1-.046,1.931,2.635,2.635,0,0,1-1.578.51,60.61,60.61,0,0,1-7.982.221,8.505,8.505,0,0,1,.983,4.669,2.219,2.219,0,0,1-.462,1.345,2.514,2.514,0,0,1-1.938.608c-3.418-.07-6.2-2.435-8.64-4.654a7.7,7.7,0,0,1-3.573,4.083,5.855,5.855,0,0,1-5.523-.054,3.671,3.671,0,0,1-1.533-4.7,13.181,13.181,0,0,1-10.2-.685,2.861,2.861,0,0,1-1.208-.972c-.8-1.341.806-2.81,2.263-3.535a33.775,33.775,0,0,1,5.289-2.1,2.592,2.592,0,0,1-1.4-3.555,5.217,5.217,0,0,1,3.551-2.475,9.8,9.8,0,0,1,8.771,2.134c.614-2.532,4.224-3.628,6.82-2.64,3.051,1.158,3.631,3.911,5.841,5.77C-1184.279,627-1180.437,626.785-1177.733,627.98Z" transform="translate(1217.859 -618.992)" fill="#fff"/>
                <path id="패스_1890" data-name="패스 1890" d="M-1200.04,623.388c.656.191,1.417.558,1.428,1.193s-.77,1.034-1.434,1.247a20.585,20.585,0,0,1-9.258,1.05,3.693,3.693,0,0,1-1.341-.408,1.307,1.307,0,0,1-.7-1.082,1.79,1.79,0,0,1,.321-.851c1.084-1.805,2.373-1.853,4.412-1.941A20.361,20.361,0,0,1-1200.04,623.388Z" transform="translate(1225.083 -615.432)" fill="#e7a328"/>
              </g>
              <g id="그룹_977" data-name="그룹 977" transform="translate(572.02 155.859)">
                <path id="패스_1891" data-name="패스 1891" d="M-1033,652.34a4.284,4.284,0,0,1,1.786,1.239,1.485,1.485,0,0,1-.046,1.931,2.635,2.635,0,0,1-1.578.51,60.337,60.337,0,0,1-7.984.221,8.492,8.492,0,0,1,.985,4.668,2.214,2.214,0,0,1-.462,1.345,2.527,2.527,0,0,1-1.938.61c-3.418-.072-6.206-2.435-8.64-4.655a7.71,7.71,0,0,1-3.575,4.083,5.851,5.851,0,0,1-5.521-.054,3.672,3.672,0,0,1-1.533-4.7,13.177,13.177,0,0,1-10.2-.685,2.872,2.872,0,0,1-1.208-.972c-.8-1.341.808-2.807,2.265-3.535a33.734,33.734,0,0,1,5.287-2.1,2.593,2.593,0,0,1-1.4-3.552,5.216,5.216,0,0,1,3.554-2.477,9.8,9.8,0,0,1,8.769,2.134c.616-2.532,4.226-3.626,6.822-2.64,3.052,1.16,3.632,3.911,5.84,5.772C-1039.545,651.361-1035.7,651.144-1033,652.34Z" transform="translate(1073.125 -643.352)" fill="#fff"/>
                <path id="패스_1892" data-name="패스 1892" d="M-1055.305,647.748c.656.191,1.415.558,1.428,1.193.01.652-.77,1.034-1.434,1.247a20.554,20.554,0,0,1-9.258,1.05,3.654,3.654,0,0,1-1.341-.408,1.31,1.31,0,0,1-.7-1.08,1.806,1.806,0,0,1,.323-.853c1.084-1.805,2.373-1.853,4.41-1.941A20.42,20.42,0,0,1-1055.305,647.748Z" transform="translate(1080.349 -639.793)" fill="#e7a328"/>
              </g>
              <g id="그룹_978" data-name="그룹 978" transform="translate(697.117 40.173)">
                <path id="패스_1893" data-name="패스 1893" d="M-973.681,594.279a4.259,4.259,0,0,1,1.789,1.239,1.486,1.486,0,0,1-.046,1.931,2.647,2.647,0,0,1-1.58.51,60.309,60.309,0,0,1-7.982.221,8.526,8.526,0,0,1,.985,4.668,2.227,2.227,0,0,1-.462,1.345,2.53,2.53,0,0,1-1.94.61c-3.418-.072-6.2-2.435-8.64-4.655a7.7,7.7,0,0,1-3.573,4.083,5.855,5.855,0,0,1-5.523-.054,3.673,3.673,0,0,1-1.531-4.7,13.177,13.177,0,0,1-10.2-.685,2.86,2.86,0,0,1-1.208-.972c-.8-1.341.806-2.809,2.263-3.535a33.768,33.768,0,0,1,5.289-2.1,2.59,2.59,0,0,1-1.4-3.553,5.214,5.214,0,0,1,3.553-2.477,9.8,9.8,0,0,1,8.769,2.134c.614-2.533,4.224-3.626,6.822-2.64,3.05,1.16,3.629,3.911,5.84,5.772C-980.227,593.3-976.385,593.083-973.681,594.279Z" transform="translate(1013.807 -585.291)" fill="#fff"/>
                <path id="패스_1894" data-name="패스 1894" d="M-995.988,589.687c.656.191,1.417.558,1.428,1.194s-.768,1.034-1.434,1.247a20.553,20.553,0,0,1-9.258,1.05,3.664,3.664,0,0,1-1.341-.409,1.3,1.3,0,0,1-.7-1.08,1.805,1.805,0,0,1,.32-.853c1.084-1.805,2.373-1.853,4.412-1.941A20.464,20.464,0,0,1-995.988,589.687Z" transform="translate(1021.031 -581.732)" fill="#e7a328"/>
              </g>
              <path id="패스_1895" data-name="패스 1895" d="M-1154.567,648.242c0,1.931,3.851,3.5,8.6,3.5s8.6-1.566,8.6-3.5-3.851-3.5-8.6-3.5S-1154.567,646.309-1154.567,648.242Z" transform="translate(1554.835 -486.115)" fill="#fff"/>
              <path id="패스_1896" data-name="패스 1896" d="M-1154.567,587.206c0,1.933,3.851,3.5,8.6,3.5s8.6-1.566,8.6-3.5-3.851-3.5-8.6-3.5S-1154.567,585.275-1154.567,587.206Z" transform="translate(1554.835 -546.691)" fill="#fff"/>
              <path id="패스_1897" data-name="패스 1897" d="M-1273.027,638.237c0,1.931,3.851,3.5,8.6,3.5s8.6-1.568,8.6-3.5-3.851-3.5-8.6-3.5S-1273.027,636.3-1273.027,638.237Z" transform="translate(1423.475 -496.043)" fill="#fff"/>
              <path id="패스_1898" data-name="패스 1898" d="M-802.45,618.069c0,1.933,3.851,3.5,8.6,3.5s8.6-1.566,8.6-3.5-3.849-3.5-8.6-3.5S-802.45,616.138-802.45,618.069Z" transform="translate(1945.297 -516.06)" fill="#fff"/>
              <path id="패스_1899" data-name="패스 1899" d="M-802.45,618.069c0,1.933,3.851,3.5,8.6,3.5s8.6-1.566,8.6-3.5-3.849-3.5-8.6-3.5S-802.45,616.138-802.45,618.069Z" transform="translate(1788.297 -551.018)" fill="#fff"/>
              <path id="패스_1900" data-name="패스 1900" d="M-802.45,618.069c0,1.933,3.851,3.5,8.6,3.5s8.6-1.566,8.6-3.5-3.849-3.5-8.6-3.5S-802.45,616.138-802.45,618.069Z" transform="translate(1788.297 -314.816)" fill="#fff"/>
            </g>
          </g>
          <g id="그룹_982" data-name="그룹 982" transform="translate(584.276 332.539)" opacity="0.59" style="mix-blend-mode: multiply;isolation: isolate">
            <path id="패스_1901" data-name="패스 1901" d="M-1037.5,721.587c2.164.753,4.553,2.2,3.91,3.893-.491,1.3-2.524,1.891-4.332,2.118-6.428.809-12.976-.642-19.014-2.455-1.331-.4-2.792-.924-3.252-1.925C-1063.432,716.156-1040.16,720.663-1037.5,721.587Z" transform="translate(1080.19 -719.32)" fill="#94af3f"/>
            <path id="패스_1902" data-name="패스 1902" d="M-1019.378,730.561c2.164.753,4.553,2.2,3.91,3.893-.493,1.3-2.524,1.891-4.332,2.118-6.428.809-12.976-.644-19.014-2.455-1.331-.4-2.792-.925-3.252-1.925C-1045.309,725.129-1022.035,729.636-1019.378,730.561Z" transform="translate(1100.289 -710.414)" fill="#94af3f"/>
            <g id="그룹_981" data-name="그룹 981" transform="translate(0 17.879)">
              <path id="패스_1903" data-name="패스 1903" d="M-1046.84,730.561c2.164.753,4.553,2.2,3.91,3.893-.494,1.3-2.524,1.891-4.332,2.118-6.428.809-12.976-.644-19.014-2.455-1.331-.4-2.792-.925-3.252-1.925C-1072.769,725.129-1049.5,729.636-1046.84,730.561Z" transform="translate(1069.836 -728.293)" fill="#94af3f"/>
            </g>
          </g>
          <g id="그룹_983" data-name="그룹 983" transform="translate(419.413 485.001)" opacity="0.59" style="mix-blend-mode: multiply;isolation: isolate">
            <path id="패스_1904" data-name="패스 1904" d="M-1115.678,798.105c2.164.753,4.553,2.2,3.91,3.893-.491,1.3-2.524,1.891-4.332,2.118-6.428.809-12.976-.644-19.014-2.455-1.331-.4-2.792-.924-3.252-1.925C-1141.607,792.674-1118.335,797.181-1115.678,798.105Z" transform="translate(1158.365 -795.838)" fill="#94af3f"/>
            <path id="패스_1905" data-name="패스 1905" d="M-1097.553,807.079c2.164.753,4.553,2.2,3.91,3.893-.491,1.3-2.524,1.891-4.332,2.118-6.428.809-12.976-.644-19.014-2.457-1.331-.4-2.792-.922-3.252-1.925C-1123.482,801.648-1100.21,806.152-1097.553,807.079Z" transform="translate(1178.464 -786.933)" fill="#94af3f"/>
            <path id="패스_1906" data-name="패스 1906" d="M-1125.015,807.079c2.164.753,4.553,2.2,3.91,3.893-.491,1.3-2.524,1.891-4.332,2.118-6.428.809-12.976-.644-19.014-2.457-1.331-.4-2.792-.922-3.252-1.925C-1150.944,801.648-1127.672,806.152-1125.015,807.079Z" transform="translate(1148.011 -786.933)" fill="#94af3f"/>
          </g>
          <g id="그룹_984" data-name="그룹 984" transform="translate(363.507 266.362)" opacity="0.59" style="mix-blend-mode: multiply;isolation: isolate">
            <path id="패스_1907" data-name="패스 1907" d="M-1152.537,686.629c1.594.363,3.41,1.193,3.113,2.439-.228.952-1.6,1.53-2.857,1.831-4.456,1.074-9.205.564-13.626-.241a3.7,3.7,0,0,1-2.468-1.1C-1171.308,684.834-1154.494,686.187-1152.537,686.629Z" transform="translate(1180.957 -686.107)" fill="#94af3f"/>
            <path id="패스_1908" data-name="패스 1908" d="M-1138.987,691.449c1.594.362,3.41,1.193,3.113,2.439-.228.954-1.6,1.53-2.857,1.833-4.458,1.074-9.205.562-13.625-.241a3.7,3.7,0,0,1-2.468-1.1C-1157.758,689.654-1140.944,691.007-1138.987,691.449Z" transform="translate(1195.982 -681.323)" fill="#94af3f"/>
            <path id="패스_1909" data-name="패스 1909" d="M-1158.339,693.727c1.594.361,3.41,1.193,3.113,2.439-.23.952-1.607,1.53-2.86,1.831-4.456,1.074-9.2.564-13.625-.241a3.7,3.7,0,0,1-2.468-1.1C-1177.11,691.932-1160.3,693.285-1158.339,693.727Z" transform="translate(1174.521 -679.062)" fill="#94af3f"/>
          </g>
          <path id="패스_1910" data-name="패스 1910" d="M-694.391,728.52c1.594.363,3.408,1.194,3.111,2.439-.228.954-1.6,1.53-2.858,1.831-4.456,1.074-9.2.564-13.626-.239a3.7,3.7,0,0,1-2.467-1.1C-713.162,726.725-696.348,728.078-694.391,728.52Z" transform="translate(2052.499 -378.168)" fill="#94af3f" opacity="0.44" style="mix-blend-mode: multiply;isolation: isolate"/>
          <g id="그룹_985" data-name="그룹 985" transform="translate(408.303 368.108)">
            <path id="패스_1911" data-name="패스 1911" d="M-1106.06,747.749a5.011,5.011,0,0,1,2.1,1.458,1.749,1.749,0,0,1-.055,2.271,3.112,3.112,0,0,1-1.858.6,70.714,70.714,0,0,1-9.393.261,9.987,9.987,0,0,1,1.158,5.493,2.6,2.6,0,0,1-.544,1.582,2.976,2.976,0,0,1-2.282.717c-4.022-.084-7.3-2.865-10.167-5.477a9.059,9.059,0,0,1-4.2,4.8,6.888,6.888,0,0,1-6.5-.064,4.319,4.319,0,0,1-1.8-5.529,15.528,15.528,0,0,1-12-.805,3.384,3.384,0,0,1-1.421-1.146c-.941-1.578.949-3.306,2.664-4.16a39.506,39.506,0,0,1,6.223-2.467,3.051,3.051,0,0,1-1.645-4.182,6.144,6.144,0,0,1,4.18-2.915,11.534,11.534,0,0,1,10.321,2.513c.721-2.981,4.97-4.27,8.026-3.108,3.591,1.365,4.272,4.6,6.873,6.793C-1113.764,746.6-1109.242,746.342-1106.06,747.749Z" transform="translate(1153.28 -737.171)" fill="#fff"/>
            <path id="패스_1912" data-name="패스 1912" d="M-1132.31,742.344c.77.225,1.666.655,1.679,1.4.012.765-.9,1.217-1.687,1.468a24.217,24.217,0,0,1-10.895,1.235,4.338,4.338,0,0,1-1.578-.48,1.535,1.535,0,0,1-.823-1.273,2.114,2.114,0,0,1,.378-1c1.276-2.126,2.792-2.182,5.192-2.285A24.041,24.041,0,0,1-1132.31,742.344Z" transform="translate(1161.781 -732.982)" fill="#e7a328"/>
          </g>
          <path id="패스_1913" data-name="패스 1913" d="M-1078.8,771.591c0,2.273,4.53,4.116,10.118,4.116s10.119-1.843,10.119-4.116-4.53-4.119-10.119-4.119S-1078.8,769.315-1078.8,771.591Z" transform="translate(1644.172 -338.99)" fill="#fff"/>
          <path id="패스_1914" data-name="패스 1914" d="M-763.969,836.664c0,2.273,4.53,4.119,10.118,4.119s10.119-1.845,10.119-4.119-4.53-4.117-10.119-4.117S-763.969,834.391-763.969,836.664Z" transform="translate(1898.288 -457.818)" fill="#fff"/>
          <path id="패스_1915" data-name="패스 1915" d="M-1078.8,699.767c0,2.273,4.53,4.119,10.118,4.119s10.119-1.845,10.119-4.119-4.53-4.116-10.119-4.116S-1078.8,697.494-1078.8,699.767Z" transform="translate(1644.172 -410.272)" fill="#fff"/>
          <path id="패스_1916" data-name="패스 1916" d="M-748.959,759.818c0,2.273,4.532,4.116,10.119,4.116s10.119-1.843,10.119-4.116-4.53-4.119-10.119-4.119S-748.959,757.543-748.959,759.818Z" transform="translate(2210.933 -342.17)" fill="#fff"/>
          <path id="패스_1917" data-name="패스 1917" d="M-803.673,670.375c0,2.274,4.53,4.117,10.118,4.117s10.118-1.843,10.118-4.117-4.53-4.118-10.118-4.118S-803.673,668.1-803.673,670.375Z" transform="translate(1949.261 -439.446)" fill="#fff"/>
          <path id="패스_1918" data-name="패스 1918" d="M-803.673,670.375c0,2.274,4.53,4.117,10.118,4.117s10.118-1.843,10.118-4.117-4.53-4.118-10.118-4.118S-803.673,668.1-803.673,670.375Z" transform="translate(2130.261 -427.163)" fill="#fff"/>
        </g>
        <g id="그룹_1011" data-name="그룹 1011" transform="translate(20.595 4562.635)">
          <g id="그룹_1006" data-name="그룹 1006" transform="translate(0 0)">
            <g id="그룹_988" data-name="그룹 988" transform="translate(785.279 61.914)">
              <g id="그룹_987" data-name="그룹 987">
                <path id="패스_1919" data-name="패스 1919" d="M1535.413,903.353v477.118H243.793V1081.225c12.567-5.29,28.434-11.826,47.163-19.333.331-.12.681-.257,1.014-.392,15.941-6.366,33.913-13.414,53.676-20.937.35-.138.719-.273,1.088-.41q9.854-3.763,20.279-7.661c.5-.171.979-.359,1.476-.546q14.393-5.377,29.837-10.989c.331-.119.664-.239,1-.376q16.108-5.834,33.232-11.875,17.1-6.016,35.151-12.184c.59-.187,1.162-.393,1.753-.6,20.518-6.978,41.9-14.043,63.99-21.091q9.882-3.147,19.946-6.3c171.675-53.63,382.5-104.413,570.545-106.8q37-.46,71.538.291c35.813.767,69.636,2.439,101.5,4.828C1394.386,874.139,1473.525,888.114,1535.413,903.353Z" transform="translate(-243.793 -861.56)" fill="#6eac51"/>
                <path id="패스_1920" data-name="패스 1920" d="M1096.223,862.024c-222.934,26.022-435.35,109.311-627.157,218.193-6.034,3.431-12.915,7.032-19.8,5.5-3.45-.767-6.419-2.748-9.281-4.692Q386.653,1044.88,333.3,1008.7c37.161-13.089,77.774-26.721,120.84-40.169,171.675-53.63,382.5-104.413,570.545-106.8Q1061.69,861.273,1096.223,862.024Z" transform="translate(-144.539 -861.56)" fill="#c0dfa1" opacity="0.27" style="mix-blend-mode: screen;isolation: isolate"/>
              </g>
              <path id="패스_1921" data-name="패스 1921" d="M1124.251,900.716v223.3a586.388,586.388,0,0,1-261.885,26.4c-89.27-11.4-175.311-43.835-247.789-93.337,35.225-34.5,71.557-68.086,111.135-98.236a808.153,808.153,0,0,1,160.105-94.62C983.225,871.5,1062.363,885.478,1124.251,900.716Z" transform="translate(167.369 -858.924)" fill="#c0dfa1" opacity="0.34" style="mix-blend-mode: multiply;isolation: isolate"/>
            </g>
            <g id="그룹_1005" data-name="그룹 1005">
              <g id="그룹_996" data-name="그룹 996" transform="translate(95.802 79.251)">
                <g id="그룹_989" data-name="그룹 989" transform="translate(1636 52.798)" opacity="0.59" style="mix-blend-mode: multiply;isolation: isolate">
                  <path id="패스_1922" data-name="패스 1922" d="M705.5,898.08c-1.259.438-2.649,1.279-2.273,2.266.285.755,1.468,1.1,2.52,1.233,3.741.47,7.552-.375,11.065-1.429.776-.233,1.626-.538,1.892-1.122C720.592,894.917,707.049,897.542,705.5,898.08Z" transform="translate(-680.919 -896.759)" fill="#c0dfa1"/>
                  <path id="패스_1923" data-name="패스 1923" d="M694.954,903.3c-1.259.438-2.649,1.279-2.276,2.266.287.757,1.47,1.1,2.52,1.233,3.741.47,7.552-.375,11.067-1.429.774-.233,1.624-.538,1.892-1.122C710.045,900.141,696.5,902.763,694.954,903.3Z" transform="translate(-692.617 -891.576)" fill="#c0dfa1"/>
                  <path id="패스_1924" data-name="패스 1924" d="M710.937,903.3c-1.261.438-2.651,1.279-2.275,2.266.287.757,1.468,1.1,2.52,1.233,3.741.47,7.552-.375,11.065-1.429.776-.233,1.626-.538,1.892-1.122C726.026,900.141,712.483,902.763,710.937,903.3Z" transform="translate(-674.894 -891.576)" fill="#c0e270"/>
                </g>
                <g id="그룹_990" data-name="그룹 990" transform="translate(581 106.107)" opacity="0.59" style="mix-blend-mode: multiply;isolation: isolate">
                  <path id="패스_1925" data-name="패스 1925" d="M705.5,898.08c-1.259.438-2.649,1.279-2.273,2.266.285.755,1.468,1.1,2.52,1.233,3.741.47,7.552-.375,11.065-1.429.776-.233,1.626-.538,1.892-1.122C720.592,894.917,707.049,897.542,705.5,898.08Z" transform="translate(-680.919 -896.759)" fill="#c0dfa1"/>
                  <path id="패스_1926" data-name="패스 1926" d="M694.954,903.3c-1.259.438-2.649,1.279-2.276,2.266.287.757,1.47,1.1,2.52,1.233,3.741.47,7.552-.375,11.067-1.429.774-.233,1.624-.538,1.892-1.122C710.045,900.141,696.5,902.763,694.954,903.3Z" transform="translate(-692.617 -891.576)" fill="#c0dfa1"/>
                  <path id="패스_1927" data-name="패스 1927" d="M710.937,903.3c-1.261.438-2.651,1.279-2.275,2.266.287.757,1.468,1.1,2.52,1.233,3.741.47,7.552-.375,11.065-1.429.776-.233,1.626-.538,1.892-1.122C726.026,900.141,712.483,902.763,710.937,903.3Z" transform="translate(-674.894 -891.576)" fill="#c0e270"/>
                </g>
                <g id="그룹_991" data-name="그룹 991" transform="translate(0 102.962)" opacity="0.59" style="mix-blend-mode: multiply;isolation: isolate">
                  <path id="패스_1928" data-name="패스 1928" d="M705.5,898.08c-1.259.438-2.649,1.279-2.273,2.266.285.755,1.468,1.1,2.52,1.233,3.741.47,7.552-.375,11.065-1.429.776-.233,1.626-.538,1.892-1.122C720.592,894.917,707.049,897.542,705.5,898.08Z" transform="translate(-680.919 -896.759)" fill="#c0dfa1"/>
                  <path id="패스_1929" data-name="패스 1929" d="M694.954,903.3c-1.259.438-2.649,1.279-2.276,2.266.287.757,1.47,1.1,2.52,1.233,3.741.47,7.552-.375,11.067-1.429.774-.233,1.624-.538,1.892-1.122C710.045,900.141,696.5,902.763,694.954,903.3Z" transform="translate(-692.617 -891.576)" fill="#c0dfa1"/>
                  <path id="패스_1930" data-name="패스 1930" d="M710.937,903.3c-1.261.438-2.651,1.279-2.275,2.266.287.757,1.468,1.1,2.52,1.233,3.741.47,7.552-.375,11.065-1.429.776-.233,1.626-.538,1.892-1.122C726.026,900.141,712.483,902.763,710.937,903.3Z" transform="translate(-674.894 -891.576)" fill="#c0e270"/>
                </g>
                <g id="그룹_992" data-name="그룹 992" transform="translate(1480.877 58.017)" opacity="0.59" style="mix-blend-mode: multiply;isolation: isolate">
                  <path id="패스_1931" data-name="패스 1931" d="M628.545,900.041c-.917.273-1.944.833-1.713,1.55.177.552,1.01.835,1.759.964a19.591,19.591,0,0,0,7.98-.674c.563-.141,1.183-.333,1.4-.743C639.473,898.255,629.673,899.7,628.545,900.041Z" transform="translate(-610.478 -899.379)" fill="#c0dfa1"/>
                  <path id="패스_1932" data-name="패스 1932" d="M620.806,903.427c-.917.275-1.944.833-1.713,1.552.177.55,1.01.835,1.759.962a19.518,19.518,0,0,0,7.98-.673c.563-.141,1.183-.333,1.4-.741C631.734,901.641,621.934,903.09,620.806,903.427Z" transform="translate(-619.06 -896.018)" fill="#c0dfa1"/>
                  <path id="패스_1933" data-name="패스 1933" d="M632.256,903.964c-.919.273-1.946.833-1.714,1.55.177.552,1.012.835,1.761.964a19.547,19.547,0,0,0,7.978-.674c.565-.141,1.185-.333,1.4-.743C643.182,902.178,633.384,903.627,632.256,903.964Z" transform="translate(-606.366 -895.485)" fill="#c0e270"/>
                </g>
                <g id="그룹_993" data-name="그룹 993" transform="translate(1418.14)" opacity="0.59" style="mix-blend-mode: multiply;isolation: isolate">
                  <path id="패스_1934" data-name="패스 1934" d="M598.8,870.922c-.917.275-1.945.833-1.713,1.552.177.55,1.01.835,1.759.962a19.522,19.522,0,0,0,7.98-.673c.563-.142,1.183-.333,1.4-.741C609.725,869.137,599.925,870.586,598.8,870.922Z" transform="translate(-580.729 -870.261)" fill="#c0dfa1"/>
                  <path id="패스_1935" data-name="패스 1935" d="M591.059,874.31c-.917.273-1.944.833-1.714,1.55.177.55,1.012.835,1.761.964a19.594,19.594,0,0,0,7.98-.674c.563-.141,1.183-.335,1.4-.743C601.987,872.524,592.187,873.973,591.059,874.31Z" transform="translate(-589.312 -866.899)" fill="#c0dfa1"/>
                  <path id="패스_1936" data-name="패스 1936" d="M602.508,874.845c-.919.275-1.946.833-1.714,1.552.177.55,1.012.835,1.759.962a19.555,19.555,0,0,0,7.98-.672c.565-.143,1.185-.335,1.4-.743C613.434,873.06,603.634,874.51,602.508,874.845Z" transform="translate(-576.616 -866.367)" fill="#c0dfa1"/>
                </g>
                <g id="그룹_994" data-name="그룹 994" transform="translate(1731.948 141.53)" opacity="0.59" style="mix-blend-mode: multiply;isolation: isolate">
                  <path id="패스_1937" data-name="패스 1937" d="M751,942.613c-1.261.438-2.651,1.279-2.275,2.265.287.755,1.468,1.1,2.52,1.233,3.741.47,7.552-.375,11.065-1.431.776-.231,1.626-.536,1.894-1.12C766.092,939.451,752.546,942.073,751,942.613Z" transform="translate(-726.416 -941.292)" fill="#c0dfa1"/>
                  <path id="패스_1938" data-name="패스 1938" d="M740.451,947.835c-1.259.438-2.649,1.279-2.275,2.266.287.755,1.47,1.1,2.52,1.233,3.741.47,7.554-.374,11.068-1.43.774-.231,1.624-.536,1.892-1.12C755.542,944.673,742,947.3,740.451,947.835Z" transform="translate(-738.114 -936.109)" fill="#c0dfa1"/>
                  <path id="패스_1939" data-name="패스 1939" d="M756.434,947.835c-1.259.438-2.651,1.279-2.276,2.266.287.755,1.468,1.1,2.52,1.233,3.741.47,7.552-.374,11.065-1.43.776-.231,1.626-.536,1.894-1.12C771.526,944.673,757.98,947.3,756.434,947.835Z" transform="translate(-720.39 -936.109)" fill="#c0dfa1"/>
                </g>
                <g id="그룹_995" data-name="그룹 995" transform="translate(1778.912 14.284)" opacity="0.59" style="mix-blend-mode: multiply;isolation: isolate">
                  <path id="패스_1940" data-name="패스 1940" d="M770.1,877.733c-.926.211-1.984.7-1.809,1.421.133.554.934.891,1.662,1.066a19.4,19.4,0,0,0,7.929-.142,2.145,2.145,0,0,0,1.436-.639C781.024,876.689,771.236,877.476,770.1,877.733Z" transform="translate(-751.638 -877.43)" fill="#c0dfa1"/>
                  <path id="패스_1941" data-name="패스 1941" d="M762.211,880.54c-.928.209-1.984.693-1.809,1.419.131.554.934.891,1.662,1.066a19.368,19.368,0,0,0,7.929-.14c.567-.1,1.2-.251,1.436-.642C773.138,879.494,763.352,880.281,762.211,880.54Z" transform="translate(-760.383 -874.646)" fill="#c0dfa1"/>
                  <path id="패스_1942" data-name="패스 1942" d="M773.476,881.864c-.928.211-1.984.7-1.811,1.421.133.554.934.889,1.664,1.066a19.4,19.4,0,0,0,7.93-.141,2.15,2.15,0,0,0,1.436-.642C784.4,880.82,774.615,881.607,773.476,881.864Z" transform="translate(-747.893 -873.33)" fill="#c0dfa1"/>
                </g>
                <path id="패스_1943" data-name="패스 1943" d="M815.816,906.4c-.926.209-1.982.693-1.809,1.419.133.554.934.891,1.662,1.066a19.376,19.376,0,0,0,7.932-.139,2.159,2.159,0,0,0,1.436-.642C826.742,905.351,816.957,906.138,815.816,906.4Z" transform="translate(1077.972 -834.698)" fill="#c0dfa1" opacity="0.44" style="mix-blend-mode: multiply;isolation: isolate"/>
                <path id="패스_1944" data-name="패스 1944" d="M503.462,902.115c-.928.209-1.984.693-1.812,1.419.133.554.934.891,1.664,1.066a19.368,19.368,0,0,0,7.929-.139,2.16,2.16,0,0,0,1.436-.642C514.386,901.069,504.6,901.856,503.462,902.115Z" transform="translate(731.601 -838.948)" fill="#c0dfa1" opacity="0.44" style="mix-blend-mode: multiply;isolation: isolate"/>
                <path id="패스_1945" data-name="패스 1945" d="M847.753,890.552c-.928.211-1.985.7-1.812,1.421.133.554.934.89,1.664,1.066a19.4,19.4,0,0,0,7.929-.141,2.15,2.15,0,0,0,1.436-.64C858.677,889.508,848.892,890.295,847.753,890.552Z" transform="translate(1113.385 -850.423)" fill="#c0dfa1" opacity="0.44" style="mix-blend-mode: multiply;isolation: isolate"/>
                <path id="패스_1946" data-name="패스 1946" d="M807.5,929.948c-.926.209-1.982.693-1.81,1.419.133.554.934.891,1.664,1.066a19.372,19.372,0,0,0,7.93-.139,2.16,2.16,0,0,0,1.436-.642C818.43,928.9,808.645,929.689,807.5,929.948Z" transform="translate(1068.755 -811.324)" fill="#c0dfa1" opacity="0.44" style="mix-blend-mode: multiply;isolation: isolate"/>
              </g>
              <g id="그룹_997" data-name="그룹 997" transform="translate(1854.711 152.751)">
                <path id="패스_1947" data-name="패스 1947" d="M752.349,913.305a2.9,2.9,0,0,0-1.223.849,1.016,1.016,0,0,0,.032,1.321,1.8,1.8,0,0,0,1.082.349,41.407,41.407,0,0,0,5.466.153,5.82,5.82,0,0,0-.675,3.2,1.528,1.528,0,0,0,.316.92,1.72,1.72,0,0,0,1.329.416c2.341-.048,4.249-1.666,5.918-3.186a5.268,5.268,0,0,0,2.446,2.8,4.013,4.013,0,0,0,3.783-.038,2.512,2.512,0,0,0,1.048-3.218,9.036,9.036,0,0,0,6.987-.468,1.975,1.975,0,0,0,.827-.667c.546-.919-.552-1.923-1.55-2.421a23.37,23.37,0,0,0-3.621-1.437,1.775,1.775,0,0,0,.957-2.433,3.577,3.577,0,0,0-2.434-1.7,6.708,6.708,0,0,0-6.006,1.463c-.422-1.736-2.893-2.485-4.671-1.809-2.09.793-2.486,2.678-4,3.953S754.2,912.484,752.349,913.305Z" transform="translate(-750.898 -907.149)" fill="#fff"/>
                <path id="패스_1948" data-name="패스 1948" d="M757,910.16c-.449.13-.97.381-.976.817s.525.709.981.855a14.122,14.122,0,0,0,6.341.717,2.5,2.5,0,0,0,.92-.279.892.892,0,0,0,.477-.739,1.216,1.216,0,0,0-.219-.584c-.742-1.237-1.624-1.269-3.022-1.329A13.939,13.939,0,0,0,757,910.16Z" transform="translate(-745.217 -904.712)" fill="#e7a328"/>
              </g>
              <g id="그룹_998" data-name="그룹 998" transform="translate(492.711 113.476)">
                <path id="패스_1949" data-name="패스 1949" d="M752.349,913.305a2.9,2.9,0,0,0-1.223.849,1.016,1.016,0,0,0,.032,1.321,1.8,1.8,0,0,0,1.082.349,41.407,41.407,0,0,0,5.466.153,5.82,5.82,0,0,0-.675,3.2,1.528,1.528,0,0,0,.316.92,1.72,1.72,0,0,0,1.329.416c2.341-.048,4.249-1.666,5.918-3.186a5.268,5.268,0,0,0,2.446,2.8,4.013,4.013,0,0,0,3.783-.038,2.512,2.512,0,0,0,1.048-3.218,9.036,9.036,0,0,0,6.987-.468,1.975,1.975,0,0,0,.827-.667c.546-.919-.552-1.923-1.55-2.421a23.37,23.37,0,0,0-3.621-1.437,1.775,1.775,0,0,0,.957-2.433,3.577,3.577,0,0,0-2.434-1.7,6.708,6.708,0,0,0-6.006,1.463c-.422-1.736-2.893-2.485-4.671-1.809-2.09.793-2.486,2.678-4,3.953S754.2,912.484,752.349,913.305Z" transform="translate(-750.898 -907.149)" fill="#fff"/>
                <path id="패스_1950" data-name="패스 1950" d="M757,910.16c-.449.13-.97.381-.976.817s.525.709.981.855a14.122,14.122,0,0,0,6.341.717,2.5,2.5,0,0,0,.92-.279.892.892,0,0,0,.477-.739,1.216,1.216,0,0,0-.219-.584c-.742-1.237-1.624-1.269-3.022-1.329A13.939,13.939,0,0,0,757,910.16Z" transform="translate(-745.217 -904.712)" fill="#e7a328"/>
              </g>
              <g id="그룹_999" data-name="그룹 999" transform="translate(631.711 140.005)">
                <path id="패스_1951" data-name="패스 1951" d="M752.349,913.305a2.9,2.9,0,0,0-1.223.849,1.016,1.016,0,0,0,.032,1.321,1.8,1.8,0,0,0,1.082.349,41.407,41.407,0,0,0,5.466.153,5.82,5.82,0,0,0-.675,3.2,1.528,1.528,0,0,0,.316.92,1.72,1.72,0,0,0,1.329.416c2.341-.048,4.249-1.666,5.918-3.186a5.268,5.268,0,0,0,2.446,2.8,4.013,4.013,0,0,0,3.783-.038,2.512,2.512,0,0,0,1.048-3.218,9.036,9.036,0,0,0,6.987-.468,1.975,1.975,0,0,0,.827-.667c.546-.919-.552-1.923-1.55-2.421a23.37,23.37,0,0,0-3.621-1.437,1.775,1.775,0,0,0,.957-2.433,3.577,3.577,0,0,0-2.434-1.7,6.708,6.708,0,0,0-6.006,1.463c-.422-1.736-2.893-2.485-4.671-1.809-2.09.793-2.486,2.678-4,3.953S754.2,912.484,752.349,913.305Z" transform="translate(-750.898 -907.149)" fill="#fff"/>
                <path id="패스_1952" data-name="패스 1952" d="M757,910.16c-.449.13-.97.381-.976.817s.525.709.981.855a14.122,14.122,0,0,0,6.341.717,2.5,2.5,0,0,0,.92-.279.892.892,0,0,0,.477-.739,1.216,1.216,0,0,0-.219-.584c-.742-1.237-1.624-1.269-3.022-1.329A13.939,13.939,0,0,0,757,910.16Z" transform="translate(-745.217 -904.712)" fill="#e7a328"/>
              </g>
              <g id="그룹_1000" data-name="그룹 1000" transform="translate(590.711 222.713)">
                <path id="패스_1953" data-name="패스 1953" d="M752.349,913.305a2.9,2.9,0,0,0-1.223.849,1.016,1.016,0,0,0,.032,1.321,1.8,1.8,0,0,0,1.082.349,41.407,41.407,0,0,0,5.466.153,5.82,5.82,0,0,0-.675,3.2,1.528,1.528,0,0,0,.316.92,1.72,1.72,0,0,0,1.329.416c2.341-.048,4.249-1.666,5.918-3.186a5.268,5.268,0,0,0,2.446,2.8,4.013,4.013,0,0,0,3.783-.038,2.512,2.512,0,0,0,1.048-3.218,9.036,9.036,0,0,0,6.987-.468,1.975,1.975,0,0,0,.827-.667c.546-.919-.552-1.923-1.55-2.421a23.37,23.37,0,0,0-3.621-1.437,1.775,1.775,0,0,0,.957-2.433,3.577,3.577,0,0,0-2.434-1.7,6.708,6.708,0,0,0-6.006,1.463c-.422-1.736-2.893-2.485-4.671-1.809-2.09.793-2.486,2.678-4,3.953S754.2,912.484,752.349,913.305Z" transform="translate(-750.898 -907.149)" fill="#fff"/>
                <path id="패스_1954" data-name="패스 1954" d="M757,910.16c-.449.13-.97.381-.976.817s.525.709.981.855a14.122,14.122,0,0,0,6.341.717,2.5,2.5,0,0,0,.92-.279.892.892,0,0,0,.477-.739,1.216,1.216,0,0,0-.219-.584c-.742-1.237-1.624-1.269-3.022-1.329A13.939,13.939,0,0,0,757,910.16Z" transform="translate(-745.217 -904.712)" fill="#e7a328"/>
              </g>
              <g id="그룹_1001" data-name="그룹 1001" transform="translate(1645.673 185.992)">
                <path id="패스_1955" data-name="패스 1955" d="M653.227,929.988a2.91,2.91,0,0,0-1.223.849,1.016,1.016,0,0,0,.032,1.321,1.8,1.8,0,0,0,1.082.349,41.377,41.377,0,0,0,5.466.154,5.819,5.819,0,0,0-.673,3.2,1.5,1.5,0,0,0,.316.921,1.723,1.723,0,0,0,1.326.418c2.341-.05,4.249-1.668,5.918-3.188a5.279,5.279,0,0,0,2.446,2.8,4.012,4.012,0,0,0,3.783-.036,2.515,2.515,0,0,0,1.048-3.22,9.025,9.025,0,0,0,6.987-.468,1.977,1.977,0,0,0,.827-.668c.548-.917-.553-1.923-1.55-2.419a22.9,22.9,0,0,0-3.621-1.437,1.778,1.778,0,0,0,.957-2.435,3.577,3.577,0,0,0-2.434-1.7,6.708,6.708,0,0,0-6.006,1.463c-.42-1.736-2.893-2.485-4.671-1.809-2.09.793-2.486,2.678-4,3.953S655.081,929.169,653.227,929.988Z" transform="translate(-651.776 -923.832)" fill="#fff"/>
                <path id="패스_1956" data-name="패스 1956" d="M657.875,926.843c-.447.131-.968.38-.976.817s.525.709.983.855a14.081,14.081,0,0,0,6.339.719,2.534,2.534,0,0,0,.92-.281.9.9,0,0,0,.479-.739,1.257,1.257,0,0,0-.221-.584c-.742-1.237-1.624-1.269-3.02-1.329A13.944,13.944,0,0,0,657.875,926.843Z" transform="translate(-646.095 -921.395)" fill="#e7a328"/>
              </g>
              <g id="그룹_1002" data-name="그룹 1002" transform="translate(1560 106.763)">
                <path id="패스_1957" data-name="패스 1957" d="M612.6,890.224a2.934,2.934,0,0,0-1.225.849,1.019,1.019,0,0,0,.034,1.323,1.792,1.792,0,0,0,1.08.349,41.4,41.4,0,0,0,5.468.151,5.813,5.813,0,0,0-.675,3.2,1.5,1.5,0,0,0,.316.92,1.733,1.733,0,0,0,1.329.416c2.341-.048,4.249-1.668,5.915-3.186a5.282,5.282,0,0,0,2.448,2.8,4.008,4.008,0,0,0,3.781-.038,2.515,2.515,0,0,0,1.05-3.218,9.03,9.03,0,0,0,6.985-.468,1.971,1.971,0,0,0,.829-.668c.546-.919-.553-1.923-1.55-2.421a23.145,23.145,0,0,0-3.623-1.436,1.774,1.774,0,0,0,.957-2.433,3.569,3.569,0,0,0-2.434-1.7,6.715,6.715,0,0,0-6,1.462c-.422-1.733-2.893-2.485-4.673-1.807-2.088.793-2.486,2.678-4,3.951S614.455,889.4,612.6,890.224Z" transform="translate(-611.151 -884.069)" fill="#fff"/>
                <path id="패스_1958" data-name="패스 1958" d="M617.253,887.078c-.449.132-.97.383-.979.819s.527.707.983.853a14.089,14.089,0,0,0,6.342.719,2.478,2.478,0,0,0,.917-.279.9.9,0,0,0,.479-.741,1.239,1.239,0,0,0-.219-.582c-.742-1.237-1.626-1.269-3.022-1.329A14,14,0,0,0,617.253,887.078Z" transform="translate(-605.471 -881.631)" fill="#e7a328"/>
              </g>
              <g id="그룹_1003" data-name="그룹 1003" transform="translate(85)">
                <path id="패스_1959" data-name="패스 1959" d="M612.6,890.224a2.934,2.934,0,0,0-1.225.849,1.019,1.019,0,0,0,.034,1.323,1.792,1.792,0,0,0,1.08.349,41.4,41.4,0,0,0,5.468.151,5.813,5.813,0,0,0-.675,3.2,1.5,1.5,0,0,0,.316.92,1.733,1.733,0,0,0,1.329.416c2.341-.048,4.249-1.668,5.915-3.186a5.282,5.282,0,0,0,2.448,2.8,4.008,4.008,0,0,0,3.781-.038,2.515,2.515,0,0,0,1.05-3.218,9.03,9.03,0,0,0,6.985-.468,1.971,1.971,0,0,0,.829-.668c.546-.919-.553-1.923-1.55-2.421a23.145,23.145,0,0,0-3.623-1.436,1.774,1.774,0,0,0,.957-2.433,3.569,3.569,0,0,0-2.434-1.7,6.715,6.715,0,0,0-6,1.462c-.422-1.733-2.893-2.485-4.673-1.807-2.088.793-2.486,2.678-4,3.951S614.455,889.4,612.6,890.224Z" transform="translate(-611.151 -884.069)" fill="#fff"/>
                <path id="패스_1960" data-name="패스 1960" d="M617.253,887.078c-.449.132-.97.383-.979.819s.527.707.983.853a14.089,14.089,0,0,0,6.342.719,2.478,2.478,0,0,0,.917-.279.9.9,0,0,0,.479-.741,1.239,1.239,0,0,0-.219-.582c-.742-1.237-1.626-1.269-3.022-1.329A14,14,0,0,0,617.253,887.078Z" transform="translate(-605.471 -881.631)" fill="#e7a328"/>
              </g>
              <g id="그룹_1004" data-name="그룹 1004" transform="translate(0 146.717)">
                <path id="패스_1961" data-name="패스 1961" d="M612.6,890.224a2.934,2.934,0,0,0-1.225.849,1.019,1.019,0,0,0,.034,1.323,1.792,1.792,0,0,0,1.08.349,41.4,41.4,0,0,0,5.468.151,5.813,5.813,0,0,0-.675,3.2,1.5,1.5,0,0,0,.316.92,1.733,1.733,0,0,0,1.329.416c2.341-.048,4.249-1.668,5.915-3.186a5.282,5.282,0,0,0,2.448,2.8,4.008,4.008,0,0,0,3.781-.038,2.515,2.515,0,0,0,1.05-3.218,9.03,9.03,0,0,0,6.985-.468,1.971,1.971,0,0,0,.829-.668c.546-.919-.553-1.923-1.55-2.421a23.145,23.145,0,0,0-3.623-1.436,1.774,1.774,0,0,0,.957-2.433,3.569,3.569,0,0,0-2.434-1.7,6.715,6.715,0,0,0-6,1.462c-.422-1.733-2.893-2.485-4.673-1.807-2.088.793-2.486,2.678-4,3.951S614.455,889.4,612.6,890.224Z" transform="translate(-611.151 -884.069)" fill="#fff"/>
                <path id="패스_1962" data-name="패스 1962" d="M617.253,887.078c-.449.132-.97.383-.979.819s.527.707.983.853a14.089,14.089,0,0,0,6.342.719,2.478,2.478,0,0,0,.917-.279.9.9,0,0,0,.479-.741,1.239,1.239,0,0,0-.219-.582c-.742-1.237-1.626-1.269-3.022-1.329A14,14,0,0,0,617.253,887.078Z" transform="translate(-605.471 -881.631)" fill="#e7a328"/>
              </g>
              <path id="패스_1963" data-name="패스 1963" d="M727.464,927.179c0,1.325-2.636,2.4-5.888,2.4s-5.89-1.072-5.89-2.4,2.638-2.4,5.89-2.4S727.464,925.856,727.464,927.179Z" transform="translate(1064.767 -736.896)" fill="#fff"/>
              <path id="패스_1964" data-name="패스 1964" d="M727.464,885.381c0,1.323-2.636,2.4-5.888,2.4s-5.89-1.072-5.89-2.4,2.638-2.4,5.89-2.4S727.464,884.058,727.464,885.381Z" transform="translate(1064.767 -778.382)" fill="#fff"/>
              <ellipse id="타원_243" data-name="타원 243" cx="5.889" cy="2.396" rx="5.889" ry="2.396" transform="translate(1951.543 174.237)" fill="#fff"/>
              <path id="패스_1965" data-name="패스 1965" d="M486.313,906.518c0,1.323-2.636,2.4-5.888,2.4s-5.888-1.072-5.888-2.4,2.636-2.4,5.888-2.4S486.313,905.193,486.313,906.518Z" transform="translate(797.357 -757.404)" fill="#fff"/>
            </g>
          </g>
          <g id="그룹_1007" data-name="그룹 1007" transform="translate(1541.486 284.133)">
            <path id="패스_1966" data-name="패스 1966" d="M634.709,983.176a3.415,3.415,0,0,1,1.44,1,1.191,1.191,0,0,1-.038,1.554,2.1,2.1,0,0,1-1.271.411,48.474,48.474,0,0,1-6.432.179,6.864,6.864,0,0,1,.793,3.762,1.782,1.782,0,0,1-.373,1.084,2.033,2.033,0,0,1-1.563.49c-2.754-.056-5-1.961-6.962-3.75a6.206,6.206,0,0,1-2.881,3.29,4.718,4.718,0,0,1-4.45-.044,2.957,2.957,0,0,1-1.236-3.786,10.625,10.625,0,0,1-8.221-.552,2.322,2.322,0,0,1-.972-.785c-.645-1.08.65-2.264,1.824-2.849a27.174,27.174,0,0,1,4.26-1.69,2.089,2.089,0,0,1-1.126-2.863,4.2,4.2,0,0,1,2.864-2,7.9,7.9,0,0,1,7.067,1.721c.5-2.042,3.4-2.925,5.5-2.13,2.459.934,2.925,3.152,4.707,4.653S632.531,982.212,634.709,983.176Z" transform="translate(-602.372 -975.932)" fill="#fff"/>
            <path id="패스_1967" data-name="패스 1967" d="M616.734,979.474c.527.156,1.141.45,1.149.962s-.62.835-1.156,1.006a16.587,16.587,0,0,1-7.461.845,2.917,2.917,0,0,1-1.082-.329,1.05,1.05,0,0,1-.561-.871,1.446,1.446,0,0,1,.257-.686c.875-1.456,1.913-1.494,3.556-1.564A16.429,16.429,0,0,1,616.734,979.474Z" transform="translate(-596.55 -973.063)" fill="#e7a328"/>
          </g>
          <g id="그룹_1008" data-name="그룹 1008" transform="translate(174.486 84.779)">
            <path id="패스_1968" data-name="패스 1968" d="M634.709,983.176a3.415,3.415,0,0,1,1.44,1,1.191,1.191,0,0,1-.038,1.554,2.1,2.1,0,0,1-1.271.411,48.474,48.474,0,0,1-6.432.179,6.864,6.864,0,0,1,.793,3.762,1.782,1.782,0,0,1-.373,1.084,2.033,2.033,0,0,1-1.563.49c-2.754-.056-5-1.961-6.962-3.75a6.206,6.206,0,0,1-2.881,3.29,4.718,4.718,0,0,1-4.45-.044,2.957,2.957,0,0,1-1.236-3.786,10.625,10.625,0,0,1-8.221-.552,2.322,2.322,0,0,1-.972-.785c-.645-1.08.65-2.264,1.824-2.849a27.174,27.174,0,0,1,4.26-1.69,2.089,2.089,0,0,1-1.126-2.863,4.2,4.2,0,0,1,2.864-2,7.9,7.9,0,0,1,7.067,1.721c.5-2.042,3.4-2.925,5.5-2.13,2.459.934,2.925,3.152,4.707,4.653S632.531,982.212,634.709,983.176Z" transform="translate(-602.372 -975.932)" fill="#fff"/>
            <path id="패스_1969" data-name="패스 1969" d="M616.734,979.474c.527.156,1.141.45,1.149.962s-.62.835-1.156,1.006a16.587,16.587,0,0,1-7.461.845,2.917,2.917,0,0,1-1.082-.329,1.05,1.05,0,0,1-.561-.871,1.446,1.446,0,0,1,.257-.686c.875-1.456,1.913-1.494,3.556-1.564A16.429,16.429,0,0,1,616.734,979.474Z" transform="translate(-596.55 -973.063)" fill="#e7a328"/>
          </g>
          <g id="그룹_1009" data-name="그룹 1009" transform="translate(274.486 194.799)">
            <path id="패스_1970" data-name="패스 1970" d="M634.709,983.176a3.415,3.415,0,0,1,1.44,1,1.191,1.191,0,0,1-.038,1.554,2.1,2.1,0,0,1-1.271.411,48.474,48.474,0,0,1-6.432.179,6.864,6.864,0,0,1,.793,3.762,1.782,1.782,0,0,1-.373,1.084,2.033,2.033,0,0,1-1.563.49c-2.754-.056-5-1.961-6.962-3.75a6.206,6.206,0,0,1-2.881,3.29,4.718,4.718,0,0,1-4.45-.044,2.957,2.957,0,0,1-1.236-3.786,10.625,10.625,0,0,1-8.221-.552,2.322,2.322,0,0,1-.972-.785c-.645-1.08.65-2.264,1.824-2.849a27.174,27.174,0,0,1,4.26-1.69,2.089,2.089,0,0,1-1.126-2.863,4.2,4.2,0,0,1,2.864-2,7.9,7.9,0,0,1,7.067,1.721c.5-2.042,3.4-2.925,5.5-2.13,2.459.934,2.925,3.152,4.707,4.653S632.531,982.212,634.709,983.176Z" transform="translate(-602.372 -975.932)" fill="#fff"/>
            <path id="패스_1971" data-name="패스 1971" d="M616.734,979.474c.527.156,1.141.45,1.149.962s-.62.835-1.156,1.006a16.587,16.587,0,0,1-7.461.845,2.917,2.917,0,0,1-1.082-.329,1.05,1.05,0,0,1-.561-.871,1.446,1.446,0,0,1,.257-.686c.875-1.456,1.913-1.494,3.556-1.564A16.429,16.429,0,0,1,616.734,979.474Z" transform="translate(-596.55 -973.063)" fill="#e7a328"/>
          </g>
          <g id="그룹_1010" data-name="그룹 1010" transform="translate(1467.831 194.799)">
            <path id="패스_1972" data-name="패스 1972" d="M599.785,938.341a3.422,3.422,0,0,1,1.44,1,1.2,1.2,0,0,1-.038,1.556,2.137,2.137,0,0,1-1.272.41,48.848,48.848,0,0,1-6.434.179,6.839,6.839,0,0,1,.793,3.76,1.794,1.794,0,0,1-.371,1.084,2.035,2.035,0,0,1-1.563.492c-2.754-.058-5-1.963-6.964-3.752a6.212,6.212,0,0,1-2.879,3.29,4.717,4.717,0,0,1-4.452-.042,2.959,2.959,0,0,1-1.234-3.788,10.625,10.625,0,0,1-8.22-.552,2.314,2.314,0,0,1-.974-.785c-.643-1.08.65-2.263,1.824-2.847a27.1,27.1,0,0,1,4.262-1.692,2.087,2.087,0,0,1-1.126-2.863,4.207,4.207,0,0,1,2.862-2,7.894,7.894,0,0,1,7.067,1.721c.5-2.042,3.406-2.923,5.5-2.128,2.459.935,2.927,3.152,4.707,4.651C594.508,937.552,597.6,937.377,599.785,938.341Z" transform="translate(-567.447 -931.097)" fill="#fff"/>
            <path id="패스_1973" data-name="패스 1973" d="M581.808,934.64c.527.154,1.141.448,1.149.96s-.618.835-1.154,1.006a16.593,16.593,0,0,1-7.463.847,2.981,2.981,0,0,1-1.08-.329,1.055,1.055,0,0,1-.563-.871,1.461,1.461,0,0,1,.259-.687c.873-1.455,1.911-1.492,3.553-1.564A16.483,16.483,0,0,1,581.808,934.64Z" transform="translate(-561.625 -928.229)" fill="#e7a328"/>
          </g>
          <path id="패스_1974" data-name="패스 1974" d="M558.226,967.5c0,1.556,3.1,2.819,6.93,2.819s6.93-1.263,6.93-2.819-3.1-2.819-6.93-2.819S558.226,965.937,558.226,967.5Z" transform="translate(890.16 -702.972)" fill="#fff"/>
          <path id="패스_1975" data-name="패스 1975" d="M595.695,1014.007c0,1.556,3.1,2.82,6.93,2.82s6.93-1.263,6.93-2.82-3.1-2.821-6.93-2.821S595.695,1012.449,595.695,1014.007Z" transform="translate(931.709 -656.811)" fill="#fff"/>
          <path id="패스_1976" data-name="패스 1976" d="M679.722,964.57c0,1.556,3.1,2.819,6.93,2.819s6.93-1.263,6.93-2.819-3.1-2.82-6.93-2.82S679.722,963.012,679.722,964.57Z" transform="translate(1024.886 -705.875)" fill="#fff"/>
          <path id="패스_1977" data-name="패스 1977" d="M678.871,1043.358c0,1.556,3.1,2.82,6.93,2.82s6.93-1.263,6.93-2.82-3.1-2.819-6.93-2.819S678.871,1041.8,678.871,1043.358Z" transform="translate(1023.943 -627.678)" fill="#fff"/>
          <path id="패스_1978" data-name="패스 1978" d="M697.375,1002.9c0,1.558,3.1,2.819,6.93,2.819s6.93-1.261,6.93-2.819-3.1-2.819-6.93-2.819S697.375,1001.344,697.375,1002.9Z" transform="translate(1044.462 -667.83)" fill="#fff"/>
          <ellipse id="타원_244" data-name="타원 244" cx="6.93" cy="2.82" rx="6.93" ry="2.82" transform="translate(1294.841 297.049)" fill="#fff"/>
        </g>
      </g>
      <ellipse id="타원_245" data-name="타원 245" cx="36.483" cy="102.561" rx="36.483" ry="102.561" transform="matrix(0.017, 1, -1, 0.017, -2217.523, 745.216)" fill="url(#radial-gradient)"/>
      <ellipse id="타원_246" data-name="타원 246" cx="36.483" cy="102.561" rx="36.483" ry="102.561" transform="matrix(0.017, 1, -1, 0.017, -1983.612, 745.216)" fill="url(#radial-gradient)"/>
      <ellipse id="타원_248" data-name="타원 248" cx="15.16" cy="42.617" rx="15.16" ry="42.617" transform="matrix(0.017, 1, -1, 0.017, -1291.759, 796.02)" fill="url(#radial-gradient)"/>
      <ellipse id="타원_250" data-name="타원 250" cx="15.16" cy="42.617" rx="15.16" ry="42.617" transform="matrix(0.017, 1, -1, 0.017, -858.654, 796.02)" fill="url(#radial-gradient)"/>
      <ellipse id="타원_251" data-name="타원 251" cx="15.16" cy="42.617" rx="15.16" ry="42.617" transform="matrix(0.017, 1, -1, 0.017, -756.654, 801.02)" fill="url(#radial-gradient)"/>
      <g id="그룹_1012" data-name="그룹 1012" transform="translate(-2219.431 287.949)">
        <g id="그룹_470" data-name="그룹 470" transform="translate(855.436 376.177)">
          <g id="그룹_469" data-name="그룹 469">
            <g id="그룹_468" data-name="그룹 468">
              <path id="패스_710" data-name="패스 710" d="M845.327,321.614v34.124h495.54V321.614a15.573,15.573,0,0,0-15.526-15.529H860.856A15.574,15.574,0,0,0,845.327,321.614Z" transform="translate(-845.327 -306.085)" fill="#a85c24"/>
            </g>
          </g>
        </g>
        <g id="그룹_480" data-name="그룹 480" transform="translate(855.431 257.27)">
          <g id="그룹_473" data-name="그룹 473">
            <g id="그룹_472" data-name="그룹 472">
              <g id="그룹_471" data-name="그룹 471">
                <rect id="사각형_511" data-name="사각형 511" width="495.55" height="16.932" fill="#a85c24"/>
              </g>
            </g>
          </g>
          <g id="그룹_476" data-name="그룹 476" transform="translate(0 39.701)">
            <g id="그룹_475" data-name="그룹 475">
              <g id="그룹_474" data-name="그룹 474">
                <rect id="사각형_512" data-name="사각형 512" width="495.55" height="16.933" fill="#a85c24"/>
              </g>
            </g>
          </g>
          <g id="그룹_479" data-name="그룹 479" transform="translate(0 79.402)">
            <g id="그룹_478" data-name="그룹 478">
              <g id="그룹_477" data-name="그룹 477">
                <rect id="사각형_513" data-name="사각형 513" width="495.55" height="16.932" fill="#a85c24"/>
              </g>
            </g>
          </g>
        </g>
        <g id="그룹_483" data-name="그룹 483" transform="translate(1304.275 257.27)">
          <g id="그룹_482" data-name="그룹 482">
            <g id="그룹_481" data-name="그룹 481">
              <rect id="사각형_514" data-name="사각형 514" width="27.175" height="265.29" fill="#a85c24"/>
            </g>
          </g>
        </g>
        <g id="그룹_486" data-name="그룹 486" transform="translate(872.078 257.27)">
          <g id="그룹_485" data-name="그룹 485">
            <g id="그룹_484" data-name="그룹 484">
              <rect id="사각형_515" data-name="사각형 515" width="27.175" height="265.29" fill="#a85c24"/>
            </g>
          </g>
        </g>
        <g id="그룹_489" data-name="그룹 489" transform="translate(855.435 400.998)">
          <g id="그룹_488" data-name="그룹 488">
            <g id="그룹_487" data-name="그룹 487">
              <rect id="사각형_516" data-name="사각형 516" width="495.542" height="24.832" fill="#9a531f"/>
            </g>
          </g>
        </g>
        <g id="그룹_492" data-name="그룹 492" transform="translate(1304.275 425.83)">
          <g id="그룹_491" data-name="그룹 491">
            <g id="그룹_490" data-name="그룹 490">
              <rect id="사각형_517" data-name="사각형 517" width="27.175" height="35.686" fill="#884b1f"/>
            </g>
          </g>
        </g>
        <g id="그룹_495" data-name="그룹 495" transform="translate(872.078 425.83)">
          <g id="그룹_494" data-name="그룹 494">
            <g id="그룹_493" data-name="그룹 493">
              <rect id="사각형_518" data-name="사각형 518" width="27.175" height="35.686" fill="#884b1f"/>
            </g>
          </g>
        </g>
        <g id="그룹_505" data-name="그룹 505" transform="translate(1304.275 274.203)">
          <g id="그룹_498" data-name="그룹 498">
            <g id="그룹_497" data-name="그룹 497">
              <g id="그룹_496" data-name="그룹 496">
                <rect id="사각형_519" data-name="사각형 519" width="27.175" height="6.358" fill="#884b1f"/>
              </g>
            </g>
          </g>
          <g id="그룹_501" data-name="그룹 501" transform="translate(0 39.702)">
            <g id="그룹_500" data-name="그룹 500">
              <g id="그룹_499" data-name="그룹 499">
                <rect id="사각형_520" data-name="사각형 520" width="27.175" height="6.358" fill="#884b1f"/>
              </g>
            </g>
          </g>
          <g id="그룹_504" data-name="그룹 504" transform="translate(0 79.402)">
            <g id="그룹_503" data-name="그룹 503">
              <g id="그룹_502" data-name="그룹 502">
                <rect id="사각형_521" data-name="사각형 521" width="27.175" height="6.358" fill="#884b1f"/>
              </g>
            </g>
          </g>
        </g>
        <g id="그룹_515" data-name="그룹 515" transform="translate(872.078 274.203)">
          <g id="그룹_508" data-name="그룹 508">
            <g id="그룹_507" data-name="그룹 507">
              <g id="그룹_506" data-name="그룹 506">
                <rect id="사각형_522" data-name="사각형 522" width="27.175" height="6.358" fill="#884b1f"/>
              </g>
            </g>
          </g>
          <g id="그룹_511" data-name="그룹 511" transform="translate(0 39.702)">
            <g id="그룹_510" data-name="그룹 510">
              <g id="그룹_509" data-name="그룹 509">
                <rect id="사각형_523" data-name="사각형 523" width="27.175" height="6.358" fill="#884b1f"/>
              </g>
            </g>
          </g>
          <g id="그룹_514" data-name="그룹 514" transform="translate(0 79.402)">
            <g id="그룹_513" data-name="그룹 513">
              <g id="그룹_512" data-name="그룹 512">
                <rect id="사각형_524" data-name="사각형 524" width="27.175" height="6.358" fill="#884b1f"/>
              </g>
            </g>
          </g>
        </g>
      </g>
    </g>
    <g id="그룹_1022" data-name="그룹 1022" transform="translate(-2682.806 366.96)">
      <rect id="사각형_568" data-name="사각형 568" width="25.732" height="28.763" transform="translate(1871.795 421.706)" fill="#53707b"/>
      <g id="그룹_632" data-name="그룹 632" transform="translate(1836.109 19.292)">
        <g id="그룹_627" data-name="그룹 627" transform="translate(0 17.31)">
          <g id="그룹_625" data-name="그룹 625">
            <circle id="타원_193" data-name="타원 193" cx="15.155" cy="15.155" r="15.155" transform="matrix(0.973, -0.231, 0.231, 0.973, 0, 6.995)" fill="#fff"/>
            <rect id="사각형_570" data-name="사각형 570" width="11.894" height="4.905" transform="translate(12.296 31.594)" fill="#53707b"/>
          </g>
          <g id="그룹_626" data-name="그룹 626" transform="translate(13.837 33.397)">
            <path id="패스_879" data-name="패스 879" d="M1880.244,79.227h-24.453a10.276,10.276,0,0,1-10.264-10.265V53.811h8.814V68.962a1.452,1.452,0,0,0,1.45,1.451h24.453Z" transform="translate(-1845.528 -53.811)" fill="#53707b"/>
          </g>
        </g>
        <g id="그룹_630" data-name="그룹 630" transform="translate(48.553 17.021)">
          <g id="그룹_628" data-name="그룹 628" transform="translate(11.777)">
            <circle id="타원_194" data-name="타원 194" cx="15.155" cy="15.155" r="15.155" transform="matrix(0.256, -0.967, 0.967, 0.256, 0, 29.297)" fill="#fff"/>
            <rect id="사각형_571" data-name="사각형 571" width="11.894" height="4.905" transform="translate(12.585 31.883)" fill="#53707b"/>
          </g>
          <g id="그룹_629" data-name="그룹 629" transform="translate(0 33.687)">
            <path id="패스_880" data-name="패스 880" d="M1893.613,79.227h-24.452V70.413h24.452a1.451,1.451,0,0,0,1.45-1.451V53.811h8.814V68.962A10.276,10.276,0,0,1,1893.613,79.227Z" transform="translate(-1869.161 -53.811)" fill="#53707b"/>
          </g>
        </g>
        <g id="그룹_631" data-name="그룹 631" transform="translate(44.146 36.327)">
          <rect id="사각형_572" data-name="사각형 572" width="8.814" height="374.546" fill="#53707b"/>
        </g>
        <g id="그룹_624" data-name="그룹 624" transform="translate(30.39)">
          <circle id="타원_192" data-name="타원 192" cx="18.163" cy="18.163" r="18.163" fill="#ffc631"/>
          <rect id="사각형_569" data-name="사각형 569" width="14.255" height="5.878" transform="translate(11.036 34.165)" fill="#ffc631"/>
        </g>
      </g>
    </g>
  </g>
</svg>
