<svg xmlns="http://www.w3.org/2000/svg" width="391.811" height="45.773" viewBox="0 0 391.811 45.773">
  <g id="그룹_963" data-name="그룹 963" transform="translate(-49.765 -288.166)">
    <path id="패스_1837" data-name="패스 1837" d="M78.266,301.64a6.371,6.371,0,0,0-2.723-2.415,9.239,9.239,0,0,0-4.061-.847,8.881,8.881,0,0,0-5.229,1.509,9.5,9.5,0,0,0-3.307,4.352,18.133,18.133,0,0,0-1.153,6.814,18.337,18.337,0,0,0,1.153,6.952,9.224,9.224,0,0,0,3.307,4.261,8.882,8.882,0,0,0,5.106,1.461,9.255,9.255,0,0,0,3.954-.785,6.856,6.856,0,0,0,2.707-2.214,8.1,8.1,0,0,0,1.369-3.4l11.9.123a16.97,16.97,0,0,1-2.769,7.814,18.641,18.641,0,0,1-6.875,6.229,21.464,21.464,0,0,1-10.5,2.445,22.458,22.458,0,0,1-11.013-2.675,18.777,18.777,0,0,1-7.613-7.861,25.98,25.98,0,0,1-2.754-12.35,25.563,25.563,0,0,1,2.815-12.4,19.126,19.126,0,0,1,7.644-7.829,22.248,22.248,0,0,1,10.921-2.661,23.47,23.47,0,0,1,9.935,2.014,17.1,17.1,0,0,1,7.045,5.892,19,19,0,0,1,3.168,9.229h-11.9A7.985,7.985,0,0,0,78.266,301.64Z" fill="#040506"/>
    <path id="패스_1838" data-name="패스 1838" d="M96.923,288.781h11.689v17.534H125.1V288.781H136.79v44.543H125.1V315.76H108.612v17.564H96.923Z" fill="#040506"/>
    <path id="패스_1839" data-name="패스 1839" d="M141.158,333.324l14.8-44.543h15.9l14.8,44.543H174.012l-9.906-32.576h-.369L153.8,333.324Zm34.884-17.6v8.828H151.586v-8.828Z" fill="#040506"/>
    <path id="패스_1840" data-name="패스 1840" d="M191.054,288.781H210a19.561,19.561,0,0,1,8.69,1.814,13.46,13.46,0,0,1,5.752,5.215,15.244,15.244,0,0,1,2.046,8.014,14.649,14.649,0,0,1-2.076,7.951,12.963,12.963,0,0,1-5.892,5,21.836,21.836,0,0,1-8.92,1.693H198.067V309.3h9.259a10.908,10.908,0,0,0,3.815-.569,4.7,4.7,0,0,0,2.323-1.784,5.5,5.5,0,0,0,.814-3.122,5.713,5.713,0,0,0-.814-3.184,4.89,4.89,0,0,0-2.354-1.861,10.23,10.23,0,0,0-3.784-.615h-4.583v35.16H191.054Zm36.914,44.543H215.2L204.373,312.93h12.489Z" fill="#040506"/>
    <path id="패스_1841" data-name="패스 1841" d="M230.183,333.324l14.8-44.543h15.9l14.8,44.543H263.036l-9.906-32.576h-.369l-9.936,32.576Zm34.882-17.6v8.828H240.61v-8.828Z" fill="#040506"/>
    <path id="패스_1842" data-name="패스 1842" d="M306.21,301.64a6.365,6.365,0,0,0-2.723-2.415,9.232,9.232,0,0,0-4.06-.847,8.879,8.879,0,0,0-5.229,1.509,9.491,9.491,0,0,0-3.307,4.352,18.113,18.113,0,0,0-1.154,6.814,18.317,18.317,0,0,0,1.154,6.952,9.218,9.218,0,0,0,3.307,4.261,8.879,8.879,0,0,0,5.106,1.461,9.25,9.25,0,0,0,3.953-.785,6.849,6.849,0,0,0,2.707-2.214,8.074,8.074,0,0,0,1.369-3.4l11.9.123a16.978,16.978,0,0,1-2.767,7.814,18.644,18.644,0,0,1-6.876,6.229,21.471,21.471,0,0,1-10.505,2.445,22.461,22.461,0,0,1-11.013-2.675,18.783,18.783,0,0,1-7.613-7.861,25.979,25.979,0,0,1-2.753-12.35,25.564,25.564,0,0,1,2.814-12.4,19.123,19.123,0,0,1,7.645-7.829,22.244,22.244,0,0,1,10.92-2.661,23.464,23.464,0,0,1,9.935,2.014,17.094,17.094,0,0,1,7.045,5.892,18.988,18.988,0,0,1,3.168,9.229h-11.9A7.973,7.973,0,0,0,306.21,301.64Z" fill="#040506"/>
    <path id="패스_1843" data-name="패스 1843" d="M323.544,288.781h38.422v9.443H348.522v35.1h-11.5v-35.1H323.544Z" fill="#040506"/>
    <path id="패스_1844" data-name="패스 1844" d="M366.7,288.781h31.808v9.443H378.393v8.091H396.88v9.445H378.393v8.121h20.026v9.443H366.7Z" fill="#040506"/>
    <path id="패스_1845" data-name="패스 1845" d="M404.662,288.781h18.949A19.565,19.565,0,0,1,432.3,290.6a13.471,13.471,0,0,1,5.752,5.215,15.244,15.244,0,0,1,2.046,8.014,14.649,14.649,0,0,1-2.077,7.951,12.956,12.956,0,0,1-5.891,5,21.839,21.839,0,0,1-8.92,1.693H411.676V309.3h9.259a10.9,10.9,0,0,0,3.814-.569,4.7,4.7,0,0,0,2.323-1.784,5.5,5.5,0,0,0,.816-3.122,5.713,5.713,0,0,0-.816-3.184,4.892,4.892,0,0,0-2.353-1.861,10.23,10.23,0,0,0-3.784-.615h-4.583v35.16h-11.69Zm36.914,44.543H428.81L417.981,312.93h12.491Z" fill="#040506"/>
  </g>
</svg>
