<svg xmlns="http://www.w3.org/2000/svg" width="298.788" height="45.773" viewBox="0 0 298.788 45.773">
  <g id="그룹_965" data-name="그룹 965" transform="translate(-50.042 -457.085)">
    <path id="패스_1859" data-name="패스 1859" d="M50.042,457.7h19.1a23.182,23.182,0,0,1,8.444,1.369,11.277,11.277,0,0,1,5.261,3.861,10,10,0,0,1,1.768,5.936,9.28,9.28,0,0,1-1.077,4.446,9.766,9.766,0,0,1-3,3.383,11.623,11.623,0,0,1-4.476,1.892v.432a11.266,11.266,0,0,1,5.214,1.476,9.857,9.857,0,0,1,3.707,3.722,10.771,10.771,0,0,1,1.354,5.444,11.43,11.43,0,0,1-1.892,6.476,12.714,12.714,0,0,1-5.414,4.475,19.558,19.558,0,0,1-8.291,1.631h-20.7ZM69.9,475.265a4.618,4.618,0,0,0,1.985-1.553,4.024,4.024,0,0,0,.707-2.385,4.067,4.067,0,0,0-.692-2.4,4.269,4.269,0,0,0-1.907-1.492,7.248,7.248,0,0,0-2.815-.508H61.731v8.89h5.26A7.243,7.243,0,0,0,69.9,475.265Zm1.262,17.043a4.328,4.328,0,0,0,2.092-1.6,4.529,4.529,0,0,0,.691-2.554,5.026,5.026,0,0,0-.722-2.722,4.463,4.463,0,0,0-2.092-1.738,8.329,8.329,0,0,0-3.276-.585H61.731v9.751h5.937A9.557,9.557,0,0,0,71.16,492.308Z" fill="#040506"/>
    <path id="패스_1860" data-name="패스 1860" d="M102.521,502.243H90.832V457.7h11.689Z" fill="#040506"/>
    <path id="패스_1861" data-name="패스 1861" d="M133.929,502.243h-11.69V457.7h11.69Zm-6.891,0v-9.967h11.69a13.34,13.34,0,0,0,5.952-1.169,7.682,7.682,0,0,0,3.584-3.876,17.8,17.8,0,0,0,1.23-7.259,17.994,17.994,0,0,0-1.23-7.322,7.466,7.466,0,0,0-3.66-3.844,14.524,14.524,0,0,0-6.153-1.139h-11.6V457.7h12.151a24.982,24.982,0,0,1,11.889,2.676,18.386,18.386,0,0,1,7.721,7.691,27.668,27.668,0,0,1,0,23.809,18.421,18.421,0,0,1-7.69,7.691,24.581,24.581,0,0,1-11.767,2.676Z" fill="#040506"/>
    <path id="패스_1862" data-name="패스 1862" d="M167.06,457.7h31.807v9.444H178.749v8.09h18.487v9.445H178.749V492.8h20.025v9.443H167.06Z" fill="#040506"/>
    <path id="패스_1863" data-name="패스 1863" d="M228.183,468.866a4.276,4.276,0,0,0-2.045-1.614,9.118,9.118,0,0,0-3.369-.538,8.955,8.955,0,0,0-3.091.461,4.09,4.09,0,0,0-1.877,1.276,2.959,2.959,0,0,0-.631,1.862,2.993,2.993,0,0,0,1.415,2.707,14.66,14.66,0,0,0,4.707,1.784l3.722.738q7.105,1.537,10.444,4.937a12.059,12.059,0,0,1,3.4,8.66,12.324,12.324,0,0,1-2.168,7.367,13.608,13.608,0,0,1-6.183,4.645,25.817,25.817,0,0,1-9.644,1.616,26.5,26.5,0,0,1-10.09-1.754,13.887,13.887,0,0,1-6.583-5.307,16.582,16.582,0,0,1-2.4-8.9h11.2a6.871,6.871,0,0,0,1.076,3.461,5.858,5.858,0,0,0,2.646,2.153,10.146,10.146,0,0,0,4,.723,9.488,9.488,0,0,0,3.354-.524,4.822,4.822,0,0,0,2.107-1.414,3.185,3.185,0,0,0,.723-2.061,2.865,2.865,0,0,0-.677-1.908,5.724,5.724,0,0,0-2.185-1.43,22.955,22.955,0,0,0-3.967-1.154l-4.492-1.015q-6.122-1.291-9.367-4.353a10.655,10.655,0,0,1-3.245-8.135,12.286,12.286,0,0,1,2.276-7.337,14.878,14.878,0,0,1,6.322-4.953,22.869,22.869,0,0,1,9.244-1.769,22.25,22.25,0,0,1,9.213,1.769,13.933,13.933,0,0,1,6.075,5.03,13.418,13.418,0,0,1,2.153,7.566H229.014A5.444,5.444,0,0,0,228.183,468.866Z" fill="#040506"/>
    <path id="패스_1864" data-name="패스 1864" d="M257.345,502.243h-11.69V457.7h11.69Z" fill="#040506"/>
    <path id="패스_1865" data-name="패스 1865" d="M290.922,469.6a6.352,6.352,0,0,0-2.492-1.722,9.561,9.561,0,0,0-3.492-.584,9.244,9.244,0,0,0-5.275,1.476,9.357,9.357,0,0,0-3.384,4.323,17.679,17.679,0,0,0-1.184,6.813,18.733,18.733,0,0,0,1.123,6.875,8.673,8.673,0,0,0,8.629,5.861,11.738,11.738,0,0,0,4.706-.846,6.124,6.124,0,0,0,2.891-2.415,6.968,6.968,0,0,0,.953-3.692l2.092.246h-10.4v-8.46h19.594V483.6a20.063,20.063,0,0,1-2.538,10.29,16.907,16.907,0,0,1-7.044,6.66,22.343,22.343,0,0,1-10.321,2.306,22.749,22.749,0,0,1-11.35-2.768,19.089,19.089,0,0,1-7.645-7.937,25.657,25.657,0,0,1-2.722-12.12,25.208,25.208,0,0,1,2.861-12.335,19.555,19.555,0,0,1,7.767-7.906,22.312,22.312,0,0,1,10.966-2.707,22.541,22.541,0,0,1,9.475,1.953,17.833,17.833,0,0,1,6.922,5.43,15.669,15.669,0,0,1,3.137,7.906H292.321A6.453,6.453,0,0,0,290.922,469.6Z" fill="#040506"/>
    <path id="패스_1866" data-name="패스 1866" d="M348.83,502.243h-9.812L322.5,478.218h-.308v24.025H310.5V457.7h10l16.273,23.963h.37V457.7H348.83Z" fill="#040506"/>
  </g>
</svg>
