<svg xmlns="http://www.w3.org/2000/svg" width="521.256" height="44.543" viewBox="0 0 521.256 44.543">
  <g id="그룹_964" data-name="그룹 964" transform="translate(-50.042 -373.24)">
    <path id="패스_1846" data-name="패스 1846" d="M50.042,373.24h19.1a23.181,23.181,0,0,1,8.444,1.369,11.276,11.276,0,0,1,5.261,3.861,10,10,0,0,1,1.768,5.936,9.28,9.28,0,0,1-1.077,4.446,9.765,9.765,0,0,1-3,3.383,11.623,11.623,0,0,1-4.476,1.892v.432a11.266,11.266,0,0,1,5.214,1.476,9.864,9.864,0,0,1,3.707,3.722,10.772,10.772,0,0,1,1.354,5.444,11.43,11.43,0,0,1-1.892,6.476,12.714,12.714,0,0,1-5.414,4.475,19.558,19.558,0,0,1-8.291,1.631h-20.7ZM69.9,390.8a4.618,4.618,0,0,0,1.985-1.553,4.024,4.024,0,0,0,.707-2.385,4.067,4.067,0,0,0-.692-2.4,4.276,4.276,0,0,0-1.907-1.492,7.248,7.248,0,0,0-2.815-.508H61.731v8.89h5.26A7.243,7.243,0,0,0,69.9,390.8Zm1.262,17.043a4.322,4.322,0,0,0,2.092-1.6,4.529,4.529,0,0,0,.691-2.554,5.026,5.026,0,0,0-.722-2.722,4.463,4.463,0,0,0-2.092-1.738,8.329,8.329,0,0,0-3.276-.585H61.731V408.4h5.937A9.557,9.557,0,0,0,71.16,407.848Z" fill="#040506"/>
    <path id="패스_1847" data-name="패스 1847" d="M90.832,373.24h18.949a19.566,19.566,0,0,1,8.691,1.815,13.471,13.471,0,0,1,5.752,5.215,15.248,15.248,0,0,1,2.046,8.013,14.649,14.649,0,0,1-2.077,7.951,12.956,12.956,0,0,1-5.891,5,21.841,21.841,0,0,1-8.921,1.693H97.846v-9.168H107.1a10.9,10.9,0,0,0,3.815-.569,4.7,4.7,0,0,0,2.323-1.784,5.5,5.5,0,0,0,.815-3.122,5.713,5.713,0,0,0-.815-3.184,4.892,4.892,0,0,0-2.353-1.861,10.235,10.235,0,0,0-3.785-.615h-4.583v35.16H90.832Zm36.914,44.543H114.979l-10.828-20.394h12.49Z" fill="#040506"/>
    <path id="패스_1848" data-name="패스 1848" d="M129.961,417.783l14.8-44.543h15.9l14.8,44.543H162.814l-9.9-32.576h-.369L142.6,417.783Zm34.884-17.6v8.828H140.389v-8.828Z" fill="#040506"/>
    <path id="패스_1849" data-name="패스 1849" d="M218.186,417.783h-9.814l-16.518-24.025h-.308v24.025h-11.69V373.24h10L206.127,397.2h.369V373.24h11.69Z" fill="#040506"/>
    <path id="패스_1850" data-name="패스 1850" d="M235.9,417.783H224.215V373.24H235.9Zm-6.89,0v-9.967H240.7a13.334,13.334,0,0,0,5.952-1.169,7.673,7.673,0,0,0,3.584-3.876,17.8,17.8,0,0,0,1.231-7.259,17.993,17.993,0,0,0-1.231-7.322,7.46,7.46,0,0,0-3.661-3.844,14.516,14.516,0,0,0-6.152-1.139h-11.6V373.24h12.15a24.971,24.971,0,0,1,11.889,2.676,18.386,18.386,0,0,1,7.723,7.691,27.677,27.677,0,0,1,0,23.809,18.426,18.426,0,0,1-7.692,7.691,24.573,24.573,0,0,1-11.765,2.676Z" fill="#040506"/>
    <path id="패스_1851" data-name="패스 1851" d="M294.443,417.783H282.754V373.24h11.689Z" fill="#040506"/>
    <path id="패스_1852" data-name="패스 1852" d="M312.131,417.783h-11.69V373.24h11.69Zm-6.891,0v-9.967h11.69a13.34,13.34,0,0,0,5.952-1.169,7.678,7.678,0,0,0,3.584-3.876,17.8,17.8,0,0,0,1.23-7.259,17.994,17.994,0,0,0-1.23-7.322,7.462,7.462,0,0,0-3.66-3.844,14.524,14.524,0,0,0-6.153-1.139h-11.6V373.24h12.15a24.983,24.983,0,0,1,11.89,2.676,18.386,18.386,0,0,1,7.721,7.691,27.668,27.668,0,0,1,0,23.809,18.421,18.421,0,0,1-7.69,7.691,24.582,24.582,0,0,1-11.767,2.676Z" fill="#040506"/>
    <path id="패스_1853" data-name="패스 1853" d="M345.262,373.24h31.807v9.444H356.951v8.09h18.487v9.445H356.951v8.121h20.027v9.443H345.262Z" fill="#040506"/>
    <path id="패스_1854" data-name="패스 1854" d="M421.551,417.783h-9.813l-16.519-24.025h-.308v24.025H383.222V373.24h10L409.492,397.2h.369V373.24h11.69Z" fill="#040506"/>
    <path id="패스_1855" data-name="패스 1855" d="M426.257,373.24h38.422v9.444H451.235v35.1h-11.5v-35.1H426.257Z" fill="#040506"/>
    <path id="패스_1856" data-name="패스 1856" d="M481.105,417.783H469.416V373.24h11.689Z" fill="#040506"/>
    <path id="패스_1857" data-name="패스 1857" d="M485.78,373.24H524.2v9.444H510.759v35.1h-11.5v-35.1H485.78Z" fill="#040506"/>
    <path id="패스_1858" data-name="패스 1858" d="M540.044,373.24l8.922,18.242h.338l8.921-18.242H571.3l-16.334,30.27v14.273H543.336V403.51l-16.365-30.27Z" fill="#040506"/>
  </g>
</svg>
