<svg id="그룹_955" data-name="그룹 955" xmlns="http://www.w3.org/2000/svg" width="64.332" height="14.857" viewBox="0 0 64.332 14.857">
  <path id="패스_804" data-name="패스 804" d="M1369.223,659.462c-.338.169-.193.6.242.482a34.148,34.148,0,0,1,9.264-1.471c2.171,0,3.667.893,3.908,3.305.145,1.689-.458,3.33-2.63,3.691a52.694,52.694,0,0,1-11.919.217c-3.112-.338-4.584-1.182-5.043-3.064a22.357,22.357,0,0,1,0-8.4,3.711,3.711,0,0,1,3.74-3.016c1.785-.169,10.374-.193,12.208-.049,1.979.121,3.113.941,3.113,2.606,0,1.761-1.013,2.726-3.113,2.726h-8.324a6.231,6.231,0,0,1,.169,2.388C1370.164,659.149,1369.705,659.221,1369.223,659.462Z" transform="translate(-1318.326 -651.068)" fill="#ea5b18"/>
  <path id="패스_805" data-name="패스 805" d="M1239.537,651.428c-.417.3-.8.575-1.164.835a36.331,36.331,0,0,0-12.485,0l-1.169-.838c-2.681-1.916-2.433,4.328-2.279,6.435a30.912,30.912,0,0,0,.26,5.013c.256,1.632.723,2.262,1.935,2.472a49.145,49.145,0,0,0,15.013,0c1.235-.21,1.678-.839,1.935-2.472a31.868,31.868,0,0,0,.254-5.3C1241.986,655.239,1242.1,649.594,1239.537,651.428Zm-5.694,7.205a3.589,3.589,0,0,1-3.334,0c-.326-.163-.443-.4-.3-.63a.416.416,0,0,1,.536-.21,3.066,3.066,0,0,0,2.844.023.371.371,0,0,1,.49.21A.476.476,0,0,1,1233.843,658.634Z" transform="translate(-1222.353 -651.068)" fill="#ea5b18"/>
  <path id="패스_806" data-name="패스 806" d="M1309.676,651.428l-1.167.836a36.338,36.338,0,0,0-12.485,0l-1.167-.836c-2.62-1.873-2.443,4.052-2.29,6.287a31.409,31.409,0,0,0,.257,5.16c.256,1.632.723,2.261,1.935,2.471a49.125,49.125,0,0,0,15.013,0c1.236-.21,1.679-.839,1.935-2.471a31.366,31.366,0,0,0,.257-5.16C1312.119,655.481,1312.3,649.556,1309.676,651.428Zm-5.708,7.205a3.586,3.586,0,0,1-3.333,0c-.326-.163-.443-.4-.3-.629a.416.416,0,0,1,.536-.21,3.064,3.064,0,0,0,2.844.023.371.371,0,0,1,.49.21A.475.475,0,0,1,1303.969,658.633Z" transform="translate(-1270.334 -651.068)" fill="#ea5b18"/>
</svg>
