<svg xmlns="http://www.w3.org/2000/svg" width="179.825" height="32.695" viewBox="0 0 179.825 32.695">
  <g id="그룹_1015" data-name="그룹 1015" transform="translate(-590.396 -110.528)">
    <path id="패스_1989" data-name="패스 1989" d="M590.4,110.967h8.35v25.071h12.985v6.746H590.4Z" fill="#040506"/>
    <path id="패스_1990" data-name="패스 1990" d="M642.658,135.7a13.639,13.639,0,0,1-5.514,5.614,17.169,17.169,0,0,1-15.744,0,13.633,13.633,0,0,1-5.5-5.625,20.4,20.4,0,0,1,0-17.666,13.594,13.594,0,0,1,5.5-5.593,17.257,17.257,0,0,1,15.744,0,13.586,13.586,0,0,1,5.514,5.593,20.429,20.429,0,0,1,0,17.677Zm-7.36-13.766a6.348,6.348,0,0,0-2.308-3.065,7.144,7.144,0,0,0-7.437,0,6.366,6.366,0,0,0-2.3,3.065,16.055,16.055,0,0,0,0,9.887,5.985,5.985,0,0,0,6.009,4.109,6.432,6.432,0,0,0,3.724-1.044,6.344,6.344,0,0,0,2.308-3.065,16.055,16.055,0,0,0,0-9.887Z" fill="#040506"/>
    <path id="패스_1991" data-name="패스 1991" d="M668.937,120.152a4.553,4.553,0,0,0-1.944-1.725,6.6,6.6,0,0,0-2.9-.6,6.359,6.359,0,0,0-3.737,1.076,6.784,6.784,0,0,0-2.361,3.109,12.931,12.931,0,0,0-.824,4.867,13.069,13.069,0,0,0,.824,4.966,6.579,6.579,0,0,0,2.361,3.043,6.337,6.337,0,0,0,3.649,1.044,6.6,6.6,0,0,0,2.823-.56,4.889,4.889,0,0,0,1.934-1.582,5.766,5.766,0,0,0,.977-2.428l8.5.088a12.137,12.137,0,0,1-1.978,5.581,13.3,13.3,0,0,1-4.911,4.449,15.328,15.328,0,0,1-7.5,1.747,16.043,16.043,0,0,1-7.867-1.911,13.421,13.421,0,0,1-5.438-5.614,18.568,18.568,0,0,1-1.967-8.823,18.262,18.262,0,0,1,2.011-8.854,13.682,13.682,0,0,1,5.46-5.593,15.906,15.906,0,0,1,7.8-1.9,16.771,16.771,0,0,1,7.1,1.439,12.213,12.213,0,0,1,5.031,4.208,13.572,13.572,0,0,1,2.264,6.592h-8.5A5.694,5.694,0,0,0,668.937,120.152Z" fill="#040506"/>
    <path id="패스_1992" data-name="패스 1992" d="M682.264,110.967h8.349V124h.44l9.821-13.03h9.8L699.754,125.14l11.162,17.644H700.9l-7.36-12.107-2.923,3.779v8.328h-8.349Z" fill="#040506"/>
    <path id="패스_1993" data-name="패스 1993" d="M740.646,110.967V131.4a10.862,10.862,0,0,1-6.515,10.294,16.688,16.688,0,0,1-7.174,1.461,16.476,16.476,0,0,1-7.142-1.461,10.9,10.9,0,0,1-6.481-10.294V110.967h8.35v19.71a5.35,5.35,0,0,0,.68,2.692,4.9,4.9,0,0,0,1.891,1.878,5.4,5.4,0,0,0,2.7.681,5.544,5.544,0,0,0,2.769-.681,4.756,4.756,0,0,0,1.867-1.878,5.5,5.5,0,0,0,.66-2.692v-19.71Z" fill="#040506"/>
    <path id="패스_1994" data-name="패스 1994" d="M744.908,110.967h13.535a13.253,13.253,0,0,1,6.186,1.385,9.911,9.911,0,0,1,4.131,3.933,11.593,11.593,0,0,1,1.461,5.866,11.115,11.115,0,0,1-1.505,5.856,10.086,10.086,0,0,1-4.231,3.856,13.975,13.975,0,0,1-6.328,1.363h-8.2v-6.548h6.57a6.021,6.021,0,0,0,2.68-.55,3.867,3.867,0,0,0,1.7-1.56,5.31,5.31,0,0,0,0-4.834,3.765,3.765,0,0,0-1.691-1.538,6.246,6.246,0,0,0-2.692-.527h-3.274v25.115h-8.35Z" fill="#040506"/>
  </g>
</svg>
