<svg xmlns="http://www.w3.org/2000/svg" width="379.468" height="32.695" viewBox="0 0 379.468 32.695">
  <g id="그룹_1016" data-name="그룹 1016" transform="translate(-515.009 -185.725)">
    <path id="패스_1995" data-name="패스 1995" d="M515.009,186.165h27.443v6.745h-9.6v25.071h-8.219V192.91h-9.623Z" fill="#040506"/>
    <path id="패스_1996" data-name="패스 1996" d="M540.649,217.981l10.57-31.816h11.36l10.568,31.816h-9.031l-7.074-23.269h-.264l-7.1,23.269Zm24.918-12.568v6.306H548.1v-6.306Z" fill="#040506"/>
    <path id="패스_1997" data-name="패스 1997" d="M594.494,194.668a4.51,4.51,0,0,0-1.779-1.23,6.8,6.8,0,0,0-2.494-.418,6.606,6.606,0,0,0-3.769,1.055,6.693,6.693,0,0,0-2.417,3.087,12.655,12.655,0,0,0-.846,4.867,13.406,13.406,0,0,0,.8,4.911,6.2,6.2,0,0,0,6.163,4.185,8.387,8.387,0,0,0,3.363-.6,4.372,4.372,0,0,0,2.065-1.725,4.977,4.977,0,0,0,.682-2.636l1.494.175H590.33v-6.042h14v4.373a14.336,14.336,0,0,1-1.812,7.349,12.07,12.07,0,0,1-5.033,4.757,15.942,15.942,0,0,1-7.371,1.648A16.258,16.258,0,0,1,582,216.443a13.631,13.631,0,0,1-5.46-5.669,18.313,18.313,0,0,1-1.945-8.657,17.994,17.994,0,0,1,2.044-8.811,13.97,13.97,0,0,1,5.547-5.647,16.957,16.957,0,0,1,14.6-.538A12.721,12.721,0,0,1,601.734,191a11.191,11.191,0,0,1,2.242,5.647h-8.482A4.586,4.586,0,0,0,594.494,194.668Z" fill="#040506"/>
    <path id="패스_1998" data-name="패스 1998" d="M608.48,186.165h8.35v25.07h12.985v6.746H608.48Z" fill="#040506"/>
    <path id="패스_1999" data-name="패스 1999" d="M641.769,217.981h-8.35V186.165h8.35Z" fill="#040506"/>
    <path id="패스_2000" data-name="패스 2000" d="M673.431,217.981h-7.01l-11.8-17.161h-.22v17.161h-8.349V186.165h7.141l11.623,17.116h.264V186.165h8.35Z" fill="#040506"/>
    <path id="패스_2001" data-name="패스 2001" d="M677.738,186.165h22.72v6.745h-14.37v5.779h13.206v6.746H686.088v5.8h14.3v6.746H677.738Z" fill="#040506"/>
    <path id="패스_2002" data-name="패스 2002" d="M714.652,186.165H723v25.07h12.985v6.746H714.652Z" fill="#040506"/>
    <path id="패스_2003" data-name="패스 2003" d="M766.913,210.9a13.636,13.636,0,0,1-5.515,5.614,17.167,17.167,0,0,1-15.743,0,13.641,13.641,0,0,1-5.505-5.625,20.413,20.413,0,0,1,0-17.666,13.6,13.6,0,0,1,5.505-5.593,17.255,17.255,0,0,1,15.743,0,13.583,13.583,0,0,1,5.515,5.593,20.429,20.429,0,0,1,0,17.677Zm-7.36-13.766a6.348,6.348,0,0,0-2.308-3.065,7.144,7.144,0,0,0-7.437,0,6.366,6.366,0,0,0-2.3,3.065,16.039,16.039,0,0,0,0,9.888,5.982,5.982,0,0,0,6.009,4.108,6.439,6.439,0,0,0,3.724-1.043,6.353,6.353,0,0,0,2.308-3.065,16.058,16.058,0,0,0,0-9.888Z" fill="#040506"/>
    <path id="패스_2004" data-name="패스 2004" d="M793.193,195.349a4.55,4.55,0,0,0-1.944-1.724,6.6,6.6,0,0,0-2.9-.6,6.352,6.352,0,0,0-3.737,1.077,6.773,6.773,0,0,0-2.361,3.109,12.923,12.923,0,0,0-.824,4.867,13.072,13.072,0,0,0,.824,4.966,6.584,6.584,0,0,0,2.361,3.043,6.342,6.342,0,0,0,3.649,1.043,6.6,6.6,0,0,0,2.823-.56,4.887,4.887,0,0,0,1.934-1.582,5.761,5.761,0,0,0,.977-2.428l8.5.088a12.138,12.138,0,0,1-1.978,5.581,13.3,13.3,0,0,1-4.911,4.449,15.329,15.329,0,0,1-7.5,1.747,16.042,16.042,0,0,1-7.866-1.911A13.421,13.421,0,0,1,774.8,210.9a18.564,18.564,0,0,1-1.967-8.822,18.266,18.266,0,0,1,2.011-8.855,13.682,13.682,0,0,1,5.46-5.593,15.9,15.9,0,0,1,7.8-1.9,16.758,16.758,0,0,1,7.1,1.44,12.2,12.2,0,0,1,5.031,4.207,13.573,13.573,0,0,1,2.264,6.592h-8.5A5.694,5.694,0,0,0,793.193,195.349Z" fill="#040506"/>
    <path id="패스_2005" data-name="패스 2005" d="M806.52,186.165h8.349v13.029h.44l9.821-13.029h9.8L824.01,200.337l11.162,17.644h-10.02l-7.36-12.107-2.923,3.779v8.328H806.52Z" fill="#040506"/>
    <path id="패스_2006" data-name="패스 2006" d="M864.9,186.165V206.6a10.856,10.856,0,0,1-6.514,10.294,16.677,16.677,0,0,1-7.174,1.461,16.462,16.462,0,0,1-7.142-1.461,10.9,10.9,0,0,1-6.481-10.294V186.165h8.349v19.709a5.348,5.348,0,0,0,.681,2.692,4.9,4.9,0,0,0,1.891,1.878,5.4,5.4,0,0,0,2.7.681,5.538,5.538,0,0,0,2.768-.681,4.752,4.752,0,0,0,1.868-1.878,5.494,5.494,0,0,0,.66-2.692V186.165Z" fill="#040506"/>
    <path id="패스_2007" data-name="패스 2007" d="M869.164,186.165H882.7a13.255,13.255,0,0,1,6.186,1.384,9.923,9.923,0,0,1,4.131,3.933,11.6,11.6,0,0,1,1.461,5.867,11.12,11.12,0,0,1-1.505,5.856,10.1,10.1,0,0,1-4.231,3.856,13.978,13.978,0,0,1-6.328,1.362h-8.2v-6.548h6.57a6.036,6.036,0,0,0,2.68-.549,3.879,3.879,0,0,0,1.7-1.56,5.31,5.31,0,0,0,0-4.834,3.752,3.752,0,0,0-1.692-1.538,6.223,6.223,0,0,0-2.691-.528h-3.274v25.115h-8.35Z" fill="#040506"/>
  </g>
</svg>
