<svg xmlns="http://www.w3.org/2000/svg" width="239.655" height="32.695" viewBox="0 0 239.655 32.695">
  <g id="그룹_1017" data-name="그룹 1017" transform="translate(-581.494 -261.401)">
    <path id="패스_2008" data-name="패스 2008" d="M581.494,261.84h8.35v25.071h12.985v6.746H581.494Z" fill="#040506"/>
    <path id="패스_2009" data-name="패스 2009" d="M633.756,286.571a13.635,13.635,0,0,1-5.515,5.614,17.167,17.167,0,0,1-15.743,0,13.642,13.642,0,0,1-5.505-5.625,20.4,20.4,0,0,1,0-17.666A13.6,13.6,0,0,1,612.5,263.3a17.256,17.256,0,0,1,15.743,0,13.582,13.582,0,0,1,5.515,5.593,20.428,20.428,0,0,1,0,17.677ZM626.4,272.8a6.354,6.354,0,0,0-2.308-3.065,7.146,7.146,0,0,0-7.438,0,6.378,6.378,0,0,0-2.3,3.065,16.055,16.055,0,0,0,0,9.887,6.387,6.387,0,0,0,12.042,0,16.055,16.055,0,0,0,0-9.887Z" fill="#040506"/>
    <path id="패스_2010" data-name="패스 2010" d="M659.573,270.344a4.522,4.522,0,0,0-1.779-1.231,6.826,6.826,0,0,0-2.494-.417,6.606,6.606,0,0,0-3.769,1.054,6.7,6.7,0,0,0-2.417,3.087,12.664,12.664,0,0,0-.845,4.868,13.408,13.408,0,0,0,.8,4.911,6.2,6.2,0,0,0,6.163,4.185,8.387,8.387,0,0,0,3.363-.6,4.374,4.374,0,0,0,2.065-1.725,4.978,4.978,0,0,0,.682-2.637l1.494.176h-7.428v-6.042h14v4.372a14.339,14.339,0,0,1-1.812,7.35,12.074,12.074,0,0,1-5.032,4.757,15.949,15.949,0,0,1-7.372,1.648,16.258,16.258,0,0,1-8.108-1.977,13.637,13.637,0,0,1-5.46-5.669,18.315,18.315,0,0,1-1.945-8.658,18,18,0,0,1,2.044-8.811,13.979,13.979,0,0,1,5.548-5.647A15.94,15.94,0,0,1,655.1,261.4a16.1,16.1,0,0,1,6.767,1.395,12.739,12.739,0,0,1,4.943,3.878,11.2,11.2,0,0,1,2.242,5.647h-8.482A4.588,4.588,0,0,0,659.573,270.344Z" fill="#040506"/>
    <path id="패스_2011" data-name="패스 2011" d="M702.135,286.571a13.636,13.636,0,0,1-5.515,5.614,17.167,17.167,0,0,1-15.743,0,13.641,13.641,0,0,1-5.505-5.625,20.4,20.4,0,0,1,0-17.666,13.6,13.6,0,0,1,5.505-5.593,17.255,17.255,0,0,1,15.743,0,13.583,13.583,0,0,1,5.515,5.593,20.429,20.429,0,0,1,0,17.677ZM694.774,272.8a6.346,6.346,0,0,0-2.307-3.065,7.146,7.146,0,0,0-7.438,0,6.378,6.378,0,0,0-2.3,3.065,16.056,16.056,0,0,0,0,9.887,6.386,6.386,0,0,0,12.041,0,16.036,16.036,0,0,0,0-9.887Z" fill="#040506"/>
    <path id="패스_2012" data-name="패스 2012" d="M705.838,261.84h27.443v6.746h-9.6v25.071h-8.219V268.586h-9.623Z" fill="#040506"/>
    <path id="패스_2013" data-name="패스 2013" d="M744.6,261.84l6.371,13.03h.242l6.372-13.03h9.339l-11.668,21.621v10.2h-8.306v-10.2L735.259,261.84Z" fill="#040506"/>
    <path id="패스_2014" data-name="패스 2014" d="M769.822,261.84h13.535a13.253,13.253,0,0,1,6.186,1.385,9.911,9.911,0,0,1,4.131,3.933,11.6,11.6,0,0,1,1.461,5.866,11.115,11.115,0,0,1-1.505,5.856,10.086,10.086,0,0,1-4.231,3.856,13.962,13.962,0,0,1-6.328,1.363h-8.2v-6.548h6.57a6.021,6.021,0,0,0,2.68-.55,3.867,3.867,0,0,0,1.7-1.56,5.31,5.31,0,0,0,0-4.834,3.765,3.765,0,0,0-1.691-1.538,6.246,6.246,0,0,0-2.692-.527h-3.274v25.115h-8.35Z" fill="#040506"/>
    <path id="패스_2015" data-name="패스 2015" d="M798.43,261.84h22.719v6.746h-14.37v5.779h13.206v6.745H806.779v5.8h14.3v6.746H798.43Z" fill="#040506"/>
  </g>
</svg>
