<svg id="그룹_606" data-name="그룹 606" xmlns="http://www.w3.org/2000/svg" width="246.734" height="80.421" viewBox="0 0 246.734 80.421">
  <path id="패스_840" data-name="패스 840" d="M1141.079,667.834a12.49,12.49,0,0,1,.611,6.383,32.249,32.249,0,0,0-5.944,2.36c-1.137.524-.526,2.36.961,1.661a29.341,29.341,0,0,1,13.9-3.235c7.868,0,13.027,3.06,14.337,8.655,1.4,5.682-2.186,9.442-9.616,11.192-5.071,1.136-11.367,1.4-17.4,1.4-11.278,0-16.525-3.847-18.274-10.666a52.3,52.3,0,0,1,0-24.393c1.749-6.82,6.12-10.23,13.552-10.842a109.831,109.831,0,0,1,19.323-.174c7.344.437,11.365,3.322,11.365,8.655,0,5.508-3.584,9.006-11.365,9.006Zm-20.809,47.124c0-10.753,10.492-16.873,35.322-16.873,24.741,0,35.322,6.12,35.322,16.873,0,10.929-8.744,14.252-35.322,14.252C1128.926,729.21,1120.27,725.887,1120.27,714.958Zm28.939.438a13.559,13.559,0,0,0,12.677,0,1.782,1.782,0,0,0,.873-2.1c-.261-.7-1.224-1.31-1.923-.873a11.323,11.323,0,0,1-10.578-.088,1.606,1.606,0,0,0-2.1.787C1147.723,714,1148.159,714.784,1149.209,715.4Zm40.305-28.765a25.164,25.164,0,0,1-.349,2.536c-.788,5.858-5.071,8.481-11.192,8.481-7.08,0-11.714-3.06-10.753-9.531a118.053,118.053,0,0,0,.088-28.851c-1.049-7.169,3.585-10.317,10.666-10.317,6.121,0,10.4,2.711,11.192,8.568.175,1.137.262,2.187.437,3.323l2.8-.263c4.022-.437,6.383,3.5,6.383,13.2,0,9.442-2.36,13.551-6.383,13.115Z" transform="translate(-952.048 -648.949)" fill="#ea5b18"/>
  <g id="그룹_596" data-name="그룹 596" transform="translate(0 2.511)">
    <path id="패스_844" data-name="패스 844" d="M1048.176,688.939c-19.409,1.573-43.452,1.748-62.163,0-4.983-.525-8.044,4.021-8.044,8.393,0,5.245,3.06,8.743,8.044,9.18,5.159.437,10.841.787,16.613.961a20.989,20.989,0,0,0-.351,4.372c0,9.88,3.41,10.141,14.864,10.141s14.776-.261,14.776-10.141a21.983,21.983,0,0,0-.349-4.46c5.682-.174,11.277-.436,16.524-.873,5.159-.437,8.219-3.935,8.219-9.18C1056.307,692.961,1053.247,688.5,1048.176,688.939Z" transform="translate(-977.969 -644.076)" fill="#ea5b18"/>
    <path id="패스_845" data-name="패스 845" d="M980.635,679.109c.147,1.654.348,3.237.616,4.669,1.049,5.245,2.8,7.344,7.344,7.956a209.341,209.341,0,0,0,56.305,0c4.634-.612,6.3-2.711,7.257-7.956a50.612,50.612,0,0,0,.785-6.152c.544-6.617,2.062-32.664-8.462-25.142l-1.169.836a157.639,157.639,0,0,0-53.181.011l-1.185-.847c-12.024-8.594-8.327,26.634-8.327,26.634Zm28.855-8.1a1.518,1.518,0,0,1,2.011-.7,11.012,11.012,0,0,0,10.667.087,1.329,1.329,0,0,1,1.837.787,1.782,1.782,0,0,1-.875,2.274,13.447,13.447,0,0,1-12.5,0C1009.4,672.762,1008.967,671.975,1009.491,671.013Z" transform="translate(-977.579 -651.068)" fill="#ea5b18"/>
  </g>
  <g id="그룹_597" data-name="그룹 597" transform="translate(82.982 2.436)">
    <path id="패스_846" data-name="패스 846" d="M1118.213,688.876c-19.41,1.573-43.453,1.749-62.163,0-4.984-.525-8.044,4.023-8.044,8.393,0,5.245,3.06,8.743,8.044,9.18,5.157.438,10.84.787,16.611.962a21.072,21.072,0,0,0-.351,4.371c0,9.88,3.41,10.142,14.864,10.142s14.776-.262,14.776-10.142a21.97,21.97,0,0,0-.35-4.458c5.682-.175,11.278-.436,16.524-.874,5.159-.437,8.219-3.935,8.219-9.18C1126.343,692.9,1123.283,688.439,1118.213,688.876Z" transform="translate(-1048.006 -644.013)" fill="#ea5b18"/>
    <path id="패스_847" data-name="패스 847" d="M1050.675,679.127c.147,1.626.346,3.181.609,4.59,1.048,5.244,2.8,7.344,7.345,7.955a209.334,209.334,0,0,0,56.3,0c4.634-.611,6.3-2.711,7.257-7.955.282-1.411.5-2.968.654-4.6l.017.01s3.7-35.227-8.328-26.634l-1.091.781a157.539,157.539,0,0,0-53.346,0l-1.1-.786c-12.024-8.594-8.327,26.634-8.327,26.634Zm28.848-8.177a1.519,1.519,0,0,1,2.012-.7,11.013,11.013,0,0,0,10.666.088,1.328,1.328,0,0,1,1.836.787,1.783,1.783,0,0,1-.874,2.274,13.451,13.451,0,0,1-12.5,0C1079.437,672.7,1079,671.914,1079.523,670.95Z" transform="translate(-1047.613 -651.005)" fill="#ea5b18"/>
  </g>
</svg>
