<svg xmlns="http://www.w3.org/2000/svg" width="210.02" height="169.154" viewBox="0 0 210.02 169.154">
  <g id="그룹_1020" data-name="그룹 1020" transform="translate(-713 -4220.062)">
    <g id="그룹_618" data-name="그룹 618" transform="translate(713 4220.062)">
      <g id="그룹_615" data-name="그룹 615" transform="translate(0 68.504)">
        <path id="패스_871" data-name="패스 871" d="M72.451,226.617c-4.241-.373-6.846-3.349-6.846-7.812,0-3.72,2.6-7.589,6.846-7.141a330.6,330.6,0,0,0,52.9,0c4.315-.373,6.918,3.422,6.918,7.141,0,4.463-2.6,7.44-6.993,7.812-4.464.372-9.226.594-14.061.742a18.765,18.765,0,0,1,.3,3.795c0,8.407-2.827,8.631-12.573,8.631s-12.649-.223-12.649-8.631a17.907,17.907,0,0,1,.3-3.72C81.675,227.286,76.839,226.989,72.451,226.617Zm-3.72-25.3a67.163,67.163,0,0,1-.223-18.9c.744-4.464,2.6-6.026,6.472-6.771a133,133,0,0,1,47.913,0c3.944.745,5.729,2.306,6.4,6.771a62.046,62.046,0,0,1-.222,18.9c-.818,4.463-2.232,6.249-6.176,6.771a178.2,178.2,0,0,1-47.913,0C71.111,207.571,69.623,205.784,68.731,201.321Zm35.636-8.779a1.516,1.516,0,0,0,.745-1.935,1.131,1.131,0,0,0-1.562-.67,9.37,9.37,0,0,1-9.077-.074,1.292,1.292,0,0,0-1.711.6c-.445.819-.074,1.488.968,2.083A11.441,11.441,0,0,0,104.367,192.542Z" transform="translate(-65.605 -171.412)" fill="#ea5b18"/>
        <path id="패스_872" data-name="패스 872" d="M137.658,226.617c-4.24-.373-6.845-3.349-6.845-7.812,0-3.72,2.6-7.589,6.845-7.141a330.6,330.6,0,0,0,52.9,0c4.315-.373,6.919,3.422,6.919,7.141,0,4.463-2.6,7.44-6.994,7.812-4.464.372-9.226.594-14.061.742a18.767,18.767,0,0,1,.3,3.795c0,8.407-2.827,8.631-12.573,8.631s-12.649-.223-12.649-8.631a17.825,17.825,0,0,1,.3-3.72C146.882,227.286,142.047,226.989,137.658,226.617Zm-3.72-25.3a67.163,67.163,0,0,1-.223-18.9c.744-4.464,2.6-6.026,6.473-6.771a133,133,0,0,1,47.913,0c3.943.745,5.728,2.306,6.4,6.771a62.046,62.046,0,0,1-.222,18.9c-.818,4.463-2.232,6.249-6.175,6.771a178.2,178.2,0,0,1-47.913,0C136.319,207.571,134.83,205.784,133.938,201.321Zm35.637-8.779a1.516,1.516,0,0,0,.743-1.935,1.13,1.13,0,0,0-1.562-.67,9.37,9.37,0,0,1-9.077-.074,1.293,1.293,0,0,0-1.711.6c-.445.819-.074,1.488.968,2.083A11.443,11.443,0,0,0,169.575,192.542Z" transform="translate(-60.137 -171.412)" fill="#ea5b18"/>
        <path id="패스_873" data-name="패스 873" d="M215.578,187.643a10.628,10.628,0,0,1,.521,5.43,27.527,27.527,0,0,0-5.059,2.009c-.968.445-.447,2.008.818,1.413a24.968,24.968,0,0,1,11.829-2.753c6.7,0,11.086,2.6,12.2,7.366,1.19,4.835-1.86,8.035-8.183,9.523a71.54,71.54,0,0,1-14.805,1.191c-9.6,0-14.062-3.274-15.549-9.077a44.49,44.49,0,0,1,0-20.757c1.487-5.8,5.207-8.705,11.531-9.226a93.475,93.475,0,0,1,16.443-.15c6.248.373,9.671,2.828,9.671,7.366,0,4.687-3.05,7.664-9.671,7.664Zm-17.707,40.1c0-9.151,8.928-14.359,30.057-14.359,21.054,0,30.057,5.208,30.057,14.359,0,9.3-7.441,12.127-30.057,12.127C205.237,239.871,197.871,237.043,197.871,227.744Zm24.626.372a11.534,11.534,0,0,0,10.788,0,1.516,1.516,0,0,0,.743-1.786c-.222-.6-1.042-1.115-1.637-.744a9.629,9.629,0,0,1-9-.075,1.367,1.367,0,0,0-1.786.67C221.233,226.925,221.6,227.594,222.5,228.115Zm34.3-24.477a21.384,21.384,0,0,1-.3,2.157c-.67,4.985-4.314,7.217-9.523,7.217-6.026,0-9.969-2.6-9.151-8.11a100.466,100.466,0,0,0,.075-24.55c-.893-6.1,3.05-8.78,9.076-8.78,5.209,0,8.853,2.308,9.523,7.291.15.968.223,1.861.373,2.828l2.38-.223c3.423-.372,5.431,2.976,5.431,11.234,0,8.036-2.008,11.531-5.431,11.16Z" transform="translate(-54.661 -171.572)" fill="#ea5b18"/>
      </g>
      <g id="그룹_617" data-name="그룹 617" transform="translate(73.068 0)">
        <g id="그룹_616" data-name="그룹 616">
          <path id="패스_874" data-name="패스 874" d="M193.233,140.664h0c-.227-10.057-5.489-26.409-9.227-26.409-3.1,0-8.8,2.8-12.239,8.29a34.369,34.369,0,0,0-15.7,0c-3.433-5.491-9.14-8.29-12.239-8.29-3.738,0-9,16.353-9.226,26.409a25.273,25.273,0,0,0-1.581,8.781c0,15.357,13.142,18.228,30.3,18.228s31.495-2.871,31.495-18.228A25.273,25.273,0,0,0,193.233,140.664Z" transform="translate(-133.02 -107.874)" fill="#09090a"/>
          <path id="패스_875" data-name="패스 875" d="M162.227,108.637a6.023,6.023,0,0,0-2.018,8.446l.309.5.142.231.435.707c1.07,1.74,1.024,2.252-.7,3.314l-3.614,2.222,1.929,3.137,3.614-2.222c3.443-2.118,4.02-4.9,1.887-8.366l-.435-.707-.142-.23-.309-.5a2.381,2.381,0,0,1,.833-3.395,1.841,1.841,0,0,0-1.929-3.137Z" transform="translate(-131.028 -108.368)" fill="#09090a"/>
        </g>
        <ellipse id="타원_187" data-name="타원 187" cx="8.681" cy="12.407" rx="8.681" ry="12.407" transform="translate(9.396 25.246)" fill="#fff"/>
        <ellipse id="타원_188" data-name="타원 188" cx="7.03" cy="10.047" rx="7.03" ry="10.047" transform="translate(11.669 27.606)" fill="#000001"/>
        <ellipse id="타원_189" data-name="타원 189" cx="8.681" cy="12.407" rx="8.681" ry="12.407" transform="translate(35.036 25.246)" fill="#fff"/>
        <ellipse id="타원_190" data-name="타원 190" cx="7.03" cy="10.047" rx="7.03" ry="10.047" transform="translate(36.066 27.606)" fill="#000001"/>
        <path id="패스_876" data-name="패스 876" d="M153.982,141.658h-2.43a.953.953,0,0,0-.674,1.626l.085.085a.279.279,0,0,1,.081.2v1.373a.612.612,0,0,0,.611.611h2.224a.612.612,0,0,0,.611-.611v-1.373a.279.279,0,0,1,.081-.2l.085-.085a.953.953,0,0,0-.674-1.626Z" transform="translate(-131.546 -105.576)" fill="#fff"/>
        <path id="패스_877" data-name="패스 877" d="M171.8,141.658h-2.43a.954.954,0,0,0-.953.953.944.944,0,0,0,.279.673l.085.085a.279.279,0,0,1,.081.2v1.373a.612.612,0,0,0,.612.611H171.7a.612.612,0,0,0,.611-.611v-1.373a.28.28,0,0,1,.082-.2l.083-.085a.952.952,0,0,0-.674-1.626Z" transform="translate(-130.052 -105.576)" fill="#fff"/>
      </g>
    </g>
    <g id="그룹_1018" data-name="그룹 1018" transform="translate(316.892 3872.945)">
      <path id="패스_2016" data-name="패스 2016" d="M421.627,503.911h.811v-1.339h.793v-1.533h.756V499.6h.793v-1.708H425.8v-.828h2.467v.844h.844V512.03h-.844v.862h-2.22v-.862h-.862v-5.477h-.6v1h-.53v1.074h-.6v1.11h-.687v1.18h-.758v.81h-1.69v-.81h-.74v-1.18H418.9v-1.11h-.6v-1.074h-.545v-1h-.6v5.477h-.845v.862h-2.237v-.862h-.845V497.9h.845v-.844h2.465v.828h1.023V499.6h.791v1.443h.758v1.533h.793v1.339h.81v1.144h.915Z" transform="translate(0 0.191)" fill="#040506"/>
      <path id="패스_2017" data-name="패스 2017" d="M440.65,510.022h-1V511.1h-.971v.933h-.9v.862h-6.835v-.862h-.9V511.1h-.967v-1.074h-1.005V497.941h.915v-.881h2.326v.881h.9V508.19h.932v.952h2.432v-.952h.915V497.941h.9v-.881h2.341v.881h.915Z" transform="translate(2.586 0.191)" fill="#040506"/>
      <path id="패스_2018" data-name="패스 2018" d="M448.508,503.911h.809v-1.339h.794v-1.533h.756V499.6h.794v-1.708h1.02v-.828h2.466v.844h.847V512.03h-.847v.862h-2.22v-.862h-.862v-5.477h-.6v1h-.527v1.074h-.6v1.11h-.688v1.18H448.9v.81H447.2v-.81h-.741v-1.18h-.686v-1.11h-.6v-1.074h-.546v-1h-.6v5.477h-.844v.862h-2.238v-.862h-.844V497.9h.844v-.844h2.466v.828h1.023V499.6h.791v1.443h.758v1.533h.791v1.339h.811v1.144h.916Z" transform="translate(4.681 0.191)" fill="#040506"/>
      <path id="패스_2019" data-name="패스 2019" d="M467.531,510.022h-1V511.1h-.969v.933h-.9v.862h-6.835v-.862h-.9V511.1h-.97v-1.074h-1V497.941h.915v-.881H458.2v.881h.9V508.19h.933v.952h2.432v-.952h.917V497.941h.9v-.881h2.344v.881h.915Z" transform="translate(7.266 0.191)" fill="#040506"/>
      <path id="패스_2020" data-name="패스 2020" d="M470.571,496.652v2.218H469.9v1.005h-.776v1.074h-2.394v-1.074h.686V498.87h-.686v-2.218h.686v-.687H469.9v.687Z" transform="translate(9.317)" fill="#040506"/>
      <path id="패스_2021" data-name="패스 2021" d="M476.582,507.624h-3.188v-.58h-.812v-.67h-.775v-.739h-.756v-3.769h.756v-.776h.775V500.4h.812v-.6h7.15v.651h.7v1.991h-.7v.687h-4.722v.457h-.6v.546h.6v.44h3.188v.581h.828v.67h.76v.738h.756v3.787H480.6v.775h-.76v.687h-.828v.6h-7.132v-.652h-.7v-2.008h.7v-.687h4.7v-.457h.6v-.547h-.6Z" transform="translate(10.069 0.669)" fill="#040506"/>
      <path id="패스_2022" data-name="패스 2022" d="M490.283,501.427v-1.233h.952v-1.162h.986v-1.144h1v-.811h2.589v.811h.9v2.378h-.9v1.108h-.949v1.074h-.933v1.023h-.865v1H492.2v.987h.862v1h.865V507.5h.933v1.057h.949v1.127h.9v2.36h-.9v.828h-2.589v-.828h-1v-1.127h-.986v-1.18h-.952v-1.215h-.967v3.558h-.758v.81h-2.605v-.81h-.741V497.87h.741v-.81h2.605v.81h.758v3.556Z" transform="translate(12.535 0.191)" fill="#040506"/>
      <path id="패스_2023" data-name="패스 2023" d="M496.057,500.614h.7V499.8h2.288v.862h.813V499.8h5.055v.809h.809v.863h.775v.97h.7v9.28h-.7v.706h-2.536v-.706h-.7v-7.66h-.7v-.759h-1.85v.759h-.723v7.642h-.7v.7H496.76v-.7h-.7Z" transform="translate(14.423 0.669)" fill="#040506"/>
      <path id="패스_2024" data-name="패스 2024" d="M517.676,502.147v4.808h-.7v.7h-6.393v.687h.847v.722h5.14v.74h.741v1.92h-.741v.687H509.31v-.722h-.916v-.774h-.862v-.847h-.811v-7.924h.811V501.3h.862v-.756h.916v-.74h5.777v.74H516v.756h.864v.847Zm-3.768,2.4V503.7h-.741v-.6h-1.848v.6h-.741v.847Z" transform="translate(16.28 0.669)" fill="#040506"/>
      <path id="패스_2025" data-name="패스 2025" d="M528.217,501.477v10.162h-.688v.775h-8.207v-.687h-.791v-.757h-.756v-.845h-.688v-3.54h.688v-.845h.756v-.756h.791V504.3h5.091v-1.11h-5.742v-.776h-.723v-1.849h.723V499.8h7.962v.775h.773v.9Zm-3.8,5.813h-2.784v.6H521v.863h.633v.6h2.784Z" transform="translate(18.085 0.669)" fill="#040506"/>
      <path id="패스_2026" data-name="패스 2026" d="M537.924,512.219v.7h-7.943v-.81h-.81v-.863h-.756v-.969h-.723v-6.339h.723v-.97h.756v-.862h.81v-.81h4.666v-3.717h.757v-.7h2.483v.7h.741v14.635Zm-5.584-2.836h2.413v-4.544h-2.413v.722h-.669v3.1h.669Z" transform="translate(19.932 0.159)" fill="#040506"/>
      <path id="패스_2027" data-name="패스 2027" d="M541.645,497.583h.7v2.5h-.7v.706h-2.659v-.706h-.7v-2.5h.7v-.7h2.659ZM539,512.923v-.7h-.7V502.5h.7v-.7h2.605v.7h.722v9.722h-.722v.7Z" transform="translate(21.776 0.159)" fill="#040506"/>
      <path id="패스_2028" data-name="패스 2028" d="M543.006,500.614h.7V499.8H546v.862h.811V499.8h5.055v.809h.809v.863h.775v.97h.7v9.28h-.7v.706h-2.536v-.706h-.7v-7.66h-.7v-.759h-1.85v.759h-.722v7.642h-.7v.7h-2.518v-.7h-.7Z" transform="translate(22.598 0.669)" fill="#040506"/>
      <path id="패스_2029" data-name="패스 2029" d="M556.275,510.441v-.687h-.916v-.722h-.864v-.793h-.809v-6.233h.809v-.793h.864v-.722h.916V499.8h7.538v.756h.737v12.663h-.7v.863h-.791v.828h-.811v.687h-7.15v-.687h-.757v-1.973h.757v-.722h4.719V511.5h.846v-1.057Zm1.9-7.291v.634h-.633v2.731h.633v.634h2.5v-4Z" transform="translate(24.458 0.669)" fill="#040506"/>
    </g>
  </g>
</svg>
