<svg id="그룹_607" data-name="그룹 607" xmlns="http://www.w3.org/2000/svg" width="264.293" height="61.036" viewBox="0 0 264.293 61.036">
  <path id="패스_841" data-name="패스 841" d="M1389.659,685.555c-1.387.694-.793,2.478.992,1.982,13.677-4.56,30.924-6.046,38.061-6.046,8.919,0,15.065,3.668,16.056,13.58.594,6.937-1.883,13.679-10.8,15.165-15.662,2.478-37.567,2.181-48.965.892-12.787-1.387-18.833-4.855-20.717-12.587-2.179-8.525-2.179-26.068,0-34.495,1.885-7.83,6.939-11.7,15.365-12.389,7.334-.694,42.621-.794,50.154-.2,8.128.5,12.787,3.867,12.787,10.705,0,7.236-4.164,11.2-12.787,11.2h-34.2a25.616,25.616,0,0,1,.694,9.812C1393.524,684.267,1391.641,684.563,1389.659,685.555Z" transform="translate(-1180.558 -651.068)" fill="#ea5b18"/>
  <path id="패스_842" data-name="패스 842" d="M1292.949,652.549c-1.711,1.223-3.3,2.361-4.783,3.429a149.246,149.246,0,0,0-51.292.014c-1.493-1.072-3.085-2.215-4.8-3.443-11.013-7.87-10,17.78-9.363,26.436-.118,7.3.184,15.481,1.066,20.6,1.054,6.705,2.969,9.292,7.95,10.154a201.887,201.887,0,0,0,61.679,0c5.075-.862,6.9-3.448,7.948-10.154.931-5.4,1.216-14.2,1.043-21.789C1303.009,668.206,1303.493,645.013,1292.949,652.549Zm-23.395,29.6a14.741,14.741,0,0,1-13.7,0c-1.341-.671-1.82-1.629-1.244-2.587a1.709,1.709,0,0,1,2.2-.862,12.6,12.6,0,0,0,11.685.1,1.522,1.522,0,0,1,2.012.862A1.954,1.954,0,0,1,1269.554,682.15Z" transform="translate(-1222.354 -651.068)" fill="#ea5b18"/>
  <path id="패스_843" data-name="패스 843" d="M1363.088,652.549c-1.715,1.225-3.3,2.365-4.793,3.436a149.281,149.281,0,0,0-51.292,0c-1.489-1.071-3.078-2.21-4.793-3.436-10.765-7.694-10.036,16.647-9.406,25.831-.146,7.454.15,15.945,1.056,21.2,1.053,6.705,2.969,9.29,7.948,10.152a201.81,201.81,0,0,0,61.679,0c5.076-.862,6.9-3.447,7.95-10.152.906-5.255,1.2-13.746,1.057-21.2C1373.123,669.2,1373.853,644.855,1363.088,652.549Zm-23.448,29.6a14.731,14.731,0,0,1-13.7,0c-1.341-.67-1.82-1.629-1.245-2.585a1.707,1.707,0,0,1,2.2-.862,12.59,12.59,0,0,0,11.684.095,1.523,1.523,0,0,1,2.012.862A1.952,1.952,0,0,1,1339.64,682.149Z" transform="translate(-1201.458 -651.068)" fill="#ea5b18"/>
</svg>
