<svg xmlns="http://www.w3.org/2000/svg" width="832.725" height="115.434" viewBox="0 0 832.725 115.434">
  <g id="그룹_574" data-name="그룹 574" transform="translate(24.618 -780.485)">
    <path id="패스_805" data-name="패스 805" d="M58.793,894.673a21.705,21.705,0,0,1-10.815-2.841,22.468,22.468,0,0,1-8.17-7.855,21.578,21.578,0,0,1-3.117-11.644q0-7.735,5.209-16.892a68.133,68.133,0,0,0,6.433-16.458,76.994,76.994,0,0,0,2.8-20.248q0-4.1-1.658-4.5-.869,0-2.407,2.132a22.711,22.711,0,0,0-2.763,5.446,19.643,19.643,0,0,0-1.224,6.867,17.056,17.056,0,0,0,1.184,6.159,9.96,9.96,0,0,1,.869,3.867,6.657,6.657,0,0,1-1.9,4.855,11.914,11.914,0,0,1-4.894,2.92,20.589,20.589,0,0,1-12.591,0,11.891,11.891,0,0,1-4.932-2.92,6.657,6.657,0,0,1-1.9-4.855,9.936,9.936,0,0,1,.869-3.867,16.434,16.434,0,0,0,1.184-6.079,19.685,19.685,0,0,0-1.262-6.985,22.762,22.762,0,0,0-2.842-5.488q-1.58-2.131-2.368-2.131-1.5,0-1.5,5.368v2.763A60.545,60.545,0,0,0,15.891,840.8a69.042,69.042,0,0,0,6.275,14.643q5.21,9.158,5.209,16.892a21.579,21.579,0,0,1-3.118,11.644,22.551,22.551,0,0,1-8.129,7.855,21.647,21.647,0,0,1-10.854,2.841q-9.709,0-16.143-3.432a23.4,23.4,0,0,1-9.592-8.92,22.989,22.989,0,0,1-3.156-11.644,26,26,0,0,1,.71-6,188.511,188.511,0,0,1,6.157-18.946q3.077-7.972,5.407-15.748a52.614,52.614,0,0,0,2.329-15.117,32.666,32.666,0,0,0-1.067-8.327,31.116,31.116,0,0,0-3.473-8.091,14.149,14.149,0,0,1-2.407-6.947,7.045,7.045,0,0,1,2.565-5.645,16.266,16.266,0,0,1,6.591-3.2,34.075,34.075,0,0,1,8.446-1.027A30.731,30.731,0,0,1,11,783.213a17.381,17.381,0,0,1,8.327,5.762l1.579,2.053Q24.849,796.317,27.3,799t4.578,2.684q2.287,0,5.131-3.118t7.735-9.592a17.362,17.362,0,0,1,8.368-5.762,30.88,30.88,0,0,1,9.315-1.579,34.083,34.083,0,0,1,8.446,1.027,16.275,16.275,0,0,1,6.591,3.2,7.049,7.049,0,0,1,2.565,5.645,14.163,14.163,0,0,1-2.407,6.947,30.971,30.971,0,0,0-3.473,8.131,32.808,32.808,0,0,0-1.067,8.288,52.523,52.523,0,0,0,2.329,15.117q2.329,7.776,5.407,15.748a189.186,189.186,0,0,1,6.157,18.946,24.93,24.93,0,0,1,.712,5.919,23.067,23.067,0,0,1-12.709,20.643Q68.58,894.672,58.793,894.673Z" transform="translate(0 0.048)" fill="#fbf8f4" stroke="#fbf8f4" stroke-width="2"/>
    <path id="패스_806" data-name="패스 806" d="M136.385,894.673a23.278,23.278,0,0,1-13.42-4.341,32.382,32.382,0,0,1-4.145-3.316q-1.145-1.184-1.853-1.184a3.647,3.647,0,0,0-2.013,1.224q-1.3,1.224-4.224,3.434A21.016,21.016,0,0,1,98.1,894.673q-11.6,0-19.143-3.2t-11.209-8.8a22.958,22.958,0,0,1-3.67-12.867,51.662,51.662,0,0,1,2.091-14.524q2.091-7.182,4.776-14.208,2.525-6.632,4.459-13.183a45.554,45.554,0,0,0,1.934-12.946,32.867,32.867,0,0,0-1.065-8.288,30.229,30.229,0,0,0-3.552-8.17q-2.485-4.065-2.486-6.986a7.045,7.045,0,0,1,2.565-5.645,16.265,16.265,0,0,1,6.631-3.2,35.556,35.556,0,0,1,17.129.04,17.708,17.708,0,0,1,6.789,3.2,6.619,6.619,0,0,1,2.644,5.369,11.37,11.37,0,0,1-2.368,6.156,20.708,20.708,0,0,0-2.8,6.829,38.207,38.207,0,0,0-.986,8.88,43.391,43.391,0,0,0,2.131,14.209,25.77,25.77,0,0,0,5.447,9.591q3.317,3.434,6.947,3.434a7.676,7.676,0,0,0,5.211-2.21,15.725,15.725,0,0,0,3.985-6.75,36.566,36.566,0,0,0,1.539-11.564,72.65,72.65,0,0,0-.986-12.788,22.382,22.382,0,0,0-4.144-9.63q-2.685-3.63-2.684-6.473a6.388,6.388,0,0,1,2.6-5.17,17.246,17.246,0,0,1,6.671-3.118,34.215,34.215,0,0,1,8.407-1.027,34.589,34.589,0,0,1,8.644,1.067,16.746,16.746,0,0,1,6.788,3.315,7.354,7.354,0,0,1,2.644,5.881,14.427,14.427,0,0,1-2.131,6.709,29.734,29.734,0,0,0-3.869,14.682,38.4,38.4,0,0,0,1.58,10.065q1.578,5.725,3.908,11.88T157.3,847.39q2.842,6.867,4.894,12.471a27.471,27.471,0,0,1,2.053,8.606,29.148,29.148,0,0,1-3.039,13.5,21.947,21.947,0,0,1-9.2,9.315Q145.857,894.675,136.385,894.673Z" transform="translate(28.074 0.048)" fill="#fbf8f4" stroke="#fbf8f4" stroke-width="2"/>
    <path id="패스_807" data-name="패스 807" d="M225.751,894.673a21.7,21.7,0,0,1-10.815-2.841,22.457,22.457,0,0,1-8.17-7.855,21.579,21.579,0,0,1-3.118-11.644q0-7.735,5.211-16.892a68.134,68.134,0,0,0,6.433-16.458,76.994,76.994,0,0,0,2.8-20.248q0-4.1-1.658-4.5-.869,0-2.408,2.132a22.808,22.808,0,0,0-2.763,5.446,19.673,19.673,0,0,0-1.224,6.867,17.056,17.056,0,0,0,1.184,6.159,9.96,9.96,0,0,1,.869,3.867,6.656,6.656,0,0,1-1.894,4.855,11.919,11.919,0,0,1-4.9,2.92,20.585,20.585,0,0,1-12.59,0,11.9,11.9,0,0,1-4.933-2.92,6.661,6.661,0,0,1-1.894-4.855,9.913,9.913,0,0,1,.869-3.867,16.435,16.435,0,0,0,1.184-6.079,19.685,19.685,0,0,0-1.263-6.985,22.668,22.668,0,0,0-2.842-5.488q-1.578-2.131-2.367-2.131-1.5,0-1.5,5.368v2.763a60.543,60.543,0,0,0,2.881,18.511,69.11,69.11,0,0,0,6.275,14.643q5.21,9.158,5.211,16.892a21.579,21.579,0,0,1-3.118,11.644,22.572,22.572,0,0,1-8.129,7.855,21.651,21.651,0,0,1-10.854,2.841q-9.709,0-16.144-3.432a23.4,23.4,0,0,1-9.591-8.92,22.989,22.989,0,0,1-3.156-11.644,26,26,0,0,1,.709-6,188.52,188.52,0,0,1,6.158-18.946q3.077-7.972,5.406-15.748a52.568,52.568,0,0,0,2.329-15.117,32.724,32.724,0,0,0-1.065-8.327,31.116,31.116,0,0,0-3.473-8.091A14.153,14.153,0,0,1,151,791.5a7.047,7.047,0,0,1,2.566-5.645,16.267,16.267,0,0,1,6.591-3.2,34.075,34.075,0,0,1,8.446-1.027,30.738,30.738,0,0,1,9.354,1.579,17.387,17.387,0,0,1,8.327,5.762l1.579,2.053q3.947,5.289,6.393,7.974t4.578,2.684q2.289,0,5.131-3.118t7.736-9.592a17.362,17.362,0,0,1,8.368-5.762,30.872,30.872,0,0,1,9.314-1.579,34.076,34.076,0,0,1,8.446,1.027,16.267,16.267,0,0,1,6.591,3.2,7.047,7.047,0,0,1,2.566,5.645,14.153,14.153,0,0,1-2.408,6.947,31.061,31.061,0,0,0-3.473,8.131,32.866,32.866,0,0,0-1.065,8.288,52.523,52.523,0,0,0,2.329,15.117q2.327,7.776,5.407,15.748a189.188,189.188,0,0,1,6.157,18.946,24.93,24.93,0,0,1,.71,5.919,23.067,23.067,0,0,1-12.709,20.643Q235.539,894.672,225.751,894.673Z" transform="translate(53.448 0.048)" fill="#fbf8f4" stroke="#fbf8f4" stroke-width="2"/>
    <path id="패스_808" data-name="패스 808" d="M303.342,894.673a23.277,23.277,0,0,1-13.419-4.341,32.376,32.376,0,0,1-4.145-3.316q-1.145-1.184-1.854-1.184a3.647,3.647,0,0,0-2.013,1.224q-1.3,1.224-4.224,3.434a21.02,21.02,0,0,1-12.63,4.184q-11.6,0-19.142-3.2t-11.209-8.8a22.959,22.959,0,0,1-3.671-12.867,51.663,51.663,0,0,1,2.092-14.524q2.089-7.182,4.776-14.208,2.525-6.632,4.459-13.183a45.6,45.6,0,0,0,1.934-12.946,32.867,32.867,0,0,0-1.065-8.288,30.228,30.228,0,0,0-3.552-8.17q-2.485-4.065-2.486-6.986a7.045,7.045,0,0,1,2.565-5.645,16.259,16.259,0,0,1,6.63-3.2,35.561,35.561,0,0,1,17.13.04,17.7,17.7,0,0,1,6.788,3.2,6.619,6.619,0,0,1,2.644,5.369,11.367,11.367,0,0,1-2.367,6.156,20.651,20.651,0,0,0-2.8,6.829,38.207,38.207,0,0,0-.986,8.88,43.391,43.391,0,0,0,2.131,14.209,25.752,25.752,0,0,0,5.447,9.591q3.315,3.434,6.947,3.434a7.678,7.678,0,0,0,5.211-2.21,15.738,15.738,0,0,0,3.985-6.75,36.566,36.566,0,0,0,1.539-11.564,72.65,72.65,0,0,0-.986-12.788,22.382,22.382,0,0,0-4.144-9.63q-2.685-3.63-2.684-6.473a6.388,6.388,0,0,1,2.6-5.17,17.237,17.237,0,0,1,6.671-3.118,34.214,34.214,0,0,1,8.407-1.027,34.579,34.579,0,0,1,8.643,1.067,16.729,16.729,0,0,1,6.788,3.315A7.351,7.351,0,0,1,320,791.9a14.412,14.412,0,0,1-2.131,6.709A29.733,29.733,0,0,0,314,813.288a38.4,38.4,0,0,0,1.58,10.065q1.576,5.725,3.906,11.88t4.776,12.157q2.842,6.867,4.894,12.471a27.5,27.5,0,0,1,2.051,8.606,29.147,29.147,0,0,1-3.038,13.5,21.943,21.943,0,0,1-9.2,9.315Q312.814,894.675,303.342,894.673Z" transform="translate(81.522 0.048)" fill="#fbf8f4" stroke="#fbf8f4" stroke-width="2"/>
    <path id="패스_809" data-name="패스 809" d="M458.292,894.673a32.719,32.719,0,0,1-9.629-1.5,30.042,30.042,0,0,1-9-4.5,23.285,23.285,0,0,1-6.631-7.5,21.087,21.087,0,0,1-2.525-10.5q0-7.343,4.735-16.815,3.867-7.893,3.868-13.34a13.1,13.1,0,0,0-1.539-6.671,10.348,10.348,0,0,0-3.987-3.985,10.514,10.514,0,0,0-5.13-1.343,9.828,9.828,0,0,0-8.565,5.013,12.06,12.06,0,0,0-1.461,6.2q0,6.156,4.343,14.129,5.129,9.869,5.13,17.288a20.147,20.147,0,0,1-2.6,10.419,23.226,23.226,0,0,1-6.788,7.341,30.548,30.548,0,0,1-9.158,4.342,34.968,34.968,0,0,1-9.63,1.42q-10.343,0-17.484-5.406t-7.145-13.776a30.076,30.076,0,0,1,1.7-9.67,79.863,79.863,0,0,1,4.381-10.341q2.681-5.329,5.683-10.775,3.315-5.84,6.236-11.723a90.209,90.209,0,0,0,4.854-11.721,36.318,36.318,0,0,0,1.934-11.447,25.829,25.829,0,0,0-1.026-7.183,14.946,14.946,0,0,1-.632-4.1,11.853,11.853,0,0,1,4.421-9.434,28.787,28.787,0,0,1,11.366-5.6,58.068,58.068,0,0,1,29.129,0,28.8,28.8,0,0,1,11.366,5.6,11.856,11.856,0,0,1,4.421,9.434,15,15,0,0,1-.632,4.1,24.963,24.963,0,0,0-1.026,7.1,35.024,35.024,0,0,0,2.013,11.446,87.7,87.7,0,0,0,5.052,11.721q3.038,5.881,6.354,11.723,3.158,5.527,5.921,10.815a79.17,79.17,0,0,1,4.539,10.341,29.244,29.244,0,0,1,1.776,9.71q0,8.368-7.143,13.776T458.292,894.673Zm-29.127-75.385a7.878,7.878,0,0,0,4.223-1.145,3.99,3.99,0,0,0,1.855-3.671,8.888,8.888,0,0,0-.71-3.158q-2.842-6.234-5.921-6.235-3.394,0-6.314,7.419a5.522,5.522,0,0,0-.316,1.737,4.123,4.123,0,0,0,2.289,3.71A9.5,9.5,0,0,0,429.165,819.288Z" transform="translate(127.639 0.048)" fill="#fbf8f4" stroke="#fbf8f4" stroke-width="2"/>
    <path id="패스_810" data-name="패스 810" d="M538.367,894.673a22.7,22.7,0,0,1-11.445-3.118,24.7,24.7,0,0,1-8.841-8.6,23.429,23.429,0,0,1-3.394-12.59q0-7.182,4.342-15.55a24.785,24.785,0,0,0,3.079-11.447,23.444,23.444,0,0,0-2.33-10.341,32.373,32.373,0,0,0-5.88-8.486,29.863,29.863,0,0,0-7.539-5.762,15.816,15.816,0,0,0-7.222-2.091,6.623,6.623,0,0,0-4.894,1.893q-1.9,1.895-1.894,6.158,0,10.182,12.156,30.706,5.21,8.921,5.211,16.892a21.793,21.793,0,0,1-3.118,11.683,22.217,22.217,0,0,1-18.985,10.656q-9.709,0-16.143-3.432a23.4,23.4,0,0,1-9.591-8.92,22.977,22.977,0,0,1-3.158-11.644q0-6.788,6.789-24.628,3.077-8.053,5.446-15.867a52.643,52.643,0,0,0,2.368-15.315,32.723,32.723,0,0,0-1.065-8.327,30.548,30.548,0,0,0-3.473-8.051,14.026,14.026,0,0,1-2.408-6.986,7.045,7.045,0,0,1,2.565-5.645,16.275,16.275,0,0,1,6.591-3.2,34.091,34.091,0,0,1,8.446-1.027,36.027,36.027,0,0,1,8.17.908,19.966,19.966,0,0,1,7.617,3.75,55.965,55.965,0,0,1,9.868,11.523q3.315,4.738,7.341,9.473,5.683,6.238,7.736,6.236,1.42,0,1.42-2.131a25.124,25.124,0,0,0-1.5-7.856,25.782,25.782,0,0,0-2.684-6.117q-2.685-3.63-2.684-6.473a6.391,6.391,0,0,1,2.6-5.17,17.262,17.262,0,0,1,6.631-3.118,34.075,34.075,0,0,1,8.446-1.027,34.582,34.582,0,0,1,8.644,1.067,16.738,16.738,0,0,1,6.788,3.315,7.354,7.354,0,0,1,2.644,5.881,14.084,14.084,0,0,1-2.131,6.709,30.027,30.027,0,0,0-3.868,14.682,49.771,49.771,0,0,0,2.8,16.065q2.8,8.25,6.354,16.7,7.972,18.469,7.972,25.733a22.149,22.149,0,0,1-3,11.168,21.882,21.882,0,0,1-9.2,8.487Q547.76,894.675,538.367,894.673Z" transform="translate(154.411 0.048)" fill="#fbf8f4" stroke="#fbf8f4" stroke-width="2"/>
    <path id="패스_811" data-name="패스 811" d="M578.8,894.869a31.861,31.861,0,0,1-20.288-6.828q-8.685-6.828-13.538-18.828t-4.854-27.628a75.594,75.594,0,0,1,3.2-21.748,68.917,68.917,0,0,1,9.118-19.339,47.573,47.573,0,0,1,14.288-13.815,34.883,34.883,0,0,1,18.709-5.17q12.628,0,21.588,6.591t9.354,17.011a10.532,10.532,0,0,1-2.525,7.065,16.474,16.474,0,0,1-6.316,4.537,19.345,19.345,0,0,1-7.5,1.58,13.013,13.013,0,0,1-6.118-1.422,7.844,7.844,0,0,1-3.828-4.421q-.16-.63-.4-2.13-.394-2.368-1.184-5.406a18.771,18.771,0,0,0-2.329-5.447,4.838,4.838,0,0,0-4.3-2.408q-2.527,0-4.382,2.92a23.093,23.093,0,0,0-2.842,7.657,49.426,49.426,0,0,0-.986,10.1q.077,10.42,1.894,16.537t4.7,8.644a9.326,9.326,0,0,0,6.275,2.525,9.567,9.567,0,0,0,6.672-2.644,7.73,7.73,0,0,0,2.881-5.723q0-1.341-2.684-1.343a16.239,16.239,0,0,0-3.158.474,17.806,17.806,0,0,1-3.868.553,3.933,3.933,0,0,1-3.67-2.289,10.53,10.53,0,0,1-1.224-5.054,11.163,11.163,0,0,1,1.3-5.406,4.587,4.587,0,0,1,3.985-2.566,23.474,23.474,0,0,1,4.263.553,43.373,43.373,0,0,0,8.841.869,23.409,23.409,0,0,0,3.592-.276,20.944,20.944,0,0,1,3.2-.277q10.578,0,15.71,13.419,4.263,11.289,4.261,28.26,0,18.077-4.1,28.417-.552,1.028-3.2,1.7a23.583,23.583,0,0,1-5.8.671,20.392,20.392,0,0,1-6.71-1.065q-3.077-1.065-3.079-3.592.079-2.052.158-3t.078-3a11.945,11.945,0,0,0-.393-3.592c-.264-.762-.581-1.145-.948-1.145q-1.184,0-3.078,4.263a17.332,17.332,0,0,1-8.21,8.408A27.675,27.675,0,0,1,578.8,894.869Z" transform="translate(180.471 0.01)" fill="#fbf8f4" stroke="#fbf8f4" stroke-width="2"/>
    <g id="그룹_573" data-name="그룹 573" transform="translate(415.97 781.485)">
      <path id="패스_812" data-name="패스 812" d="M351.772,821.522h0c-2.037.5-8.84,4.018-6.671,7.4.722,1.125,2.077,1.279,3.542.862,2.647-.754,5.659-3.357,6.009-5.467A2.3,2.3,0,0,0,351.772,821.522Z" transform="translate(-298.066 -768.693)" fill="#fbf8f4" stroke="#fbf8f4" stroke-width="2"/>
      <path id="패스_813" data-name="패스 813" d="M351.638,830.659h0c-2.037.5-8.841,4.025-6.672,7.409.723,1.125,2.077,1.279,3.543.861,2.646-.753,5.659-3.362,6.008-5.465A2.3,2.3,0,0,0,351.638,830.659Z" transform="translate(-298.109 -765.768)" fill="#fbf8f4" stroke="#fbf8f4" stroke-width="2"/>
      <path id="패스_814" data-name="패스 814" d="M347.98,820.735c2.646-.754,5.658-3.357,6.008-5.467a2.3,2.3,0,0,0-2.881-2.8h0c-2.037.5-8.84,4.025-6.671,7.4C345.161,821,346.514,821.152,347.98,820.735Z" transform="translate(-298.279 -771.591)" fill="#fbf8f4" stroke="#fbf8f4" stroke-width="2"/>
      <path id="패스_815" data-name="패스 815" d="M395.412,819.256a55.066,55.066,0,0,0-25.181-29.286,66.019,66.019,0,0,0-16.694-6.473,71.276,71.276,0,0,0-16.3-2.013q-10.5,0-17.485,3.158t-6.986,8.446q0,3.788,3.237,9.315a30.231,30.231,0,0,1,4.42,16.024,48,48,0,0,1-1.776,12.826q-1.776,6.436-3.987,12.75-2.131,6-3.71,11.8a42.468,42.468,0,0,0-1.579,11.17q0,9.236,4.578,15.432a28.167,28.167,0,0,0,12.275,9.354A43.786,43.786,0,0,0,343,894.919a61.678,61.678,0,0,0,19.576-3.316,59.562,59.562,0,0,0,18.235-9.867,50.837,50.837,0,0,0,13.419-16.182,46.457,46.457,0,0,0,5.13-22.181Q399.358,829.559,395.412,819.256Zm-24.469,22.582c-.494,7.4-1.864,15.444-7.294,20.285-4.684,4.177-12.062,4.911-16.524.477-3.361-3.335-4.438-8.646-4.9-13.632a122.517,122.517,0,0,1,.231-25.361c.524-4.251,2.071-8.83,5.658-10.958,7.009-4.161,14.991-.37,18.729,6.779h0C370.343,826.1,371.461,834.208,370.944,841.839Z" transform="translate(-309.37 -781.485)" fill="#fbf8f4" stroke="#fbf8f4" stroke-width="2"/>
    </g>
  </g>
</svg>
