<svg xmlns="http://www.w3.org/2000/svg" width="225.488" height="35.84" viewBox="0 0 225.488 35.84">
  <g id="그룹_1024" data-name="그룹 1024" transform="translate(-609.311 -350.676)">
    <path id="패스_2030" data-name="패스 2030" d="M609.311,350.676h10.327l4.98,22.119h.293l5.811-22.119h8.252l5.835,22.217h.293l4.956-22.217h10.351l-10.351,35.351h-8.985l-6.079-20.239h-.268l-6.1,20.239h-8.911Z" fill="#fbf8f4"/>
    <path id="패스_2031" data-name="패스 2031" d="M666.036,384.88a11.32,11.32,0,0,1-4.724-4.712,15.208,15.208,0,0,1-1.66-7.324,15.025,15.025,0,0,1,1.66-7.2A11.649,11.649,0,0,1,666,360.856a14.274,14.274,0,0,1,7.056-1.684,14.128,14.128,0,0,1,6.909,1.623,11.135,11.135,0,0,1,4.565,4.687,15.355,15.355,0,0,1,1.612,7.24v2.221H662.631v-5.175h14.99a3.891,3.891,0,0,0-.586-2.124,4,4,0,0,0-1.575-1.441,4.722,4.722,0,0,0-2.209-.513,4.912,4.912,0,0,0-2.271.525,4.02,4.02,0,0,0-1.611,1.465,4.312,4.312,0,0,0-.635,2.136v5.469a5.172,5.172,0,0,0,.574,2.453,3.969,3.969,0,0,0,1.648,1.673,5.113,5.113,0,0,0,2.49.586,5.451,5.451,0,0,0,1.856-.306,4.574,4.574,0,0,0,1.453-.817,2.947,2.947,0,0,0,.866-1.27h8.5a9.668,9.668,0,0,1-2.112,4.724,10.729,10.729,0,0,1-4.431,3.1,17.12,17.12,0,0,1-6.3,1.086A15.155,15.155,0,0,1,666.036,384.88Z" fill="#fbf8f4"/>
    <path id="패스_2032" data-name="패스 2032" d="M699.325,386.027H690.1V350.676h9.228Z" fill="#fbf8f4"/>
    <path id="패스_2033" data-name="패스 2033" d="M709.6,384.807a11.557,11.557,0,0,1-4.712-4.81,16.51,16.51,0,0,1,0-14.331,11.6,11.6,0,0,1,4.712-4.785,14.8,14.8,0,0,1,7.3-1.709,15.3,15.3,0,0,1,6.653,1.367,10.206,10.206,0,0,1,4.431,3.918,11.115,11.115,0,0,1,1.563,5.921h-8.57a6.5,6.5,0,0,0-.659-2.344,3.673,3.673,0,0,0-1.342-1.477,3.722,3.722,0,0,0-1.954-.5,3.646,3.646,0,0,0-2.3.756,4.813,4.813,0,0,0-1.513,2.247,12.923,12.923,0,0,0,0,7.373,4.8,4.8,0,0,0,1.513,2.246,3.635,3.635,0,0,0,2.3.757,3.915,3.915,0,0,0,1.978-.489,3.467,3.467,0,0,0,1.355-1.44,6.2,6.2,0,0,0,.622-2.344h8.57a11.728,11.728,0,0,1-1.6,5.993,10.262,10.262,0,0,1-4.382,3.968,14.949,14.949,0,0,1-6.665,1.392A14.8,14.8,0,0,1,709.6,384.807Z" fill="#fbf8f4"/>
    <path id="패스_2034" data-name="패스 2034" d="M738.925,384.807a11.564,11.564,0,0,1-4.712-4.81,16.51,16.51,0,0,1,0-14.331,11.6,11.6,0,0,1,4.712-4.785,16.443,16.443,0,0,1,14.6,0,11.574,11.574,0,0,1,4.737,4.785,16.519,16.519,0,0,1,0,14.331,11.534,11.534,0,0,1-4.737,4.81,16.443,16.443,0,0,1-14.6,0Zm9.619-5.969a5.317,5.317,0,0,0,1.416-2.418,12.453,12.453,0,0,0,.488-3.674,12.249,12.249,0,0,0-.488-3.638,5.225,5.225,0,0,0-1.416-2.392,3.221,3.221,0,0,0-2.222-.83,3.5,3.5,0,0,0-2.343.83,5.073,5.073,0,0,0-1.477,2.368,11.877,11.877,0,0,0-.5,3.662,12.092,12.092,0,0,0,.5,3.7,5.159,5.159,0,0,0,1.477,2.393,3.471,3.471,0,0,0,2.343.842A3.2,3.2,0,0,0,748.544,378.838Z" fill="#fbf8f4"/>
    <path id="패스_2035" data-name="패스 2035" d="M763.827,359.514h8.765v4.98h.244a7.788,7.788,0,0,1,2.868-3.918,7.984,7.984,0,0,1,4.725-1.4,8.719,8.719,0,0,1,3.381.646,6.512,6.512,0,0,1,2.551,1.856,6.243,6.243,0,0,1,1.319,2.82h.244a7.213,7.213,0,0,1,1.66-2.82,7.66,7.66,0,0,1,2.8-1.856,9.655,9.655,0,0,1,3.552-.646,8.927,8.927,0,0,1,4.479,1.1,7.575,7.575,0,0,1,3.016,3.137,10.043,10.043,0,0,1,1.074,4.748v17.871h-9.253v-15.6a4.026,4.026,0,0,0-.915-2.8,3.12,3.12,0,0,0-2.43-1.013,3.346,3.346,0,0,0-1.769.452,3.012,3.012,0,0,0-1.16,1.319,4.712,4.712,0,0,0-.415,2.062v15.576h-8.838V370.4a4.707,4.707,0,0,0-.4-2.013,2.914,2.914,0,0,0-1.159-1.319,3.413,3.413,0,0,0-1.782-.452,3.236,3.236,0,0,0-1.746.464,3.1,3.1,0,0,0-1.159,1.33,4.785,4.785,0,0,0-.415,2.088v15.527h-9.229Z" fill="#fbf8f4"/>
    <path id="패스_2036" data-name="패스 2036" d="M814.693,384.88a11.312,11.312,0,0,1-4.723-4.712,15.2,15.2,0,0,1-1.66-7.324,15.014,15.014,0,0,1,1.66-7.2,11.646,11.646,0,0,1,4.687-4.786,14.274,14.274,0,0,1,7.056-1.684,14.125,14.125,0,0,1,6.909,1.623,11.135,11.135,0,0,1,4.565,4.687,15.342,15.342,0,0,1,1.612,7.24v2.221H811.288v-5.175h14.99a3.892,3.892,0,0,0-.586-2.124,4,4,0,0,0-1.575-1.441,4.719,4.719,0,0,0-2.209-.513,4.9,4.9,0,0,0-2.27.525,4.016,4.016,0,0,0-1.612,1.465,4.3,4.3,0,0,0-.634,2.136v5.469a5.171,5.171,0,0,0,.573,2.453,3.975,3.975,0,0,0,1.648,1.673A5.115,5.115,0,0,0,822.1,380a5.441,5.441,0,0,0,1.855-.306,4.562,4.562,0,0,0,1.453-.817,2.93,2.93,0,0,0,.866-1.27h8.5a9.668,9.668,0,0,1-2.112,4.724,10.729,10.729,0,0,1-4.431,3.1,17.115,17.115,0,0,1-6.3,1.086A15.157,15.157,0,0,1,814.693,384.88Z" fill="#fbf8f4"/>
  </g>
</svg>
