<svg xmlns="http://www.w3.org/2000/svg" width="177.696" height="58.222" viewBox="0 0 177.696 58.222">
  <g id="그룹_723" data-name="그룹 723" transform="translate(-382.092 112.982)">
    <g id="그룹_721" data-name="그룹 721" transform="translate(382.092 -107.342)">
      <path id="패스_947" data-name="패스 947" d="M44.35,29.44h0c-.166-7.407-4.042-19.452-6.8-19.452-2.283,0-6.484,2.062-9.015,6.106a25.313,25.313,0,0,0-11.566,0c-2.528-4.044-6.732-6.106-9.015-6.106-2.753,0-6.629,12.045-6.8,19.452A18.6,18.6,0,0,0,0,35.908C0,47.219,9.679,49.334,22.317,49.334s23.2-2.115,23.2-13.426A18.614,18.614,0,0,0,44.35,29.44" transform="translate(0 -5.288)" fill="#040506"/>
      <path id="패스_948" data-name="패스 948" d="M29.553,3.858a4.436,4.436,0,0,0-1.487,6.221l.228.371.1.169.32.521c.788,1.281.754,1.659-.518,2.441L25.54,15.218l1.421,2.31,2.662-1.637c2.537-1.559,2.962-3.606,1.39-6.161l-.32-.521-.1-.17-.228-.371a1.754,1.754,0,0,1,.613-2.5,1.356,1.356,0,0,0-1.421-2.31" transform="translate(-6.574 -3.66)" fill="#040506"/>
      <path id="패스_949" data-name="패스 949" d="M22.108,37.839c0,5.048-2.863,9.139-6.394,9.139S9.32,42.886,9.32,37.839,12.182,28.7,15.714,28.7s6.394,4.091,6.394,9.139" transform="translate(-2.399 -10.105)" fill="#fff"/>
      <path id="패스_950" data-name="패스 950" d="M21.929,38.441c0,4.087-2.318,7.4-5.177,7.4s-5.178-3.313-5.178-7.4,2.318-7.4,5.178-7.4,5.177,3.313,5.177,7.4" transform="translate(-2.979 -10.707)" fill="#040506"/>
      <path id="패스_951" data-name="패스 951" d="M47.539,37.839c0,5.048-2.863,9.139-6.394,9.139s-6.394-4.091-6.394-9.139S37.613,28.7,41.145,28.7s6.394,4.091,6.394,9.139" transform="translate(-8.945 -10.105)" fill="#fff"/>
      <path id="패스_952" data-name="패스 952" d="M46.127,38.441c0,4.087-2.318,7.4-5.177,7.4s-5.178-3.313-5.178-7.4,2.318-7.4,5.178-7.4,5.177,3.313,5.177,7.4" transform="translate(-9.207 -10.707)" fill="#040506"/>
      <path id="패스_953" data-name="패스 953" d="M21.388,39.447H19.6a.7.7,0,0,0-.5,1.2l.062.062a.206.206,0,0,1,.06.145v1.011a.451.451,0,0,0,.45.451h1.638a.451.451,0,0,0,.45-.451V40.852a.206.206,0,0,1,.06-.145l.062-.062a.7.7,0,0,0,.206-.5.7.7,0,0,0-.7-.7" transform="translate(-4.864 -12.871)" fill="#fff"/>
      <path id="패스_954" data-name="패스 954" d="M40.544,39.447h-1.79a.7.7,0,0,0-.5,1.2l.062.062a.206.206,0,0,1,.06.145v1.011a.451.451,0,0,0,.45.451h1.638a.451.451,0,0,0,.45-.451V40.852a.206.206,0,0,1,.06-.145l.062-.062a.7.7,0,0,0,.206-.5.7.7,0,0,0-.7-.7" transform="translate(-9.794 -12.871)" fill="#fff"/>
    </g>
    <g id="그룹_722" data-name="그룹 722" transform="translate(421.212 -41.275)">
      <path id="패스_958" data-name="패스 958" d="M84.264,32.351a4.112,4.112,0,0,1-3.9-4.455c0-2.122,1.485-4.328,3.9-4.073a188.5,188.5,0,0,0,30.165,0c2.46-.212,3.945,1.951,3.945,4.073a4.124,4.124,0,0,1-3.988,4.455c-2.545.212-5.261.339-8.018.424a10.668,10.668,0,0,1,.17,2.164c0,4.794-1.612,4.921-7.17,4.921s-7.213-.126-7.213-4.921a10.187,10.187,0,0,1,.17-2.122c-2.8-.085-5.558-.254-8.061-.466M82.143,17.926A38.314,38.314,0,0,1,82.016,7.15C82.44,4.6,83.5,3.713,85.707,3.289a75.838,75.838,0,0,1,27.322,0c2.249.424,3.267,1.315,3.649,3.861a35.4,35.4,0,0,1-.127,10.776c-.467,2.545-1.273,3.563-3.521,3.861a101.63,101.63,0,0,1-27.322,0c-2.206-.3-3.055-1.315-3.563-3.861m20.322-5.007a.865.865,0,0,0,.424-1.1.645.645,0,0,0-.891-.382,5.342,5.342,0,0,1-5.176-.042.737.737,0,0,0-.976.339c-.254.467-.042.849.552,1.188a6.527,6.527,0,0,0,6.067,0" transform="translate(-61.549 -72.577)" fill="#ea5b18"/>
      <path id="패스_959" data-name="패스 959" d="M154.364,32.351a4.112,4.112,0,0,1-3.9-4.455c0-2.122,1.485-4.328,3.9-4.073a188.5,188.5,0,0,0,30.165,0c2.46-.212,3.945,1.951,3.945,4.073a4.124,4.124,0,0,1-3.988,4.455c-2.545.212-5.261.339-8.018.424a10.666,10.666,0,0,1,.17,2.164c0,4.794-1.612,4.921-7.17,4.921s-7.213-.126-7.213-4.921a10.227,10.227,0,0,1,.17-2.122c-2.8-.085-5.558-.254-8.061-.466m-2.122-14.425a38.291,38.291,0,0,1-.127-10.776c.424-2.546,1.485-3.437,3.691-3.861a75.835,75.835,0,0,1,27.322,0c2.249.424,3.267,1.315,3.649,3.861a35.4,35.4,0,0,1-.127,10.776c-.467,2.545-1.273,3.563-3.521,3.861a101.626,101.626,0,0,1-27.322,0c-2.206-.3-3.055-1.315-3.564-3.861m20.322-5.007a.865.865,0,0,0,.424-1.1.645.645,0,0,0-.891-.382,5.342,5.342,0,0,1-5.176-.042.737.737,0,0,0-.976.339c-.254.467-.042.849.552,1.188a6.527,6.527,0,0,0,6.067,0" transform="translate(-91.346 -72.577)" fill="#ea5b18"/>
      <path id="패스_960" data-name="패스 960" d="M231.764,9.164a6.06,6.06,0,0,1,.3,3.1,15.7,15.7,0,0,0-2.885,1.146c-.552.254-.255,1.145.467.806a14.236,14.236,0,0,1,6.745-1.57c3.819,0,6.321,1.485,6.958,4.2.678,2.757-1.061,4.582-4.667,5.431a40.792,40.792,0,0,1-8.442.678c-5.473,0-8.019-1.867-8.867-5.176a25.375,25.375,0,0,1,0-11.837c.849-3.309,2.97-4.963,6.576-5.261a53.237,53.237,0,0,1,9.376-.085c3.563.212,5.515,1.612,5.515,4.2,0,2.673-1.739,4.37-5.515,4.37Zm-10.1,22.867c0-5.218,5.09-8.188,17.139-8.188,12.006,0,17.141,2.97,17.141,8.188,0,5.3-4.243,6.916-17.141,6.916-12.94,0-17.139-1.613-17.139-6.916m14.042.212a6.577,6.577,0,0,0,6.152,0,.865.865,0,0,0,.424-1.018c-.127-.339-.594-.636-.933-.424a5.494,5.494,0,0,1-5.134-.043.779.779,0,0,0-1.018.382c-.212.425,0,.807.509,1.1m19.559-13.958a12.083,12.083,0,0,1-.17,1.23c-.382,2.842-2.46,4.115-5.43,4.115-3.436,0-5.685-1.485-5.218-4.625a57.3,57.3,0,0,0,.043-14C243.982,1.528,246.231,0,249.667,0c2.97,0,5.049,1.315,5.43,4.158.086.552.128,1.061.212,1.612l1.358-.127c1.951-.212,3.1,1.7,3.1,6.406,0,4.582-1.145,6.576-3.1,6.365Z" transform="translate(-121.189 -71.707)" fill="#ea5b18"/>
    </g>
    <text id="MUMU_s_Kneading" data-name="MUMU&apos;s Kneading" transform="translate(454.406 -58.76)" fill="#040506" font-size="9" font-family="DNFBitBitv2, DNF Bit Bit v2"><tspan x="0" y="0">MUMU&apos;s Kneading</tspan></text>
  </g>
</svg>
